<svg xmlns="http://www.w3.org/2000/svg" width="1920" height="1080" viewBox="0 0 1920 1080"><defs><style>.cls-1,.cls-2,.cls-3{fill:none;stroke-linecap:round;stroke-miterlimit:10;stroke-width:30px;}.cls-1{stroke:#3eb1cf;}.cls-2{stroke:#bdcada;}.cls-3{stroke:#ffcd50;}.cls-4{fill:#bdcada;}.cls-5{fill:#ffcd50;}.cls-6{fill:#3eb1cf;}</style></defs><title>Tomesh Workshop Illustrations</title><g id="Layer_5" data-name="Layer 5"><path class="cls-1" d="M1520.69,670s-100.8,68.33-214.8,0-214.79,0-214.79,0"/><rect class="cls-2" x="137.11" y="607.09" width="262.2" height="125.86" rx="29.8" ry="29.8"/><line class="cls-2" x1="370.72" y1="430.76" x2="370.72" y2="607.09"/><rect class="cls-2" x="828.9" y="607.09" width="262.2" height="125.86" rx="29.8" ry="29.8"/><line class="cls-2" x1="857.49" y1="430.76" x2="857.49" y2="607.09"/><rect class="cls-2" x="1520.69" y="607.09" width="262.2" height="125.86" rx="29.8" ry="29.8"/><path class="cls-3" d="M416.31,466.12a50,50,0,0,0,0-70.71"/><path class="cls-3" d="M458.74,508.54a110,110,0,0,0,0-155.56"/><path class="cls-3" d="M501.16,551a170,170,0,0,0,0-240.42"/><path class="cls-3" d="M812.9,395.41a50,50,0,0,0,0,70.71"/><path class="cls-3" d="M770.47,353a110,110,0,0,0,0,155.56"/><path class="cls-3" d="M728.05,310.55a170,170,0,0,0,0,240.42"/><path class="cls-4" d="M148.68,794h8.17L166,820h.09L175,794h8.07v33.14h-5.52V801.57h-.09l-9.19,25.57h-4.78l-9.2-25.57h-.09v25.57h-5.52Z"/><path class="cls-4" d="M193.43,816.51c0,3.76,2,7.1,6.45,7.1,3.06,0,4.92-1.34,5.85-4h5c-1.16,5.25-5.61,8.17-10.86,8.17-7.52,0-11.74-5.24-11.74-12.62,0-6.83,4.45-12.68,11.6-12.68,7.57,0,12.21,6.83,11.33,14ZM205.77,813c-.18-3.34-2.46-6.36-6-6.36a6.27,6.27,0,0,0-6.31,6.36Z"/><path class="cls-4" d="M219.1,819.44c.28,3.06,2.6,4.17,5.43,4.17,2,0,5.48-.41,5.34-3.15s-4-3.11-7.85-4-7.7-2.23-7.7-7.11c0-5.24,5.66-6.87,10-6.87,4.92,0,9.38,2,10,7.38h-5.52c-.47-2.5-2.56-3.2-4.88-3.2-1.53,0-4.36.37-4.36,2.46,0,2.6,3.9,3,7.8,3.85s7.75,2.28,7.75,7c0,5.71-5.76,7.8-10.72,7.8-6,0-10.54-2.69-10.63-8.35Z"/><path class="cls-4" d="M239.2,794h5.29v12.3h.09a8.41,8.41,0,0,1,7.2-3.81c5.2,0,8.49,2.79,8.49,8.17v16.48H255V812.06c-.09-3.76-1.58-5.39-4.69-5.39-3.52,0-5.8,2.79-5.8,6.31v14.16H239.2Z"/><path class="cls-4" d="M279.26,794h6.13l15.13,24.42h.09V794h5.53v33.14H300l-15.09-24.37h-.13v24.37h-5.53Z"/><path class="cls-4" d="M311.15,815.12c0-7.33,4.41-12.63,12.12-12.63s12.11,5.3,12.11,12.63-4.41,12.67-12.11,12.67S311.15,822.5,311.15,815.12Zm18.94,0c0-4.13-2.09-8.45-6.82-8.45s-6.83,4.32-6.83,8.45,2.09,8.49,6.83,8.49S330.09,819.3,330.09,815.12Z"/><path class="cls-4" d="M362.4,827.14h-5v-3.25h-.1c-1.39,2.74-4.41,3.9-7.42,3.9-7.57,0-11.24-5.62-11.24-12.81,0-8.68,5.16-12.49,10.4-12.49,3,0,6.36,1.12,8,3.76h.1V794h5.29Zm-11.84-3.53c4.74,0,6.73-4.31,6.73-8.49,0-5.29-2.55-8.45-6.63-8.45-5,0-6.74,4.41-6.74,8.73C343.92,819.53,346,823.61,350.56,823.61Z"/><path class="cls-4" d="M372.29,816.51c0,3.76,2,7.1,6.45,7.1,3.06,0,4.92-1.34,5.85-4h5c-1.16,5.25-5.61,8.17-10.86,8.17-7.52,0-11.74-5.24-11.74-12.62,0-6.83,4.45-12.68,11.6-12.68,7.57,0,12.21,6.83,11.33,14ZM384.63,813c-.18-3.34-2.46-6.36-6-6.36a6.27,6.27,0,0,0-6.31,6.36Z"/><path class="cls-5" d="M524.13,219.72H530l6,25.34h.09l6.69-25.34h5.94l6.5,25.34h.09l6.18-25.34h5.89l-9.14,33.14h-5.9l-6.64-25.35h-.09l-6.78,25.35h-6Z"/><path class="cls-5" d="M570.6,219.72h5.29v5H570.6Zm0,9.14h5.29v24H570.6Z"/><path class="cls-5" d="M581.64,228.86h5v4.64h.09a7.76,7.76,0,0,1,7-5.29,12.11,12.11,0,0,1,2,.14v5.11a17.45,17.45,0,0,0-2.28-.24c-3.62,0-6.49,2.93-6.49,8.22v11.42h-5.3Z"/><path class="cls-5" d="M601.28,242.23c0,3.76,2,7.1,6.45,7.1,3.07,0,4.92-1.35,5.85-4h5c-1.16,5.24-5.61,8.17-10.86,8.17-7.52,0-11.74-5.25-11.74-12.63,0-6.82,4.46-12.67,11.6-12.67,7.57,0,12.21,6.82,11.33,14Zm12.35-3.48c-.19-3.34-2.46-6.36-6-6.36a6.27,6.27,0,0,0-6.31,6.36Z"/><path class="cls-5" d="M623.1,219.72h5.29v33.14H623.1Z"/><path class="cls-5" d="M638.28,242.23c0,3.76,2,7.1,6.45,7.1,3.06,0,4.92-1.35,5.85-4h5c-1.16,5.24-5.61,8.17-10.86,8.17-7.52,0-11.74-5.25-11.74-12.63,0-6.82,4.45-12.67,11.6-12.67,7.57,0,12.21,6.82,11.33,14Zm12.35-3.48c-.19-3.34-2.46-6.36-6-6.36a6.26,6.26,0,0,0-6.31,6.36Z"/><path class="cls-5" d="M664,245.15c.28,3.07,2.6,4.18,5.43,4.18,2,0,5.48-.42,5.34-3.16s-4-3.11-7.85-4-7.7-2.23-7.7-7.1c0-5.25,5.66-6.87,10-6.87,4.92,0,9.37,2,10,7.38H673.7c-.47-2.51-2.56-3.2-4.88-3.2-1.53,0-4.36.37-4.36,2.46,0,2.6,3.9,3,7.8,3.85s7.75,2.28,7.75,7c0,5.71-5.76,7.8-10.72,7.8-6,0-10.54-2.69-10.63-8.36Z"/><path class="cls-5" d="M688,245.15c.28,3.07,2.6,4.18,5.43,4.18,2,0,5.48-.42,5.34-3.16s-4-3.11-7.84-4-7.71-2.23-7.71-7.1c0-5.25,5.66-6.87,10-6.87,4.92,0,9.37,2,10,7.38h-5.52c-.46-2.51-2.55-3.2-4.87-3.2-1.54,0-4.37.37-4.37,2.46,0,2.6,3.9,3,7.8,3.85s7.75,2.28,7.75,7c0,5.71-5.75,7.8-10.72,7.8-6,0-10.54-2.69-10.63-8.36Z"/><path class="cls-6" d="M1218.3,539.72h23.86v5H1224.1v8.68h16.71v4.74H1224.1v9.7h18.38v5H1218.3Z"/><path class="cls-6" d="M1244.39,548.86h4v-7.19h5.29v7.19h4.78v3.95h-4.78v12.81c0,2.18.19,3.3,2.55,3.3a8.85,8.85,0,0,0,2.23-.19v4.08c-1.16.1-2.27.28-3.43.28-5.53,0-6.55-2.13-6.64-6.12V552.81h-4Z"/><path class="cls-6" d="M1262.26,539.72h5.29V552h.09a8.41,8.41,0,0,1,7.2-3.81c5.2,0,8.49,2.79,8.49,8.17v16.48H1278V557.77c-.09-3.76-1.58-5.38-4.69-5.38-3.53,0-5.8,2.79-5.8,6.31v14.16h-5.29Z"/><path class="cls-6" d="M1293,562.23c0,3.76,2,7.1,6.46,7.1,3.06,0,4.92-1.34,5.84-4h5c-1.16,5.25-5.62,8.17-10.86,8.17-7.52,0-11.75-5.25-11.75-12.63,0-6.82,4.46-12.67,11.61-12.67,7.56,0,12.2,6.83,11.32,14Zm12.35-3.48c-.18-3.34-2.46-6.36-6-6.36a6.28,6.28,0,0,0-6.32,6.36Z"/><path class="cls-6" d="M1314.71,548.86h5v4.64h.09a7.76,7.76,0,0,1,7-5.29,13.54,13.54,0,0,1,2,.14v5.11a19.35,19.35,0,0,0-2.28-.23c-3.62,0-6.5,2.92-6.5,8.21v11.42h-5.29Z"/><path class="cls-6" d="M1331.89,548.86h5v3.53l.09.09a8.62,8.62,0,0,1,7.48-4.27c5.2,0,8.49,2.79,8.49,8.17v16.48h-5.29V557.77c-.09-3.76-1.58-5.38-4.69-5.38-3.53,0-5.8,2.79-5.8,6.31v14.16h-5.29Z"/><path class="cls-6" d="M1362.67,562.23c0,3.76,2,7.1,6.45,7.1,3.06,0,4.92-1.34,5.85-4h5c-1.16,5.25-5.62,8.17-10.86,8.17-7.52,0-11.75-5.25-11.75-12.63,0-6.82,4.46-12.67,11.61-12.67,7.56,0,12.21,6.83,11.32,14Zm12.34-3.48c-.18-3.34-2.46-6.36-6-6.36a6.26,6.26,0,0,0-6.31,6.36Z"/><path class="cls-6" d="M1381.93,548.86h4v-7.19h5.29v7.19H1396v3.95h-4.79v12.81c0,2.18.19,3.3,2.56,3.3a8.89,8.89,0,0,0,2.23-.19v4.08c-1.17.1-2.28.28-3.44.28-5.52,0-6.54-2.13-6.64-6.12V552.81h-4Z"/><path class="cls-4" d="M840.46,794h8.17l9.15,26h.09l8.91-26h8.08v33.14h-5.52V801.57h-.1l-9.19,25.57h-4.78l-9.19-25.57H846v25.57h-5.53Z"/><path class="cls-4" d="M885.21,816.51c0,3.76,2,7.1,6.46,7.1,3.06,0,4.92-1.34,5.85-4h5c-1.16,5.25-5.62,8.17-10.86,8.17-7.52,0-11.75-5.24-11.75-12.62,0-6.83,4.46-12.68,11.61-12.68,7.56,0,12.21,6.83,11.32,14ZM897.56,813c-.18-3.34-2.46-6.36-6-6.36a6.28,6.28,0,0,0-6.32,6.36Z"/><path class="cls-4" d="M910.89,819.44c.28,3.06,2.6,4.17,5.43,4.17,2,0,5.47-.41,5.34-3.15s-4-3.11-7.85-4-7.7-2.23-7.7-7.11c0-5.24,5.66-6.87,10-6.87,4.92,0,9.38,2,10,7.38h-5.53c-.46-2.5-2.55-3.2-4.87-3.2-1.53,0-4.36.37-4.36,2.46,0,2.6,3.9,3,7.8,3.85s7.75,2.28,7.75,7c0,5.71-5.76,7.8-10.73,7.8-6,0-10.53-2.69-10.63-8.35Z"/><path class="cls-4" d="M931,794h5.29v12.3h.09a8.41,8.41,0,0,1,7.2-3.81c5.19,0,8.49,2.79,8.49,8.17v16.48h-5.29V812.06c-.09-3.76-1.58-5.39-4.69-5.39-3.53,0-5.8,2.79-5.8,6.31v14.16H931Z"/><path class="cls-4" d="M971.05,794h6.13l15.13,24.42h.09V794h5.52v33.14H991.8l-15.09-24.37h-.14v24.37h-5.52Z"/><path class="cls-4" d="M1002.94,815.12c0-7.33,4.41-12.63,12.11-12.63s12.12,5.3,12.12,12.63-4.41,12.67-12.12,12.67S1002.94,822.5,1002.94,815.12Zm18.94,0c0-4.13-2.09-8.45-6.83-8.45s-6.82,4.32-6.82,8.45,2.09,8.49,6.82,8.49S1021.88,819.3,1021.88,815.12Z"/><path class="cls-4" d="M1054.19,827.14h-5v-3.25h-.09c-1.39,2.74-4.41,3.9-7.43,3.9-7.56,0-11.23-5.62-11.23-12.81,0-8.68,5.15-12.49,10.4-12.49,3,0,6.36,1.12,8,3.76h.09V794h5.3Zm-11.84-3.53c4.73,0,6.73-4.31,6.73-8.49,0-5.29-2.55-8.45-6.64-8.45-5,0-6.73,4.41-6.73,8.73C1035.71,819.53,1037.75,823.61,1042.35,823.61Z"/><path class="cls-4" d="M1064.08,816.51c0,3.76,2,7.1,6.45,7.1,3.06,0,4.92-1.34,5.85-4h5c-1.16,5.25-5.62,8.17-10.86,8.17-7.52,0-11.75-5.24-11.75-12.62,0-6.83,4.46-12.68,11.61-12.68,7.56,0,12.21,6.83,11.32,14Zm12.34-3.48c-.18-3.34-2.46-6.36-6-6.36a6.26,6.26,0,0,0-6.31,6.36Z"/><path class="cls-4" d="M1532.25,794h8.17l9.15,26h.09l8.91-26h8.08v33.14h-5.53V801.57H1561l-9.19,25.57h-4.78l-9.19-25.57h-.09v25.57h-5.53Z"/><path class="cls-4" d="M1577,816.51c0,3.76,2,7.1,6.45,7.1,3.07,0,4.92-1.34,5.85-4h5c-1.16,5.25-5.62,8.17-10.87,8.17-7.52,0-11.74-5.24-11.74-12.62,0-6.83,4.46-12.68,11.6-12.68,7.57,0,12.21,6.83,11.33,14Zm12.35-3.48c-.19-3.34-2.46-6.36-6-6.36A6.28,6.28,0,0,0,1577,813Z"/><path class="cls-4" d="M1602.67,819.44c.28,3.06,2.6,4.17,5.43,4.17,2,0,5.48-.41,5.34-3.15s-4-3.11-7.84-4-7.71-2.23-7.71-7.11c0-5.24,5.67-6.87,10-6.87,4.92,0,9.37,2,10,7.38h-5.52c-.46-2.5-2.55-3.2-4.87-3.2-1.53,0-4.37.37-4.37,2.46,0,2.6,3.9,3,7.8,3.85s7.75,2.28,7.75,7c0,5.71-5.75,7.8-10.72,7.8-6,0-10.54-2.69-10.63-8.35Z"/><path class="cls-4" d="M1622.77,794h5.3v12.3h.09a8.41,8.41,0,0,1,7.19-3.81c5.2,0,8.5,2.79,8.5,8.17v16.48h-5.29V812.06c-.1-3.76-1.58-5.39-4.69-5.39-3.53,0-5.8,2.79-5.8,6.31v14.16h-5.3Z"/><path class="cls-4" d="M1662.84,794H1669l15.13,24.42h.1V794h5.52v33.14h-6.13l-15.08-24.37h-.14v24.37h-5.52Z"/><path class="cls-4" d="M1694.73,815.12c0-7.33,4.41-12.63,12.11-12.63s12.12,5.3,12.12,12.63-4.41,12.67-12.12,12.67S1694.73,822.5,1694.73,815.12Zm18.94,0c0-4.13-2.09-8.45-6.83-8.45S1700,811,1700,815.12s2.09,8.49,6.82,8.49S1713.67,819.3,1713.67,815.12Z"/><path class="cls-4" d="M1746,827.14h-5v-3.25h-.09c-1.4,2.74-4.41,3.9-7.43,3.9-7.56,0-11.23-5.62-11.23-12.81,0-8.68,5.15-12.49,10.4-12.49,3,0,6.35,1.12,8,3.76h.09V794H1746Zm-11.83-3.53c4.73,0,6.73-4.31,6.73-8.49,0-5.29-2.56-8.45-6.64-8.45-5,0-6.73,4.41-6.73,8.73C1727.5,819.53,1729.54,823.61,1734.14,823.61Z"/><path class="cls-4" d="M1755.86,816.51c0,3.76,2.05,7.1,6.45,7.1,3.07,0,4.92-1.34,5.85-4h5c-1.16,5.25-5.62,8.17-10.87,8.17-7.52,0-11.74-5.24-11.74-12.62,0-6.83,4.46-12.68,11.6-12.68,7.57,0,12.21,6.83,11.33,14Zm12.35-3.48c-.19-3.34-2.46-6.36-6-6.36a6.28,6.28,0,0,0-6.31,6.36Z"/></g></svg>