<svg id="Layer_2" data-name="Layer 2" xmlns="http://www.w3.org/2000/svg" width="1920" height="1080" viewBox="0 0 1920 1080"><defs><style>.cls-1,.cls-3,.cls-4,.cls-5{fill:none;stroke-linecap:round;stroke-miterlimit:10;stroke-width:30px;}.cls-1{stroke:#bdcada;}.cls-2{fill:#bdcada;}.cls-3,.cls-4{stroke:#ffcd50;}.cls-4{stroke-dasharray:41.4 82.8;}.cls-5{stroke:#3eb1cf;}.cls-6{fill:#3eb1cf;}</style></defs><title>Illustrations</title><path class="cls-1" d="M318.22,423.09V614a24.83,24.83,0,0,1-24.83,24.83H124.53A24.83,24.83,0,0,1,99.7,614V519.61"/><path class="cls-1" d="M54.44,468.35l137-137a24.85,24.85,0,0,1,35.12,0l137,137"/><path class="cls-2" d="M779.74,389.05H826V566.7H779.74Z"/><path class="cls-2" d="M894.19,507c1,20.9,13.93,27.61,33.59,27.61,13.93,0,28.36-5,28.36-18.16,0-15.67-25.38-18.66-51-25.88-25.37-7.21-52-18.66-52-51.25,0-38.81,39.07-54,72.41-54,35.33,0,70.91,17.17,71.16,57.22H950.42c.74-16.17-14.43-21.39-28.62-21.39-9.95,0-22.39,3.48-22.39,15.17,0,13.69,25.63,16.18,51.51,23.39,25.62,7.22,51.5,19.16,51.5,51.26,0,45-38.32,59.46-77.38,59.46-40.81,0-76.88-17.91-77.13-63.44Z"/><path class="cls-2" d="M1024.07,389.05h84.34c33.1,0,64.2,15.18,64.2,57.23,0,44-25.13,61.2-64.2,61.2h-38.06V566.7h-46.28Zm46.28,82.61h31.1c14.43,0,24.88-6,24.88-22.15,0-16.67-10.7-23.39-24.88-23.39h-31.1Z"/><line class="cls-3" x1="452.81" y1="482.52" x2="477.81" y2="482.52"/><line class="cls-4" x1="560.6" y1="482.52" x2="643.4" y2="482.52"/><line class="cls-3" x1="684.8" y1="482.52" x2="709.8" y2="482.52"/><rect class="cls-5" x="1587.04" y="324.12" width="218.52" height="314.68" rx="24.83" ry="24.83"/><line class="cls-3" x1="1233.12" y1="482.52" x2="1258.12" y2="482.52"/><line class="cls-4" x1="1340.92" y1="482.52" x2="1423.72" y2="482.52"/><line class="cls-3" x1="1465.11" y1="482.52" x2="1490.11" y2="482.52"/><rect class="cls-5" x="1587.04" y="324.12" width="218.52" height="104.89" rx="24.83" ry="24.83"/><rect class="cls-5" x="1587.04" y="429.01" width="218.52" height="104.89" rx="24.83" ry="24.83"/><rect class="cls-5" x="1587.04" y="533.91" width="218.52" height="104.89" rx="24.83" ry="24.83"/><line class="cls-5" x1="1636.11" y1="376.57" x2="1672.11" y2="376.57"/><line class="cls-5" x1="1636.11" y1="481.46" x2="1672.11" y2="481.46"/><line class="cls-5" x1="1636.11" y1="586.35" x2="1672.11" y2="586.35"/><path class="cls-2" d="M171.74,738.5l-16.63-26.94h9l11.73,19.86,11.54-19.86h8.69L179.5,738.5v17.38h-7.76Z"/><path class="cls-2" d="M192.23,739.8c0-9.81,5.9-16.88,16.2-16.88s16.2,7.07,16.2,16.88-5.9,17-16.2,17S192.23,749.67,192.23,739.8Zm25.32,0c0-5.52-2.79-11.3-9.12-11.3s-9.12,5.78-9.12,11.3,2.79,11.36,9.12,11.36S217.55,745.39,217.55,739.8Z"/><path class="cls-2" d="M258.71,755.88h-6.95v-4.47h-.12a10.78,10.78,0,0,1-9.13,5.34c-8.38,0-12-4.22-12-12.6V723.79h7.08v19.67c0,5.65,2.29,7.7,6.14,7.7,5.9,0,7.89-3.79,7.89-8.75V723.79h7.07Z"/><path class="cls-6" d="M1508.7,711.56h7.88l8,33.89h.12l8.94-33.89h7.94l8.69,33.89h.13l8.25-33.89h7.89l-12.23,44.32h-7.88L1537.56,722h-.12l-9.07,33.89h-8Z"/><path class="cls-6" d="M1575.06,741.66c0,5,2.73,9.5,8.62,9.5,4.1,0,6.58-1.8,7.83-5.34h6.7c-1.55,7-7.51,10.93-14.53,10.93-10,0-15.7-7-15.7-16.89,0-9.12,6-16.94,15.52-16.94,10.12,0,16.32,9.12,15.14,18.74Zm16.51-4.65c-.25-4.47-3.29-8.51-8.07-8.51s-8.26,3.73-8.44,8.51Z"/><path class="cls-6" d="M1604.23,711.56h7.08V728h.12a11.68,11.68,0,0,1,9.56-5c10.12,0,15,7.69,15,17.07,0,8.63-4.34,16.76-13.84,16.76-4.34,0-9-1.06-11.11-5.28h-.12v4.41h-6.71Zm15.83,16.94c-6,0-9,4.54-9,11.36,0,6.46,3.29,11.3,9,11.3,6.46,0,8.88-5.71,8.88-11.3C1628.94,734,1625.9,728.5,1620.06,728.5Z"/><path class="cls-6" d="M1690.15,725.65c-1.31-5.09-4.6-8.82-11.05-8.82-9.5,0-13.47,8.38-13.47,16.89s4,16.88,13.47,16.88c6.89,0,10.67-5.15,11.3-11.61H1698c-.62,10.62-8.13,17.94-18.87,17.94-13.29,0-21.23-10.55-21.23-23.21s7.94-23.22,21.23-23.22c10,.06,17.88,5.59,18.81,15.15Z"/><path class="cls-6" d="M1702.57,739.8c0-9.81,5.89-16.88,16.2-16.88S1735,730,1735,739.8s-5.9,17-16.2,17S1702.57,749.67,1702.57,739.8Zm25.32,0c0-5.52-2.79-11.3-9.12-11.3s-9.13,5.78-9.13,11.3,2.8,11.36,9.13,11.36S1727.89,745.39,1727.89,739.8Z"/><path class="cls-6" d="M1740.87,723.79h6.7v4.71l.13.13a11.48,11.48,0,0,1,10-5.71c7,0,11.36,3.72,11.36,10.92v22H1762V735.7c-.12-5-2.11-7.2-6.27-7.2-4.72,0-7.76,3.73-7.76,8.45v18.93h-7.07Z"/><path class="cls-6" d="M1773.27,723.79h5.34v-9.62h7.08v9.62h6.39v5.27h-6.39v17.13c0,2.92.24,4.41,3.41,4.41a12,12,0,0,0,3-.25v5.47c-1.55.12-3,.37-4.59.37-7.39,0-8.76-2.86-8.88-8.19V729.06h-5.34Z"/><path class="cls-6" d="M1802.7,741.66c0,5,2.73,9.5,8.62,9.5,4.1,0,6.58-1.8,7.83-5.34h6.7c-1.55,7-7.51,10.93-14.53,10.93-10,0-15.7-7-15.7-16.89,0-9.12,6-16.94,15.52-16.94,10.12,0,16.32,9.12,15.14,18.74Zm16.51-4.65c-.25-4.47-3.29-8.51-8.07-8.51s-8.26,3.73-8.44,8.51Z"/><path class="cls-6" d="M1831.69,723.79h6.7v4.71l.13.13a11.48,11.48,0,0,1,10-5.71c7,0,11.36,3.72,11.36,10.92v22h-7.08V735.7c-.12-5-2.11-7.2-6.27-7.2-4.72,0-7.76,3.73-7.76,8.45v18.93h-7.07Z"/><path class="cls-6" d="M1864.09,723.79h5.34v-9.62h7.08v9.62h6.39v5.27h-6.39v17.13c0,2.92.24,4.41,3.41,4.41a12,12,0,0,0,3-.25v5.47c-1.55.12-3,.37-4.59.37-7.39,0-8.76-2.86-8.88-8.19V729.06h-5.34Z"/></svg>