<svg xmlns="http://www.w3.org/2000/svg" width="1920" height="1080" viewBox="0 0 1920 1080"><defs><style>.cls-1,.cls-3,.cls-5,.cls-6,.cls-7,.cls-8{fill:none;stroke-linecap:round;stroke-miterlimit:10;}.cls-1{stroke:#bdcada;}.cls-1,.cls-3{stroke-width:22.43px;}.cls-2{fill:#bdcada;}.cls-3{stroke:#3eb1cf;}.cls-4{fill:#3eb1cf;}.cls-5,.cls-6,.cls-7,.cls-8{stroke:#ffcd50;stroke-width:22.43px;}.cls-5{stroke-dasharray:25 50;}.cls-7{stroke-dasharray:19.4 38.81;}.cls-8{stroke-dasharray:15.37 30.75;}</style></defs><title>Illustrations</title><g id="Layer_3" data-name="Layer 3"><path class="cls-1" d="M281.69,438.15V580.88a18.56,18.56,0,0,1-18.57,18.57H136.86a18.56,18.56,0,0,1-18.57-18.57V510.32"/><path class="cls-1" d="M84.44,472,186.86,369.58a18.57,18.57,0,0,1,26.26,0L315.53,472"/><path class="cls-2" d="M1054.6,328.52h25v95.93h-25Z"/><path class="cls-2" d="M1116.41,392.2c.53,11.29,7.52,14.92,18.13,14.92,7.53,0,15.32-2.69,15.32-9.81,0-8.47-13.7-10.08-27.54-14s-28.08-10.08-28.08-27.68c0-21,21.09-29.16,39.09-29.16,19.08,0,38.29,9.27,38.43,30.91h-25c.4-8.74-7.79-11.56-15.45-11.56-5.38,0-12.09,1.88-12.09,8.2,0,7.39,13.84,8.73,27.81,12.63s27.81,10.34,27.81,27.67c0,24.32-20.69,32.11-41.78,32.11-22,0-41.52-9.67-41.65-34.26Z"/><path class="cls-2" d="M1186.54,328.52h45.55c17.87,0,34.66,8.2,34.66,30.9,0,23.78-13.57,33.05-34.66,33.05h-20.56v32h-25Zm25,44.61h16.8c7.79,0,13.43-3.23,13.43-12,0-9-5.78-12.63-13.43-12.63h-16.8Z"/><path class="cls-2" d="M1326.41,367v-16.8c13.17.27,26.74-4.57,27.68-19.35H1373v93.65h-24.18V367Z"/><rect class="cls-3" x="1636.54" y="365.37" width="163.4" height="235.31" rx="18.57" ry="18.57"/><rect class="cls-3" x="1636.54" y="365.37" width="163.4" height="78.44" rx="18.57" ry="18.57"/><rect class="cls-3" x="1636.54" y="443.81" width="163.4" height="78.44" rx="18.57" ry="18.57"/><rect class="cls-3" x="1636.54" y="522.24" width="163.4" height="78.44" rx="18.57" ry="18.57"/><line class="cls-3" x1="1673.23" y1="404.59" x2="1700.16" y2="404.59"/><line class="cls-3" x1="1673.23" y1="483.02" x2="1700.16" y2="483.02"/><line class="cls-3" x1="1673.23" y1="561.46" x2="1700.16" y2="561.46"/><path class="cls-2" d="M172.16,684l-12.44-20.14h6.73l8.77,14.85,8.64-14.85h6.49L178,684v13h-5.8Z"/><path class="cls-2" d="M187.48,685c0-7.33,4.41-12.63,12.11-12.63s12.12,5.3,12.12,12.63-4.41,12.67-12.12,12.67S187.48,692.36,187.48,685Zm18.94,0c0-4.13-2.09-8.45-6.83-8.45s-6.82,4.32-6.82,8.45,2.09,8.49,6.82,8.49S206.42,689.16,206.42,685Z"/><path class="cls-2" d="M237.19,697H232v-3.34h-.1a8.07,8.07,0,0,1-6.82,4c-6.27,0-9-3.15-9-9.42V673h5.29v14.72c0,4.22,1.72,5.75,4.6,5.75,4.41,0,5.89-2.83,5.89-6.54V673h5.29Z"/><path class="cls-4" d="M1576.94,667h5.9l6,25.34h.09L1595.6,667h6l6.49,25.34h.1l6.17-25.34h5.9l-9.15,33.14h-5.89l-6.64-25.34h-.09l-6.78,25.34h-6Z"/><path class="cls-4" d="M1626.57,689.52c0,3.76,2,7.1,6.45,7.1,3.06,0,4.92-1.34,5.85-4h5c-1.16,5.25-5.61,8.17-10.86,8.17-7.52,0-11.74-5.25-11.74-12.63,0-6.82,4.45-12.67,11.6-12.67,7.57,0,12.21,6.83,11.33,14Zm12.35-3.48c-.19-3.34-2.46-6.36-6-6.36a6.27,6.27,0,0,0-6.31,6.36Z"/><path class="cls-4" d="M1648.39,667h5.29v12.25h.09a8.75,8.75,0,0,1,7.15-3.76c7.57,0,11.23,5.76,11.23,12.77,0,6.45-3.25,12.53-10.35,12.53-3.25,0-6.73-.79-8.31-3.95h-.09v3.3h-5Zm11.83,12.67c-4.45,0-6.73,3.39-6.73,8.49,0,4.83,2.46,8.45,6.73,8.45,4.83,0,6.64-4.27,6.64-8.45C1666.86,683.81,1664.59,679.68,1660.22,679.68Z"/><path class="cls-4" d="M1712.63,677.54c-1-3.8-3.43-6.59-8.26-6.59-7.1,0-10.07,6.27-10.07,12.63s3,12.63,10.07,12.63c5.15,0,8-3.86,8.45-8.68h5.66c-.46,7.93-6.08,13.41-14.11,13.41-9.93,0-15.87-7.89-15.87-17.36s5.94-17.36,15.87-17.36c7.47,0,13.37,4.18,14.06,11.32Z"/><path class="cls-4" d="M1721.92,688.13c0-7.34,4.41-12.63,12.11-12.63s12.12,5.29,12.12,12.63-4.41,12.67-12.12,12.67S1721.92,695.51,1721.92,688.13Zm18.94,0c0-4.13-2.09-8.45-6.83-8.45s-6.82,4.32-6.82,8.45,2.09,8.49,6.82,8.49S1740.86,692.31,1740.86,688.13Z"/><path class="cls-4" d="M1750.56,676.15h5v3.53l.1.09a8.59,8.59,0,0,1,7.47-4.27c5.2,0,8.49,2.79,8.49,8.17v16.48h-5.29V685.06c-.09-3.76-1.58-5.38-4.69-5.38-3.52,0-5.8,2.79-5.8,6.31v14.16h-5.29Z"/><path class="cls-4" d="M1774.79,676.15h4V669h5.29v7.19h4.79v4h-4.79v12.81c0,2.18.19,3.3,2.56,3.3a8.89,8.89,0,0,0,2.23-.19v4.08c-1.16.1-2.28.28-3.44.28-5.52,0-6.54-2.13-6.64-6.12V680.1h-4Z"/><path class="cls-4" d="M1796.79,689.52c0,3.76,2,7.1,6.46,7.1,3.06,0,4.92-1.34,5.84-4h5c-1.16,5.25-5.62,8.17-10.86,8.17-7.52,0-11.75-5.25-11.75-12.63,0-6.82,4.46-12.67,11.61-12.67,7.56,0,12.2,6.83,11.32,14Zm12.35-3.48c-.18-3.34-2.46-6.36-6-6.36a6.28,6.28,0,0,0-6.32,6.36Z"/><path class="cls-4" d="M1818.47,676.15h5v3.53l.09.09a8.61,8.61,0,0,1,7.47-4.27c5.2,0,8.5,2.79,8.5,8.17v16.48h-5.29V685.06c-.1-3.76-1.58-5.38-4.69-5.38-3.53,0-5.81,2.79-5.81,6.31v14.16h-5.29Z"/><path class="cls-4" d="M1842.71,676.15h4V669H1852v7.19h4.78v4H1852v12.81c0,2.18.18,3.3,2.55,3.3a8.85,8.85,0,0,0,2.23-.19v4.08c-1.16.1-2.27.28-3.44.28-5.52,0-6.54-2.13-6.63-6.12V680.1h-4Z"/><line class="cls-5" x1="640.57" y1="471.02" x2="693.5" y2="416.23"/><line class="cls-5" x1="745.68" y1="381.8" x2="825.56" y2="372.81"/><line class="cls-5" x1="659.01" y1="513.74" x2="756.56" y2="525.7"/><line class="cls-5" x1="814.89" y1="550.63" x2="861.78" y2="620.07"/><line class="cls-5" x1="1427.97" y1="645.15" x2="1547.45" y2="508.75"/><line class="cls-5" x1="583.58" y1="500.33" x2="334.52" y2="500.33"/><line class="cls-6" x1="894.55" y1="365.5" x2="906.99" y2="366.71"/><line class="cls-7" x1="945.62" y1="370.46" x2="984.25" y2="374.22"/><line class="cls-6" x1="1003.56" y1="376.09" x2="1016" y2="377.3"/><line class="cls-6" x1="914.27" y1="649.5" x2="926.75" y2="648.86"/><line class="cls-8" x1="957.46" y1="647.27" x2="988.16" y2="645.68"/><line class="cls-6" x1="1003.52" y1="644.88" x2="1016" y2="644.24"/><circle class="cls-1" cx="577.08" cy="339.84" r="34.5"/><circle class="cls-1" cx="693.5" cy="684" r="34.5"/><circle class="cls-1" cx="860.06" cy="365.5" r="34.5"/><circle class="cls-1" cx="624.51" cy="501.55" r="34.5"/><circle class="cls-1" cx="791.06" cy="525.7" r="34.5"/><circle class="cls-1" cx="711.18" cy="386.6" r="34.5"/><circle class="cls-1" cx="534.71" cy="670.81" r="34.5"/><circle class="cls-1" cx="879.77" cy="649.5" r="34.5"/><line class="cls-1" x1="582.68" y1="373.88" x2="608.38" y2="471.05"/><line class="cls-1" x1="604" y1="529.29" x2="548.06" y2="638.99"/><line class="cls-1" x1="636.07" y1="534.05" x2="681.95" y2="651.49"/><line class="cls-1" x1="716.23" y1="658.06" x2="785.62" y2="560.19"/><line class="cls-1" x1="728" y1="416.72" x2="774.86" y2="495.24"/><line class="cls-1" x1="728" y1="684" x2="849.39" y2="665.85"/><line class="cls-1" x1="810.98" y1="497.54" x2="860.06" y2="400"/><path class="cls-2" d="M1054.6,594.55h25v95.93h-25Z"/><path class="cls-2" d="M1116.41,658.23c.53,11.29,7.52,14.91,18.13,14.91,7.53,0,15.32-2.68,15.32-9.8,0-8.47-13.7-10.08-27.54-14s-28.08-10.07-28.08-27.67c0-21,21.09-29.16,39.09-29.16,19.08,0,38.29,9.27,38.43,30.9h-25c.4-8.73-7.79-11.55-15.45-11.55-5.38,0-12.09,1.88-12.09,8.19,0,7.39,13.84,8.74,27.81,12.63s27.81,10.35,27.81,27.68c0,24.32-20.69,32.11-41.78,32.11-22,0-41.52-9.67-41.65-34.26Z"/><path class="cls-2" d="M1186.54,594.55h45.55c17.87,0,34.66,8.19,34.66,30.9,0,23.78-13.57,33-34.66,33h-20.56v32h-25Zm25,44.6h16.8c7.79,0,13.43-3.22,13.43-11.95,0-9-5.78-12.63-13.43-12.63h-16.8Z"/><path class="cls-2" d="M1316.6,690.48a41.48,41.48,0,0,1,14.65-31.17c8.06-7,17.19-11.83,24.45-16.4s12.22-9.27,12.22-15.58c0-7.26-4.83-11.69-12.09-11.69-12.09,0-15.45,8.73-15.58,18.94h-21.37c-1.34-23.24,13.44-39,36.82-39,18.54,0,35.06,9.67,35.06,29.69,0,18-12.89,24.73-26.6,33.19-7.12,4.43-10.88,6.72-16.93,12.63h44.48v19.35Z"/><line class="cls-5" x1="1427.78" y1="372.37" x2="1547.26" y2="508.76"/><line class="cls-5" x1="1547.45" y1="508.75" x2="1585" y2="508.75"/><path class="cls-2" d="M541.73,778.58h8.17L559,804.53h.1l8.91-25.95h8.08v33.14H570.6V786.15h-.09l-9.19,25.57h-4.78l-9.19-25.57h-.1v25.57h-5.52Z"/><path class="cls-2" d="M586.48,801.09c0,3.76,2,7.1,6.45,7.1,3.07,0,4.92-1.34,5.85-4h5c-1.16,5.25-5.61,8.17-10.86,8.17-7.52,0-11.74-5.24-11.74-12.62,0-6.83,4.46-12.68,11.6-12.68,7.57,0,12.21,6.83,11.33,14Zm12.35-3.48c-.19-3.34-2.46-6.36-6-6.36a6.28,6.28,0,0,0-6.31,6.36Z"/><path class="cls-2" d="M612.15,804c.28,3.06,2.6,4.17,5.43,4.17,2,0,5.48-.41,5.34-3.15s-4-3.11-7.84-4-7.71-2.23-7.71-7.11c0-5.24,5.66-6.87,10-6.87,4.92,0,9.37,2,10,7.38H621.9c-.46-2.5-2.55-3.2-4.87-3.2-1.54,0-4.37.37-4.37,2.46,0,2.6,3.9,3,7.8,3.85s7.75,2.28,7.75,7c0,5.71-5.75,7.8-10.72,7.8-6,0-10.54-2.69-10.63-8.35Z"/><path class="cls-2" d="M632.25,778.58h5.29v12.3h.1a8.41,8.41,0,0,1,7.19-3.81c5.2,0,8.5,2.79,8.5,8.17v16.48H648V796.64c-.1-3.76-1.58-5.39-4.69-5.39-3.53,0-5.81,2.79-5.81,6.31v14.16h-5.29Z"/><path class="cls-2" d="M672.31,778.58h6.13L693.57,803h.1V778.58h5.52v33.14h-6.13L678,787.35h-.14v24.37h-5.53Z"/><path class="cls-2" d="M709.45,801.09c0,3.76,2,7.1,6.45,7.1,3.07,0,4.92-1.34,5.85-4h5c-1.16,5.25-5.61,8.17-10.86,8.17-7.52,0-11.74-5.24-11.74-12.62,0-6.83,4.46-12.68,11.6-12.68,7.57,0,12.21,6.83,11.33,14Zm12.35-3.48c-.19-3.34-2.46-6.36-6-6.36a6.28,6.28,0,0,0-6.31,6.36Z"/><path class="cls-2" d="M728.72,787.72h4v-7.19H738v7.19h4.78v3.95H738v12.81c0,2.18.19,3.3,2.55,3.3a8.85,8.85,0,0,0,2.23-.19v4.08c-1.16.1-2.27.28-3.43.28-5.53,0-6.55-2.13-6.64-6.12V791.67h-4Z"/><path class="cls-2" d="M744.41,787.72H750l4.69,17.92h.09l4.51-17.92h5.33L769,805.64h.09l4.88-17.92h5.38l-7.52,24h-5.43l-4.45-17.82h-.1l-4.41,17.82h-5.57Z"/><path class="cls-2" d="M781.59,799.7c0-7.33,4.41-12.63,12.12-12.63s12.11,5.3,12.11,12.63-4.41,12.67-12.11,12.67S781.59,807.08,781.59,799.7Zm18.94,0c0-4.13-2.09-8.45-6.82-8.45s-6.83,4.32-6.83,8.45,2.09,8.49,6.83,8.49S800.53,803.88,800.53,799.7Z"/><path class="cls-2" d="M810.23,787.72h5v4.65h.09a7.74,7.74,0,0,1,7-5.3,13.54,13.54,0,0,1,2,.14v5.11a19.79,19.79,0,0,0-2.28-.23c-3.62,0-6.5,2.92-6.5,8.21v11.42h-5.29Z"/><path class="cls-2" d="M826.71,778.58H832v18.84l9.56-9.7h6.5l-9.19,8.82,10.07,15.18h-6.45l-7.33-11.65L832,803.13v8.59h-5.29Z"/></g></svg>