<svg xmlns="http://www.w3.org/2000/svg" width="1920" height="1080" viewBox="0 0 1920 1080"><defs><style>.cls-1,.cls-2,.cls-3{fill:none;stroke-linecap:round;stroke-miterlimit:10;stroke-width:30px;}.cls-1{stroke:#ffcd50;stroke-dasharray:50 75;}.cls-2{stroke:#bdcada;}.cls-3{stroke:#3eb1cf;}.cls-4{fill:#bdcada;}.cls-5{fill:#3eb1cf;}</style></defs><title>Illustrations</title><g id="Layer_4" data-name="Layer 4"><line class="cls-1" x1="997.52" y1="462.4" x2="1068.77" y2="388.65"/><line class="cls-2" x1="1139" y1="342.31" x2="1246.51" y2="330.2"/><line class="cls-1" x1="1022.34" y1="519.91" x2="1153.65" y2="535.99"/><line class="cls-2" x1="1232.15" y1="569.55" x2="1295.26" y2="663.02"/><line class="cls-1" x1="611" y1="527.95" x2="929.47" y2="503.49"/><circle class="cls-2" cx="912.07" cy="285.84" r="46.43"/><circle class="cls-2" cx="1068.77" cy="749.07" r="46.43"/><circle class="cls-2" cx="1292.95" cy="320.38" r="46.43"/><circle class="cls-2" cx="975.9" cy="503.49" r="46.43"/><circle class="cls-2" cx="855.04" cy="731.32" r="46.43"/><circle class="cls-2" cx="1319.49" cy="702.64" r="46.43"/><line class="cls-2" x1="919.61" y1="331.65" x2="954.2" y2="462.44"/><line class="cls-2" x1="948.3" y1="540.83" x2="873" y2="688.49"/><line class="cls-2" x1="991.47" y1="547.24" x2="1053.22" y2="705.32"/><line class="cls-2" x1="1099.35" y1="714.15" x2="1192.75" y2="582.43"/><line class="cls-2" x1="1115.21" y1="389.31" x2="1178.27" y2="495"/><line class="cls-2" x1="1115.21" y1="749.07" x2="1278.59" y2="724.64"/><line class="cls-2" x1="1226.9" y1="498.1" x2="1292.95" y2="366.81"/><circle class="cls-3" cx="1200.08" cy="535.99" r="46.43"/><circle class="cls-3" cx="1092.56" cy="348.77" r="46.43"/><path class="cls-4" d="M868.69,856.9h10.77l12.06,34.21h.12l11.75-34.21H914v43.7h-7.28V866.88h-.12L894.52,900.6h-6.31L876.1,866.88H876V900.6h-7.28Z"/><path class="cls-4" d="M927.69,886.58c0,5,2.69,9.37,8.5,9.37,4,0,6.49-1.78,7.71-5.27h6.61c-1.53,6.92-7.4,10.78-14.32,10.78-9.91,0-15.48-6.92-15.48-16.65,0-9,5.87-16.71,15.3-16.71,10,0,16.1,9,14.93,18.48ZM944,882c-.25-4.4-3.25-8.38-8-8.38s-8.14,3.67-8.32,8.38Z"/><path class="cls-4" d="M961.53,890.44c.36,4,3.43,5.51,7.16,5.51,2.63,0,7.22-.55,7-4.16s-5.27-4.11-10.35-5.27-10.16-2.94-10.16-9.36c0-6.92,7.47-9.06,13.22-9.06,6.49,0,12.37,2.69,13.22,9.73h-7.28c-.61-3.3-3.37-4.22-6.43-4.22-2,0-5.75.49-5.75,3.24,0,3.43,5.14,3.92,10.28,5.08s10.22,3,10.22,9.24c0,7.53-7.59,10.29-14.13,10.29-8,0-13.9-3.55-14-11Z"/><path class="cls-4" d="M988,856.9h7v16.22h.12a11.08,11.08,0,0,1,9.49-5c6.86,0,11.2,3.67,11.2,10.77V900.6h-7V880.71c-.12-5-2.08-7.1-6.18-7.1-4.65,0-7.65,3.67-7.65,8.32V900.6h-7Z"/><path class="cls-4" d="M1040.84,856.9h8.08l19.95,32.19h.12V856.9h7.28v43.7h-8.07l-19.9-32.13h-.18V900.6h-7.28Z"/><path class="cls-4" d="M1089.79,886.58c0,5,2.7,9.37,8.51,9.37,4,0,6.49-1.78,7.71-5.27h6.61c-1.53,6.92-7.4,10.78-14.32,10.78-9.91,0-15.48-6.92-15.48-16.65,0-9,5.87-16.71,15.3-16.71,10,0,16.09,9,14.93,18.48Zm16.29-4.59c-.25-4.4-3.25-8.38-8-8.38s-8.14,3.67-8.33,8.38Z"/><path class="cls-4" d="M1115.19,869h5.26v-9.49h7V869h6.31v5.2h-6.31v16.89c0,2.88.25,4.35,3.37,4.35a11.7,11.7,0,0,0,2.94-.25v5.39c-1.53.12-3,.36-4.53.36-7.29,0-8.63-2.81-8.76-8.07V874.16h-5.26Z"/><path class="cls-4" d="M1135.88,869h7.4l6.18,23.62h.12l5.94-23.62h7l5.69,23.62h.12L1174.8,869h7.1L1172,900.6h-7.16L1159,877.1h-.12L1153,900.6h-7.34Z"/><path class="cls-4" d="M1184.89,884.75c0-9.67,5.82-16.65,16-16.65s16,7,16,16.65-5.81,16.71-16,16.71S1184.89,894.48,1184.89,884.75Zm25,0c0-5.45-2.75-11.14-9-11.14s-9,5.69-9,11.14,2.76,11.2,9,11.2S1209.86,890.25,1209.86,884.75Z"/><path class="cls-4" d="M1222.65,869h6.55v6.12h.12c.8-3.37,5-7,9.24-7a17.07,17.07,0,0,1,2.64.18V875a23.47,23.47,0,0,0-3-.31c-4.78,0-8.57,3.86-8.57,10.83V900.6h-7Z"/><path class="cls-4" d="M1244.38,856.9h7v24.85L1264,869h8.57l-12.12,11.62,13.28,20h-8.5l-9.67-15.36-4.17,4V900.6h-7Z"/><path class="cls-2" d="M537.85,410.52V601.39A24.84,24.84,0,0,1,513,626.23H344.16a24.84,24.84,0,0,1-24.83-24.84V507"/><path class="cls-2" d="M274.08,455.78l137-137a24.85,24.85,0,0,1,35.12,0l137,137"/><path class="cls-4" d="M391.38,725.93,374.74,699h9l11.73,19.86L407,699h8.69l-16.58,26.94v17.38h-7.75Z"/><path class="cls-4" d="M411.86,727.23c0-9.81,5.9-16.88,16.2-16.88s16.2,7.07,16.2,16.88-5.89,16.95-16.2,16.95S411.86,737.1,411.86,727.23Zm25.33,0c0-5.52-2.8-11.3-9.13-11.3s-9.12,5.78-9.12,11.3,2.79,11.36,9.12,11.36S437.19,732.82,437.19,727.23Z"/><path class="cls-4" d="M478.34,743.31h-6.95v-4.47h-.12a10.78,10.78,0,0,1-9.13,5.34c-8.38,0-12-4.22-12-12.6V711.21h7.08v19.68c0,5.65,2.3,7.7,6.14,7.7,5.9,0,7.89-3.79,7.89-8.75V711.21h7.07Z"/><path class="cls-5" d="M1308.59,511.23h7.77l7.9,33.42h.12l8.81-33.42H1341l8.56,33.42h.13l8.14-33.42h7.77l-12.06,43.7h-7.77l-8.75-33.42h-.12L1328,554.93h-7.9Z"/><path class="cls-5" d="M1374,540.91c0,5,2.69,9.37,8.51,9.37,4,0,6.48-1.78,7.71-5.27h6.61c-1.53,6.92-7.41,10.78-14.32,10.78-9.92,0-15.49-6.92-15.49-16.65,0-9,5.88-16.71,15.3-16.71,10,0,16.1,9,14.94,18.48Zm16.28-4.59c-.25-4.4-3.25-8.38-8-8.38s-8.14,3.67-8.32,8.38Z"/><path class="cls-5" d="M1402.77,511.23h7v16.16h.12a11.54,11.54,0,0,1,9.43-5c10,0,14.81,7.59,14.81,16.83,0,8.51-4.29,16.53-13.65,16.53-4.29,0-8.88-1-11-5.21h-.12v4.35h-6.61Zm15.61,16.71c-5.88,0-8.88,4.47-8.88,11.2,0,6.36,3.25,11.14,8.88,11.14,6.36,0,8.75-5.63,8.75-11.14C1427.13,533.38,1424.13,527.94,1418.38,527.94Z"/><path class="cls-5" d="M1487.47,525.12c-1.28-5-4.53-8.69-10.89-8.69-9.37,0-13.28,8.26-13.28,16.65s3.91,16.65,13.28,16.65c6.79,0,10.52-5.08,11.14-11.45h7.46c-.61,10.47-8,17.69-18.6,17.69-13.1,0-20.93-10.41-20.93-22.89s7.83-22.89,20.93-22.89c9.85.06,17.62,5.51,18.54,14.93Z"/><path class="cls-5" d="M1499.71,539.08c0-9.67,5.81-16.65,16-16.65s16,7,16,16.65-5.81,16.71-16,16.71S1499.71,548.81,1499.71,539.08Zm25,0c0-5.45-2.76-11.14-9-11.14s-9,5.69-9,11.14,2.76,11.2,9,11.2S1524.68,544.58,1524.68,539.08Z"/><path class="cls-5" d="M1537.46,523.29h6.61v4.65l.13.12a11.32,11.32,0,0,1,9.85-5.63c6.86,0,11.2,3.67,11.2,10.77v21.73h-7V535c-.12-5-2.08-7.1-6.18-7.1-4.65,0-7.65,3.67-7.65,8.32v18.67h-7Z"/><path class="cls-5" d="M1569.41,523.29h5.26V513.8h7v9.49h6.3v5.2h-6.3v16.89c0,2.88.24,4.35,3.36,4.35a11.7,11.7,0,0,0,2.94-.25v5.39c-1.53.12-3,.36-4.53.36-7.28,0-8.63-2.81-8.75-8.07V528.49h-5.26Z"/><path class="cls-5" d="M1598.42,540.91c0,5,2.69,9.37,8.5,9.37,4,0,6.49-1.78,7.71-5.27h6.62c-1.54,6.92-7.41,10.78-14.33,10.78-9.91,0-15.48-6.92-15.48-16.65,0-9,5.87-16.71,15.3-16.71,10,0,16.1,9,14.93,18.48Zm16.28-4.59c-.25-4.4-3.25-8.38-8-8.38s-8.14,3.67-8.32,8.38Z"/><path class="cls-5" d="M1627,523.29h6.61v4.65l.13.12a11.32,11.32,0,0,1,9.85-5.63c6.86,0,11.2,3.67,11.2,10.77v21.73h-7V535c-.12-5-2.08-7.1-6.18-7.1-4.65,0-7.65,3.67-7.65,8.32v18.67h-7Z"/><path class="cls-5" d="M1658.94,523.29h5.26V513.8h7v9.49h6.3v5.2h-6.3v16.89c0,2.88.24,4.35,3.37,4.35a11.66,11.66,0,0,0,2.93-.25v5.39c-1.53.12-3,.36-4.53.36-7.28,0-8.63-2.81-8.75-8.07V528.49h-5.26Z"/></g></svg>