<?xml version="1.0" encoding="utf-8"?>
<!-- Generator: Adobe Illustrator 23.0.1, SVG Export Plug-In . SVG Version: 6.00 Build 0)  -->
<svg version="1.1" id="Layer_1" xmlns="http://www.w3.org/2000/svg" xmlns:xlink="http://www.w3.org/1999/xlink" x="0px" y="0px"
	 viewBox="0 0 1920 600" style="enable-background:new 0 0 1920 600;" xml:space="preserve">
<style type="text/css">
	.st0{fill:#FFCD50;}
	.st1{fill:#BDCADA;}
</style>
<title>Storage1</title>
<g>
	<g id="Module_3_Part_Graphics">
		<g id="Storage">
			<path class="st0" d="M1425.2,259.1c2.3,3.9,5.2,7.3,8.7,10.1c3,2.2,6.6,3.3,10.3,3.2c5.6,0,8.5-2.1,8.5-6.2
				c0.1-1.8-0.7-3.5-2.1-4.6c-1.7-1.3-3.6-2.4-5.6-3.1c-2.4-0.9-5.1-2-8.1-3.2c-1.9-0.8-4.1-1.9-6.7-3.2c-2.6-1.3-5.1-2.9-7.3-4.8
				c-2.4-2-4.4-4.5-5.8-7.3c-1.6-3.2-2.4-6.8-2.3-10.4c-0.1-4.4,1.2-8.6,3.8-12.2c2.7-3.6,6.3-6.4,10.5-8.1c4.9-2,10.2-3,15.5-2.9
				c5.3-0.2,10.6,0.8,15.5,2.7c3.7,1.6,7.1,3.9,9.9,6.9c2.2,2.4,4,5.2,5.3,8.2l-16.6,9.3c-3.4-5.6-7.7-8.5-13-8.5
				c-2-0.1-4,0.4-5.7,1.5c-1.4,0.8-2.3,2.3-2.3,3.9c0.1,1.7,1.1,3.3,2.6,4.1c2.2,1.3,4.5,2.4,6.9,3.1c2.8,1,5.7,2.1,8.9,3.2
				c5.6,1.8,10.6,4.9,14.7,9c3.8,4,5.7,9.3,5.7,16.1c0,8.5-3,14.9-8.9,19.2c-5.9,4.3-13.8,6.4-23.6,6.4c-5,0-9.9-0.9-14.5-2.7
				c-4.4-1.7-8.5-4.3-11.9-7.5c-3.3-3.2-5.9-7.1-7.5-11.4L1425.2,259.1z"/>
			<path class="st0" d="M1503.7,288.6h-15.1v-80h30c9,0,16.8,1.6,23.3,4.8c6.3,3,11.6,7.7,15.2,13.7c3.6,6,5.4,13.1,5.4,21.4
				c0,8.3-1.8,15.4-5.4,21.4c-3.6,6-8.9,10.8-15.2,13.8c-6.5,3.2-14.3,4.8-23.3,4.8L1503.7,288.6L1503.7,288.6z M1511.7,269.2h5.9
				c3.5,0,7-0.6,10.3-1.7c3.3-1.1,6.1-3.3,8-6.1c2.1-2.9,3.2-7.2,3.2-12.8c0-5.6-1-9.9-3.1-12.8c-1.9-2.9-4.7-5-8-6.1
				c-3.3-1.1-6.8-1.7-10.3-1.7h-6V269.2z"/>
			<path class="st1" d="M1635,123.3l-60.2-60.2c-9.2-9.2-21.4-14.2-34.4-14.2h-168.8c-26.8,0-48.6,21.8-48.6,48.6v313.8
				c0,26.8,21.8,48.6,48.6,48.6h228.9c26.8,0,48.6-21.8,48.6-48.6V157.7C1649.2,144.7,1644.2,132.5,1635,123.3z M1410.9,431.4
				c4.6-6.8,12.4-11.4,21.3-11.4h108c8.8,0,16.7,4.5,21.3,11.4H1410.9z M1620.6,411.3c0,11-9,20-20,20h-8.2
				c-6.3-23-27.3-39.9-52.3-39.9h-108c-25,0-46,16.9-52.3,39.9h-8.2c-11,0-20-9-20-20V97.5c0-11,9-20,20-20h168.8
				c5.3,0,10.4,2.1,14.1,5.9l60.2,60.2c3.8,3.8,5.8,8.8,5.8,14.2V411.3z"/>
		</g>
	</g>
</g>
</svg>
