<?xml version="1.0" encoding="utf-8"?>
<!-- Generator: Adobe Illustrator 23.0.1, SVG Export Plug-In . SVG Version: 6.00 Build 0)  -->
<svg version="1.1" id="Layer_1" xmlns="http://www.w3.org/2000/svg" xmlns:xlink="http://www.w3.org/1999/xlink" x="0px" y="0px"
	 viewBox="0 0 1920 505.9" style="enable-background:new 0 0 1920 505.9;" xml:space="preserve">
<style type="text/css">
	.st0{fill:#BDCADA;}
	.st1{fill:#FFCD50;}
	.st2{fill:#3EB1CF;}
</style>
<title>workshop-illustrations</title>
<g id="Slide_1">
	<path class="st0" d="M509,194.9l-106-106c-12-12-31.6-12-43.6,0l-106,106c-4.6,4.6-4.6,11.9,0,16.4c4.6,4.6,11.9,4.6,16.4,0
		l106-106c2.9-2.9,7.8-2.9,10.8,0l67.6,67.6v143c0,4.2-3.4,7.6-7.6,7.6H315.8c-4.2,0-7.6-3.4-7.6-7.6v-73.1
		c0-6.4-5.2-11.6-11.6-11.6s-11.6,5.2-11.6,11.6v73.1c0,17,13.9,30.8,30.8,30.8h130.7c17,0,30.8-13.9,30.8-30.8V196l15.2,15.2
		c2.2,2.2,5.3,3.4,8.2,3.4c2.9,0,6-1.2,8.2-3.4C513.5,206.7,513.5,199.4,509,194.9z"/>
	<path class="st0" d="M830.5,144.4h38.2v134.8h-38.2V144.4z"/>
	<path class="st0" d="M914.5,229.5c4.9,7.7,9.8,13.3,14.6,17c4.9,3.6,10.7,5.4,17.3,5.4c9.5,0,14.2-3.5,14.2-10.4
		c0.1-2.9-1.2-5.8-3.5-7.7c-2.9-2.2-6-4-9.4-5.3c-3.9-1.5-8.5-3.3-13.7-5.4c-3.3-1.4-7-3.2-11.3-5.3c-4.4-2.2-8.5-4.9-12.3-8.1
		c-4-3.4-7.4-7.6-9.8-12.2c-2.6-4.9-3.9-10.8-3.9-17.5c0-7.8,2.1-14.6,6.3-20.5c4.3-5.8,10.1-10.4,17.6-13.7
		c7.5-3.3,16.2-4.9,26.1-4.9c10.4,0,19.1,1.5,26.1,4.6c7,3.1,12.5,6.9,16.6,11.5c3.8,4,6.7,8.7,8.8,13.8l-27.9,15.6
		c-5.7-9.5-13-14.2-22-14.2c-3.9,0-7.2,0.9-9.8,2.5c-2.5,1.7-3.8,3.9-3.8,6.6s1.5,5,4.4,6.8c3.6,2.2,7.4,3.9,11.5,5.3
		c4.7,1.7,9.7,3.5,14.9,5.4c10.1,3.5,18.4,8.5,24.8,15.2c6.4,6.7,9.6,15.7,9.7,27.2c0,14.4-5,25.2-14.9,32.4
		c-10,7.2-23.2,10.8-39.8,10.8c-8.3,0-16.5-1.5-24.2-4.5c-7.4-2.9-14.2-7.2-20-12.7c-5.7-5.3-10-11.9-12.8-19.1L914.5,229.5z"/>
	<path class="st0" d="M1058.5,234.8v44.5h-37.4V144.4h49.8c18.5,0,32.2,3.9,41.1,11.9s13.4,19,13.4,33.1c0,14-4.5,25-13.4,33.1
		s-22.6,12.2-41.1,12.2H1058.5z M1058.5,204.5h12.5c6,0,10.6-1.3,13.8-3.9c3.2-2.6,4.7-6.3,4.7-11.1c0-9.8-6.2-14.6-18.5-14.6h-12.5
		V204.5z"/>
	<path class="st1" d="M589.2,225.6h-19.4c-6.4,0-11.6-5.2-11.6-11.6s5.2-11.6,11.6-11.6h19.4c6.4,0,11.6,5.2,11.6,11.6
		S595.7,225.6,589.2,225.6z"/>
	<path class="st1" d="M685.4,225.6h-32c-6.4,0-11.6-5.2-11.6-11.6s5.2-11.6,11.6-11.6h32c6.4,0,11.6,5.2,11.6,11.6
		S691.8,225.6,685.4,225.6z"/>
	<path class="st1" d="M768.8,225.6h-19.4c-6.4,0-11.6-5.2-11.6-11.6s5.2-11.6,11.6-11.6h19.4c6.4,0,11.6,5.2,11.6,11.6
		S775.2,225.6,768.8,225.6z"/>
	<path class="st1" d="M1193.2,225.6h-19.4c-6.4,0-11.6-5.2-11.6-11.6s5.2-11.6,11.6-11.6h19.4c6.4,0,11.6,5.2,11.6,11.6
		S1199.7,225.6,1193.2,225.6z"/>
	<path class="st1" d="M1289.4,225.6h-32c-6.4,0-11.6-5.2-11.6-11.6s5.2-11.6,11.6-11.6h32c6.4,0,11.6,5.2,11.6,11.6
		S1295.8,225.6,1289.4,225.6z"/>
	<path class="st1" d="M1372.8,225.6h-19.4c-6.4,0-11.6-5.2-11.6-11.6s5.2-11.6,11.6-11.6h19.4c6.4,0,11.6,5.2,11.6,11.6
		S1379.2,225.6,1372.8,225.6z"/>
	<g>
		<path class="st2" d="M1597.7,79.8H1467c-16.5,0-30,13-30.8,29.3c0,0.5-0.1,1.1-0.1,1.5v42.7v38.5v42.7v38.5v42.7
			c0,0.5,0,1.1,0.1,1.5c0.9,16.3,14.3,29.3,30.8,29.3h130.7c17,0,30.8-13.9,30.8-30.8v-42.7v-38.5v-42.7v-38.5v-42.7
			C1628.5,93.7,1614.8,79.8,1597.7,79.8z M1605.3,191.9v42.7c0,4.2-3.4,7.6-7.6,7.6H1467c-4.2,0-7.6-3.4-7.6-7.6v-42.7
			c0-4.2,3.4-7.6,7.6-7.6h130.7C1601.9,184.2,1605.3,187.6,1605.3,191.9z M1597.7,103c4.2,0,7.6,3.4,7.6,7.6v42.7
			c0,4.2-3.4,7.6-7.6,7.6H1467c-4.2,0-7.6-3.4-7.6-7.6v-42.6c0-4.2,3.4-7.6,7.6-7.6L1597.7,103L1597.7,103z M1605.3,315.8
			c0,4.2-3.4,7.6-7.6,7.6H1467c-4.2,0-7.6-3.4-7.6-7.6v-42.7c0-4.2,3.4-7.6,7.6-7.6h130.7c4.2,0,7.6,3.4,7.6,7.6L1605.3,315.8
			L1605.3,315.8z"/>
		<path class="st2" d="M1485.8,143.7h27.9c6.4,0,11.6-5.2,11.6-11.6c0-6.4-5.2-11.6-11.6-11.6h-27.9c-6.4,0-11.6,5.2-11.6,11.6
			C1474.2,138.5,1479.4,143.7,1485.8,143.7z"/>
		<path class="st2" d="M1485.8,224.9h27.9c6.4,0,11.6-5.2,11.6-11.6s-5.2-11.6-11.6-11.6h-27.9c-6.4,0-11.6,5.2-11.6,11.6
			S1479.4,224.9,1485.8,224.9z"/>
		<path class="st2" d="M1513.7,282.8h-27.9c-6.4,0-11.6,5.2-11.6,11.6s5.2,11.6,11.6,11.6h27.9c6.4,0,11.6-5.2,11.6-11.6
			S1520.1,282.8,1513.7,282.8z"/>
	</g>
	<path class="st0" d="M368.6,399l-9.3,14.6v7.6h5.3v4.6h-15.6v-4.6h5v-7.6l-9.7-14.5h-2.9v-4.6h12.3v4.6h-3.3l6.3,9.8h0.3l6.1-9.8
		h-3.5v-4.6h11.8v4.6L368.6,399z"/>
	<path class="st0" d="M380.5,426.1c-6.6,0-10.9-4.3-10.9-11.1c0-6.3,3.8-11.5,11.2-11.5c7.4,0,11.2,5.2,11.2,11.3
		C392,421.6,387.3,426.1,380.5,426.1z M380.7,407.6c-3.6,0-5.8,2.9-5.8,7.1c0,4.1,1.9,7.3,5.8,7.3c3.7,0,6-2.9,6-7.4
		C386.7,410.2,384.2,407.6,380.7,407.6z"/>
	<path class="st0" d="M411.7,425.6V422c-1.4,2.6-4.2,4.2-7.1,4c-4.1,0-7.5-2.3-7.5-7.7V408h-3.3V404h8.4v12.4c0,4.1,1.5,5.7,4.3,5.7
		c3.3,0,5.3-2.6,5.3-5.7v-8.4h-3.9v-3.9h9v17.6h3.4v3.9L411.7,425.6z"/>
	<path class="st2" d="M1438.4,399l-8.5,26.7h-3.9l-7.7-22h-0.2l-7.4,22h-4l-9.1-26.7h-2.7v-4.6h11.8v4.6h-3.5l5.4,17.9h0.2l6.2-17.9
		h-2.7v-4.6h11.8v4.6h-2.6l6.2,18.1h0.2l4.9-18.1h-3.9v-4.6h11.7v4.6H1438.4z"/>
	<path class="st2" d="M1450.7,426.1c-6.3,0-10.8-3.7-10.8-10.9c0-6.7,3.9-11.6,10.4-11.6c6,0,9.7,4,9.8,9.4c0,0.9-0.1,1.9-0.3,2.9
		h-14.5c0.3,3.9,2.2,6,5.7,6c3.3,0,4.6-1.9,5-3.7l4.3,0.8C1460,422.9,1456.6,426.1,1450.7,426.1z M1450.4,407.4
		c-3.1,0-4.6,2.3-5,5.3h9.5C1455.2,410.2,1453.8,407.4,1450.4,407.4z"/>
	<path class="st2" d="M1476.7,426.1c-3.3,0-5.9-1.5-7.1-3.9c-0.1,0.8-0.3,2.6-0.5,3.3h-5.1c0.5-2.2,0.7-4.3,0.8-6.5v-22.6h-3.3v-3.9
		h8.3v15.8c1.2-2.9,4.3-4.8,7.4-4.7c5.4,0,9.2,3.9,9.2,10.7C1486.5,420.5,1483.3,426.1,1476.7,426.1z M1475.7,407.8
		c-3.6,0-5.8,3.3-5.9,6.3v1.5c0,3.6,2.2,6.3,5.7,6.3c3.6,0,5.7-2.9,5.7-7.3C1481.1,410.2,1478.8,407.8,1475.7,407.8L1475.7,407.8z"
		/>
	<path class="st2" d="M1514.5,426.1c-9.1,0-15.6-6.5-15.6-15.7c0-7.7,4.7-16.5,15.6-16.5c5.3,0,8.9,1.7,11.1,3.7l0.8,6.8l-4.3,0.5
		l-0.8-4.3c-2.1-1.2-4.5-1.9-7-1.9c-5.9,0-9.8,4.4-9.8,11.5c0,7.4,4.1,11.3,10.3,11.3c2.2,0.1,4.3-0.4,6.3-1.3l0.8-4.6l4.4,0.4
		l-0.7,6.8C1523.4,424.8,1518.9,426.1,1514.5,426.1z"/>
	<path class="st2" d="M1540.7,426.1c-6.6,0-11-4.3-11-11.1c0-6.3,3.8-11.5,11.2-11.5s11.2,5.2,11.2,11.3
		C1552.1,421.6,1547.4,426.1,1540.7,426.1z M1540.8,407.6c-3.6,0-5.8,2.9-5.8,7.1c0,4.1,1.9,7.3,5.8,7.3c3.7,0,6-2.9,6-7.4
		C1546.8,410.2,1544.3,407.6,1540.8,407.6L1540.8,407.6z"/>
	<path class="st2" d="M1569.5,425.6v-3.9h3.2v-8.4c0-4.1-1.5-5.7-4.2-5.7c-3.3,0-5.3,2.4-5.3,5.5v8.6h3.3v3.9h-11.6v-3.9h3.3v-13.6
		h-3.3v-4h8.5v3.5c1.5-2.6,4.3-4.1,7.1-3.9c4.1,0,7.5,2.4,7.5,7.7v10.3h3.3v3.9L1569.5,425.6L1569.5,425.6z"/>
	<path class="st2" d="M1592.7,426.1c-4.6,0-7.5-2.6-7.5-6.9v-11.4h-3.2V404h3.2v-6.7h5.1v6.7h8v3.8h-8v10.5c0,2.3,1.1,3.4,2.9,3.4
		c1.1,0,2.7-0.4,3.3-3.7l3.8,1.2C1599.7,423.9,1597,426.1,1592.7,426.1z"/>
	<path class="st2" d="M1612.2,426.1c-6.3,0-10.8-3.7-10.8-10.9c0-6.7,3.9-11.6,10.4-11.6c6,0,9.7,4,9.8,9.4c0,0.9-0.1,1.9-0.3,2.9
		h-14.6c0.3,3.9,2.2,6,5.7,6c3.3,0,4.6-1.9,5-3.7l4.3,0.8C1621.5,422.9,1618.1,426.1,1612.2,426.1z M1611.9,407.4
		c-3.1,0-4.6,2.3-5,5.3h9.5C1616.7,410.2,1615.3,407.4,1611.9,407.4L1611.9,407.4z"/>
	<path class="st2" d="M1639.2,425.6v-3.9h3.2v-8.4c0-4.1-1.5-5.7-4.2-5.7c-3.3,0-5.3,2.4-5.3,5.5v8.6h3.3v3.9h-11.6v-3.9h3.3v-13.6
		h-3.3v-4h8.5v3.5c1.5-2.6,4.3-4.1,7.1-3.9c4.1,0,7.5,2.4,7.5,7.7v10.3h3.3v3.9L1639.2,425.6L1639.2,425.6z"/>
	<path class="st2" d="M1662.5,426.1c-4.6,0-7.5-2.6-7.5-6.9v-11.4h-3.2V404h3.2v-6.7h5.1v6.7h8.1v3.8h-8.1v10.5
		c0,2.3,1.1,3.4,2.9,3.4c1.1,0,2.7-0.4,3.3-3.7l3.8,1.2C1669.5,423.9,1666.8,426.1,1662.5,426.1z"/>
</g>
</svg>
