<?xml version="1.0" encoding="utf-8"?>
<!-- Generator: Adobe Illustrator 23.0.1, SVG Export Plug-In . SVG Version: 6.00 Build 0)  -->
<svg version="1.1" id="Layer_1" xmlns="http://www.w3.org/2000/svg" xmlns:xlink="http://www.w3.org/1999/xlink" x="0px" y="0px"
	 viewBox="0 0 1920 475.2" style="enable-background:new 0 0 1920 475.2;" xml:space="preserve">
<style type="text/css">
	.st0{fill:#FFCD50;}
	.st1{fill:#BDCADA;}
	.st2{fill:#3EB1CF;}
</style>
<title>workshop-illustrations</title>
<g id="Slide_3">
	<path class="st0" d="M985.7,180.7c-2.5,0-5-0.9-6.9-2.8c-4-3.9-4.1-10.2-0.3-14.1l23.1-24c3.9-4,10.2-4.1,14.1-0.3
		c4,3.9,4.1,10.2,0.3,14.1l-23.1,24C990.8,179.7,988.3,180.7,985.7,180.7z"/>
	<path class="st0" d="M1089.5,229.7c-0.4,0-0.8,0-1.2-0.1l-4.8-0.6c-5.5-0.7-9.4-5.7-8.7-11.1c0.7-5.5,5.7-9.4,11.1-8.7l4.8,0.6
		c5.5,0.7,9.4,5.7,8.7,11.1C1098.8,226,1094.5,229.7,1089.5,229.7z M1035.2,223c-0.4,0-0.8,0-1.2-0.1l-33-4.1
		c-5.5-0.7-9.4-5.7-8.7-11.1c0.7-5.5,5.7-9.4,11.1-8.7l33,4.1c5.5,0.7,9.4,5.7,8.7,11.1C1044.5,219.3,1040.2,223,1035.2,223z"/>
	<path class="st0" d="M728.4,224.4c-5.2,0-9.5-4-9.9-9.2c-0.4-5.5,3.7-10.3,9.2-10.7l33.2-2.5c5.5-0.4,10.3,3.7,10.7,9.2
		s-3.7,10.3-9.2,10.7l-33.2,2.5C729,224.3,728.7,224.4,728.4,224.4z M811.4,218c-5.2,0-9.5-4-9.9-9.2c-0.4-5.5,3.7-10.3,9.2-10.7
		l33.2-2.5c5.5-0.4,10.3,3.7,10.7,9.2c0.4,5.5-3.7,10.3-9.2,10.7l-33.2,2.5C811.9,218,811.7,218,811.4,218z M894.3,211.6
		c-5.2,0-9.5-4-9.9-9.2c-0.4-5.5,3.7-10.3,9.2-10.7l33.1-2.5c5.5-0.4,10.3,3.7,10.7,9.2c0.4,5.5-3.7,10.3-9.2,10.7l-33.2,2.5
		C894.8,211.6,894.6,211.6,894.3,211.6z"/>
	<path class="st1" d="M1199.8,289.7c-4.4,0-8.6,0.7-12.6,2l-37.3-55.2c-3.1-4.6-9.3-5.8-13.8-2.7c-4.6,3.1-5.8,9.3-2.7,13.8
		l36.9,54.7c-7.1,7.3-11.4,17.3-11.4,28.3c0,2.2,0.2,4.4,0.5,6.5l-87.2,13c-1.3-4.6-3.5-8.8-6.2-12.6l57.6-81.2
		c3.2-4.5,2.1-10.7-2.4-13.9s-10.7-2.1-13.9,2.4l-56.6,79.8c-5.4-2.6-11.4-4.1-17.8-4.1c-1.4,0-2.8,0.1-4.1,0.2l-34.7-88.9
		c10.8-7.4,18-19.8,18-33.8c0-22.6-18.4-40.9-40.9-40.9c-2.6,0-5.1,0.3-7.5,0.7l-17.8-67.5c14-6.5,23.8-20.7,23.8-37.1
		c0-22.6-18.4-40.9-40.9-40.9s-40.9,18.3-40.9,40.8c0,21.7,17,39.5,38.3,40.8l19.2,72.5c-9.1,7.5-15,18.9-15,31.6
		c0,10.3,3.9,19.8,10.2,27l-43,84.3c-2.2-0.4-4.5-0.6-6.8-0.6c-22.6,0-40.9,18.4-40.9,40.9c0,22.6,18.4,40.9,40.9,40.9
		s40.9-18.4,40.9-40.9c0-13.1-6.2-24.8-15.8-32.3l41.3-81c4.4,1.6,9.1,2.5,14,2.5c1.4,0,2.8-0.1,4.1-0.2l34.7,88.9
		c-10.8,7.4-18,19.8-18,33.9c0,22.6,18.4,40.9,40.9,40.9c19.6,0,35.9-13.8,39.9-32.1l95-14.2c7.5,9.4,19,15.4,31.9,15.4
		c22.6,0,40.9-18.4,40.9-40.9C1240.8,308.1,1222.4,289.7,1199.8,289.7z M907.9,53.2c0-11.5,9.4-20.9,20.9-20.9s20.9,9.4,20.9,20.9
		s-9.4,20.9-20.9,20.9S907.9,64.8,907.9,53.2z M890.8,370.6c-11.5,0-20.9-9.4-20.9-20.9c0-11.5,9.4-20.9,20.9-20.9
		s20.9,9.4,20.9,20.9C911.7,361.2,902.4,370.6,890.8,370.6z M950.3,198.1c0-11.5,9.4-20.9,20.9-20.9c11.5,0,20.9,9.4,20.9,20.9
		c0,11.5-9.4,20.9-20.9,20.9S950.3,209.6,950.3,198.1z M1033,382.4c-11.5,0-20.9-9.4-20.9-20.9c0-11.5,9.4-20.9,20.9-20.9
		c11.5,0,20.9,9.4,20.9,20.9S1044.6,382.4,1033,382.4z M1199.8,351.5c-11.5,0-20.9-9.4-20.9-20.9s9.4-20.9,20.9-20.9
		c11.5,0,20.9,9.4,20.9,20.9C1220.8,342.1,1211.4,351.5,1199.8,351.5z"/>
	<g>
		<path class="st1" d="M1223.1,76.3c0-22.6-18.4-40.9-40.9-40.9c-21.8,0-39.5,17-40.8,38.5l-62.7,7.1c-5.5,0.6-9.4,5.6-8.8,11
			c0.6,5.1,4.9,8.8,9.9,8.8c0.4,0,0.7,0,1.1-0.1l64.3-7.3c4.5,9.5,12.4,17,22.2,20.8l-38.1,75.7c-2.5,4.9-0.5,10.9,4.5,13.4
			c1.5,0.7,3,1.1,4.5,1.1c3.7,0,7.2-2,8.9-5.5l41.5-82.4C1208.1,113.5,1223.1,96.6,1223.1,76.3z M1182.2,97.2
			c-11.5,0-20.9-9.4-20.9-20.9s9.4-20.9,20.9-20.9c11.5,0,20.9,9.4,20.9,20.9S1193.7,97.2,1182.2,97.2z"/>
		<path class="st1" d="M1072.5,117c-2.8-4.7-9-6.3-13.7-3.5s-6.3,9-3.5,13.7l42,70.3c1.9,3.1,5.2,4.9,8.6,4.9c1.7,0,3.5-0.5,5.1-1.4
			c4.7-2.8,6.3-9,3.5-13.7L1072.5,117z"/>
	</g>
	<path class="st2" d="M1120.4,260.6c-22.6,0-40.9-18.4-40.9-40.9c0-22.6,18.4-40.9,40.9-40.9s40.9,18.4,40.9,40.9
		C1161.3,242.3,1143,260.6,1120.4,260.6z M1120.4,198.8c-11.5,0-20.9,9.4-20.9,20.9c0,11.5,9.4,20.9,20.9,20.9
		c11.5,0,20.9-9.4,20.9-20.9C1141.4,208.2,1132,198.8,1120.4,198.8z"/>
	<path class="st2" d="M1048.9,136c-22.6,0-40.9-18.4-40.9-40.9s18.4-40.9,40.9-40.9c22.6,0,40.9,18.4,40.9,40.9
		S1071.4,136,1048.9,136z M1048.9,74.2c-11.5,0-20.9,9.4-20.9,20.9s9.4,20.9,20.9,20.9c11.5,0,20.9-9.4,20.9-20.9
		S1060.4,74.2,1048.9,74.2z"/>
	<path class="st1" d="M934.4,439.7v18.8h3.1v3.9h-10.2v-3.9h2.6v-12.6h-0.1l-7.7,14.6h-2.1l-8.1-15h-0.1v13h2.8v3.9h-10v-3.9h3
		v-18.8h-3.3v-3.9h7.2l9.8,18h0.1l9.3-18h7.2v3.9H934.4z"/>
	<path class="st1" d="M948.5,462.7c-5.3,0-9.1-3.2-9.1-9.2c0-5.7,3.3-9.8,8.8-9.8c5.1,0,8.3,3.4,8.3,8c0,0.8-0.1,1.7-0.3,2.5h-12.3
		c0.3,3.3,1.9,5.1,4.9,5.1c2.8,0,3.9-1.7,4.3-3.2l3.7,0.7C956.3,460,953.5,462.7,948.5,462.7z M948.2,446.9c-2.6,0-3.9,1.9-4.3,4.5
		h8.1C952.3,449.3,951.1,446.9,948.2,446.9z"/>
	<path class="st1" d="M966.6,462.7c-2.6,0-5.2-0.6-7.5-1.8l0.7-4.7l3.4,0.3l-0.1,2.3c1,0.4,2.1,0.5,3.2,0.5c2.2,0,4.1-0.8,4.1-2.3
		c0-3.9-11.2-0.7-11.2-7.9c0-4.3,3.9-5.5,7.5-5.5c2.3,0,4.6,0.6,6.7,1.7l0.5,4.5l-3.4,0.4l-0.3-2.7c-1-0.4-2.1-0.6-3.2-0.6
		c-1.7,0-3,0.7-3,2.1c0,3.7,10.9,0.7,10.9,7.9C974.9,460.7,971.4,462.7,966.6,462.7z"/>
	<path class="st1" d="M989.1,462.3V459h2.7v-7.2c0-3.5-1.4-4.8-3.6-4.8c-2.7,0-4.3,2-4.5,4.5v7.5h2.7v3.3h-9.7v-3.3h2.7v-21.4h-2.7
		v-3.3h7.1V447c1.2-2.2,3.6-3.5,6.1-3.4c3.5,0,6.3,2.1,6.3,6.5v8.8h2.7v3.3L989.1,462.3z"/>
	<path class="st1" d="M1034,439.7v22.6l-2.6,0.1l-14.6-18.4h-0.2v14.4h3.9v3.9h-11v-3.9h2.9v-18.8h-3.3v-3.9h6.7l14,17.5h0.1v-13.6
		h-3.9v-3.9h11.2v3.9H1034z"/>
	<path class="st1" d="M1047.5,462.7c-5.3,0-9.1-3.2-9.1-9.2c0-5.7,3.3-9.8,8.8-9.8c5.1,0,8.3,3.4,8.3,8c0,0.8-0.1,1.7-0.3,2.5h-12.4
		c0.3,3.3,1.9,5.1,4.9,5.1c2.8,0,3.9-1.7,4.3-3.2l3.6,0.7C1055.4,460,1052.5,462.7,1047.5,462.7z M1047.2,446.9
		c-2.6,0-3.9,1.9-4.3,4.5h8.1C1051.3,449.3,1050.1,446.9,1047.2,446.9z"/>
	<path class="st1" d="M1066.2,462.7c-3.9,0-6.4-2.1-6.4-5.9v-9.6h-2.7v-3.2h2.7v-5.7h4.4v5.7h6.8v3.2h-6.8v8.9
		c0,1.9,0.9,2.9,2.5,2.9c0.9,0,2.3-0.3,2.7-3.1l3.2,1C1072.2,460.9,1069.8,462.7,1066.2,462.7z"/>
	<path class="st1" d="M1101.2,447.3l-5.1,15h-3.3l-5.1-12h-0.2l-4.8,12h-3.1l-5.3-15h-1.8V444h9.2v3.3h-2.9l2.8,8.8h0.3l4.7-12.1
		h2.7l5.3,12h0.3l2.2-8.6h-2.7V444h8.5v3.3H1101.2z"/>
	<path class="st1" d="M1113.3,462.7c-5.6,0-9.2-3.7-9.2-9.4c0-5.3,3.2-9.7,9.5-9.7s9.5,4.4,9.5,9.6
		C1123,458.9,1119,462.7,1113.3,462.7z M1113.4,447.1c-3.1,0-4.9,2.4-4.9,6.1c0,3.5,1.7,6.2,4.9,6.2c3.1,0,5.1-2.5,5.1-6.3
		C1118.5,449.1,1116.3,447.1,1113.4,447.1z"/>
	<path class="st1" d="M1139.8,444.7l0.8,5.7l-3.4,0.4l-0.7-3.1c-0.4-0.3-0.9-0.4-1.4-0.4c-1.5,0-2.8,1.3-2.8,3.5v8.1h3.6v3.3h-10.7
		V459h2.7v-11.6h-2.9V444h6.9v3.4c0.7-2.1,2.1-3.7,4.4-3.7C1137.6,443.8,1138.8,444.1,1139.8,444.7z"/>
	<path class="st1" d="M1153.8,462.3V459h2.1l-3.9-4.5h-2.9v4.5h2.1v3.3h-9.1V459h2.7v-21.4h-2.9v-3.3h7.3v17h3.2l3.2-3.9h-2.4V444
		h8.9v3.4h-2.3l-4.3,5.1l5.5,6.5h1.9v3.3H1153.8z"/>
	<path class="st1" d="M717,159.3l-91.2-91.2c-10.3-10.3-27.1-10.3-37.5,0l-91.2,91.2c-3.9,3.9-3.9,10.2,0,14.1
		c3.9,3.9,10.2,3.9,14.1,0l91.2-91.2c2.5-2.5,6.7-2.5,9.2,0l58.1,58.1v122.9c0,3.6-2.9,6.5-6.6,6.5H550.9c-3.6,0-6.5-2.9-6.5-6.5
		v-62.8c0-5.5-4.5-10-10-10c-5.5,0-10,4.5-10,10v62.8c0,14.6,11.9,26.5,26.5,26.5h112.3c14.6,0,26.5-11.9,26.5-26.5V160.3l13.1,13.1
		c1.9,1.9,4.5,2.9,7.1,2.9s5.1-1,7.1-2.9C720.9,169.5,720.9,163.2,717,159.3z"/>
	<path class="st1" d="M596.3,334.8l-8,12.5v6.5h4.5v3.9h-13.4v-3.9h4.3v-6.5l-8.3-12.5h-2.5v-3.9h10.6v3.9h-2.9l5.4,8.5h0.3l5.3-8.5
		h-3v-3.9h10.1v3.9H596.3z"/>
	<path class="st1" d="M606.5,358c-5.7,0-9.4-3.7-9.4-9.5c0-5.4,3.3-9.8,9.6-9.8s9.6,4.5,9.6,9.7C616.4,354.2,612.4,358,606.5,358z
		 M606.7,342.1c-3.1,0-5,2.5-5,6.1c0,3.5,1.7,6.3,5,6.3c3.2,0,5.1-2.5,5.1-6.3C611.8,344.3,609.7,342.1,606.7,342.1z"/>
	<path class="st1" d="M633.3,357.7v-3.1c-1.2,2.3-3.6,3.6-6.1,3.5c-3.5,0-6.5-2-6.5-6.7v-8.8H618v-3.4h7.2v10.6
		c0,3.5,1.3,4.9,3.7,4.9c2.8,0,4.5-2.2,4.5-4.9v-7.2H630v-3.4h7.7v15.2h2.9v3.4L633.3,357.7z"/>
	<path class="st2" d="M1229.3,209.7l-7.2,22.6h-3.3l-6.5-18.6h-0.2l-6.3,18.6h-3.4l-7.7-22.6h-2.3v-3.9h10v3.9h-2.9l4.6,15.2h0.2
		l5.3-15.2h-2.3v-3.9h10v3.9h-2.1l5.3,15.4h0.2l4.1-15.4h-3.3v-3.9h9.9v3.9H1229.3z"/>
	<path class="st2" d="M1239.7,232.7c-5.3,0-9.1-3.2-9.1-9.2c0-5.7,3.3-9.8,8.8-9.8c5.1,0,8.3,3.4,8.3,8c0,0.8-0.1,1.7-0.3,2.5h-12.3
		c0.3,3.3,1.9,5.1,4.9,5.1c2.8,0,3.9-1.7,4.3-3.2l3.6,0.7C1247.6,230,1244.7,232.7,1239.7,232.7z M1239.4,216.9
		c-2.6,0-3.9,1.9-4.3,4.5h8.1C1243.5,219.3,1242.4,216.9,1239.4,216.9L1239.4,216.9z"/>
	<path class="st2" d="M1261.7,232.7c-2.9,0-5-1.2-6.1-3.3c-0.1,0.7-0.3,2.2-0.4,2.9h-4.3c0.4-1.8,0.6-3.7,0.7-5.5v-19.2h-2.7v-3.3
		h7.1v13.4c1.1-2.5,3.6-4.1,6.3-4c4.6,0,7.9,3.3,7.9,9.1C1270,227.9,1267.4,232.7,1261.7,232.7z M1260.9,217.2c-3.1,0-4.9,2.7-5,5.4
		v1.3c0,3,1.9,5.4,4.8,5.4c3,0,4.8-2.4,4.8-6.1C1265.5,219.3,1263.6,217.2,1260.9,217.2L1260.9,217.2z"/>
	<path class="st2" d="M1293.7,232.7c-7.7,0-13.2-5.5-13.2-13.3c0-6.6,4.1-14,13.2-14c4.5,0,7.6,1.5,9.4,3.1l0.7,5.7l-3.7,0.3
		l-0.7-3.7c-1.8-1.1-3.8-1.6-5.9-1.6c-5,0-8.3,3.7-8.3,9.7c0,6.3,3.5,9.6,8.7,9.6c1.9,0.1,3.7-0.3,5.3-1.1l0.7-3.9l3.7,0.3l-0.6,5.8
		C1301.3,231.6,1297.5,232.7,1293.7,232.7z"/>
	<path class="st2" d="M1316,232.7c-5.6,0-9.3-3.7-9.3-9.4c0-5.3,3.2-9.7,9.5-9.7s9.5,4.4,9.5,9.6
		C1325.7,228.9,1321.7,232.7,1316,232.7z M1316.2,217.1c-3.1,0-4.9,2.4-4.9,6.1c0,3.5,1.7,6.2,4.9,6.2c3.1,0,5.1-2.5,5.1-6.3
		C1321.1,219.2,1319.1,217.1,1316.2,217.1L1316.2,217.1z"/>
	<path class="st2" d="M1340.4,232.3V229h2.7v-7.2c0-3.5-1.3-4.8-3.5-4.8c-2.8,0-4.5,2.1-4.5,4.7v7.3h2.7v3.3h-9.8V229h2.7v-11.6
		h-2.9V214h7.2v3c1.3-2.1,3.6-3.5,6.1-3.3c3.5,0,6.4,2.1,6.4,6.5v8.8h2.7v3.3H1340.4z"/>
	<path class="st2" d="M1360.1,232.7c-3.9,0-6.4-2.1-6.4-5.9v-9.6h-2.7v-3.2h2.7v-5.7h4.4v5.7h6.8v3.2h-6.8v8.9
		c0,1.9,0.9,2.9,2.5,2.9c0.9,0,2.3-0.3,2.7-3.1l3.2,1C1366,230.9,1363.7,232.7,1360.1,232.7z"/>
	<path class="st2" d="M1376.6,232.7c-5.3,0-9.1-3.2-9.1-9.2c0-5.7,3.3-9.8,8.8-9.8c5.1,0,8.3,3.4,8.3,8c0,0.8-0.1,1.7-0.3,2.5H1372
		c0.3,3.3,1.9,5.1,4.9,5.1c2.8,0,3.9-1.7,4.3-3.2l3.6,0.7C1384.5,230,1381.6,232.7,1376.6,232.7z M1376.4,216.9
		c-2.6,0-3.9,1.9-4.3,4.5h8.1C1380.4,219.3,1379.2,216.9,1376.4,216.9z"/>
	<path class="st2" d="M1399.5,232.3V229h2.7v-7.2c0-3.5-1.3-4.8-3.5-4.8c-2.8,0-4.5,2.1-4.5,4.7v7.3h2.7v3.3h-9.8V229h2.7v-11.6
		h-2.9V214h7.2v3c1.3-2.1,3.6-3.5,6.1-3.3c3.5,0,6.4,2.1,6.4,6.5v8.8h2.7v3.3H1399.5z"/>
	<path class="st2" d="M1419.2,232.7c-3.9,0-6.4-2.1-6.4-5.9v-9.6h-2.7v-3.2h2.7v-5.7h4.4v5.7h6.8v3.2h-6.8v8.9
		c0,1.9,0.9,2.9,2.5,2.9c0.9,0,2.3-0.3,2.7-3.1l3.2,1C1425.1,230.9,1422.8,232.7,1419.2,232.7z"/>
</g>
</svg>
