<?xml version="1.0" encoding="utf-8"?>
<!-- Generator: Adobe Illustrator 23.0.1, SVG Export Plug-In . SVG Version: 6.00 Build 0)  -->
<svg version="1.1" id="Slide_4" xmlns="http://www.w3.org/2000/svg" xmlns:xlink="http://www.w3.org/1999/xlink" x="0px" y="0px"
	 viewBox="0 0 1920 535" style="enable-background:new 0 0 1920 535;" xml:space="preserve">
<style type="text/css">
	.st0{fill:#3EB1CF;}
	.st1{fill:#BDCADA;}
	.st2{fill:#FFCD50;}
</style>
<title>workshop-illustrations</title>
<path class="st0" d="M1245.1,412.9c-21,0-46-4.9-72-20.4c-27.7-16.6-57.2-21.6-87.8-15c-22.8,4.9-37.3,14.6-37.4,14.7
	c-4.3,2.9-10.2,1.8-13.1-2.5s-1.8-10.2,2.5-13.1c0.7-0.5,17.7-11.8,44-17.6c24.3-5.3,61.7-6.6,101.4,17.3
	c27.4,16.4,56.7,21.5,87,15.2c23-4.9,38.1-14.8,38.2-14.9c4.3-2.9,10.2-1.8,13.1,2.6c2.9,4.3,1.8,10.1-2.5,13.1
	c-0.7,0.5-17.7,11.8-44,17.6C1266.1,411.5,1256.2,412.9,1245.1,412.9z"/>
<g>
	<path class="st1" d="M598.2,337.2V233.6c0-5.2-4.2-9.5-9.5-9.5c-5.2,0-9.5,4.2-9.5,9.5v101.6h-119c-15.6,0-28.2,12.7-28.2,28.2
		v41.8c0,15.6,12.7,28.2,28.2,28.2H588c15.6,0,28.2-12.7,28.2-28.2v-41.8C616.2,351.5,608.7,341.3,598.2,337.2z M597.3,405.2
		c0,5.2-4.2,9.3-9.3,9.3H460.3c-5.2,0-9.3-4.2-9.3-9.3v-41.8c0-5.2,4.2-9.3,9.3-9.3H588c5.2,0,9.3,4.2,9.3,9.3V405.2z"/>
	<path class="st1" d="M1023.8,335.2h-119V233.6c0-5.2-4.2-9.5-9.5-9.5s-9.5,4.2-9.5,9.5v103.6c-10.5,4.1-18,14.4-18,26.3v41.8
		c0,15.6,12.7,28.2,28.2,28.2h127.6c15.6,0,28.2-12.7,28.2-28.2v-41.8C1052.1,347.9,1039.4,335.2,1023.8,335.2z M1033.1,405.2
		c0,5.2-4.2,9.3-9.3,9.3H896.2c-5.2,0-9.3-4.2-9.3-9.3v-41.8c0-5.2,4.2-9.3,9.3-9.3h127.6c5.2,0,9.3,4.2,9.3,9.3L1033.1,405.2
		L1033.1,405.2z"/>
</g>
<path class="st1" d="M1459.7,433.5H1332c-15.6,0-28.2-12.7-28.2-28.2v-41.8c0-15.6,12.7-28.2,28.2-28.2h127.6
	c15.6,0,28.2,12.7,28.2,28.2v41.8C1487.9,420.8,1475.3,433.5,1459.7,433.5z M1332,354.1c-5.2,0-9.3,4.2-9.3,9.3v41.8
	c0,5.2,4.2,9.3,9.3,9.3h127.6c5.2,0,9.3-4.2,9.3-9.3v-41.8c0-5.2-4.2-9.3-9.3-9.3H1332z"/>
<path class="st2" d="M617.4,265.3c-2.4,0-4.9-0.9-6.7-2.8c-3.7-3.7-3.7-9.7,0-13.4c8.6-8.6,8.6-22.6,0-31.2c-3.7-3.7-3.7-9.7,0-13.4
	c3.7-3.7,9.7-3.7,13.4,0c15.9,15.9,15.9,42,0,57.9C622.3,264.4,619.8,265.3,617.4,265.3z"/>
<path class="st2" d="M644.2,292.1c-2.4,0-4.9-0.9-6.7-2.8c-3.7-3.7-3.7-9.7,0-13.4c23.3-23.3,23.3-61.3,0-84.6
	c-3.7-3.7-3.7-9.7,0-13.4c3.7-3.7,9.7-3.7,13.4,0c30.7,30.7,30.7,80.6,0,111.4C649,291.1,646.6,292.1,644.2,292.1z"/>
<path class="st2" d="M670.9,318.8c-2.4,0-4.9-0.9-6.7-2.8c-3.7-3.7-3.7-9.7,0-13.4c18.4-18.5,28.6-43,28.6-69.1
	s-10.1-50.6-28.6-69.1c-3.7-3.7-3.7-9.7,0-13.4c3.7-3.7,9.7-3.7,13.4,0c45.4,45.4,45.4,119.4,0,164.8
	C675.7,317.9,673.3,318.8,670.9,318.8z"/>
<path class="st2" d="M867.3,265.3c-2.4,0-4.9-0.9-6.7-2.8c-15.9-15.9-15.9-42,0-57.9c3.7-3.7,9.7-3.7,13.4,0c3.7,3.7,3.7,9.7,0,13.4
	c-8.6,8.6-8.6,22.6,0,31.2c3.7,3.7,3.7,9.7,0,13.4C872.2,264.4,869.7,265.3,867.3,265.3z"/>
<path class="st2" d="M840.6,292.1c-2.4,0-4.9-0.9-6.7-2.8c-30.7-30.7-30.7-80.6,0-111.4c3.7-3.7,9.7-3.7,13.4,0
	c3.7,3.7,3.7,9.7,0,13.4c-23.3,23.3-23.3,61.3,0,84.6c3.7,3.7,3.7,9.7,0,13.4C845.4,291.1,843,292.1,840.6,292.1z"/>
<path class="st2" d="M813.9,318.8c-2.3,0-4.7-0.8-6.4-2.5c-0.1-0.1-0.1-0.1-0.3-0.3c-45.4-45.4-45.4-119.4,0-164.8
	c3.7-3.7,9.7-3.7,13.4,0c3.7,3.7,3.7,9.7,0,13.4c-38.1,38.1-38.1,99.9-0.1,138l0.1,0.1c3.7,3.7,3.7,9.7,0,13.4
	C818.7,317.9,816.3,318.8,813.9,318.8z"/>
<path class="st2" d="M713.2,105.3l-5.2,16.3h-2.4l-4.7-13.4h-0.1l-4.5,13.4h-2.5l-5.5-16.3h-1.6v-2.8h7.2v2.8H692l3.3,10.9h0.1
	l3.8-10.9h-1.7v-2.8h7.2v2.8h-1.6l3.8,11h0.1l3-11h-2.3v-2.8h7.1v2.8H713.2z"/>
<path class="st2" d="M715.3,121.5v-2.4h2v-8.3h-2.1v-2.5h5.2v10.7h2v2.4L715.3,121.5z M717.1,102.2h3.2v3.5h-3.2V102.2z"/>
<path class="st2" d="M734.3,108.9l0.6,4.1l-2.4,0.3l-0.5-2.3c-0.3-0.2-0.6-0.3-1-0.3c-1.1,0-2,0.9-2,2.5v5.8h2.6v2.4h-7.7v-2.4h2
	v-8.3h-2v-2.5h4.9v2.5c0.4-1.5,1.5-2.6,3.2-2.6C732.6,108.2,733.5,108.4,734.3,108.9z"/>
<path class="st2" d="M742.9,121.8c-3.8,0-6.6-2.3-6.6-6.6c0-4,2.4-7.1,6.4-7.1c3.7,0,5.9,2.5,5.9,5.7c0,0.6-0.1,1.2-0.2,1.8h-8.9
	c0.2,2.4,1.3,3.7,3.5,3.7c2,0,2.8-1.2,3-2.3l2.6,0.5C748.6,119.8,746.5,121.8,742.9,121.8z M742.7,110.4c-1.9,0-2.8,1.4-3,3.2h5.8
	C745.7,112.1,744.8,110.4,742.7,110.4L742.7,110.4z"/>
<path class="st2" d="M750.1,121.5v-2.4h2v-15.3H750v-2.4h5.2v17.7h2v2.4H750.1z"/>
<path class="st2" d="M765,121.8c-3.8,0-6.6-2.3-6.6-6.6c0-4,2.4-7.1,6.4-7.1c3.7,0,5.9,2.5,5.9,5.7c0,0.6-0.1,1.2-0.2,1.8h-8.9
	c0.2,2.4,1.3,3.7,3.5,3.7c2,0,2.8-1.2,3-2.3l2.6,0.5C770.7,119.8,768.6,121.8,765,121.8z M764.8,110.4c-1.9,0-2.8,1.4-3,3.2h5.8
	C767.8,112.1,766.9,110.4,764.8,110.4L764.8,110.4z"/>
<path class="st2" d="M778,121.8c-1.9,0-3.7-0.4-5.4-1.3l0.5-3.4l2.5,0.3v1.7c0.8,0.3,1.5,0.4,2.3,0.4c1.6,0,3-0.6,3-1.7
	c0-2.8-8-0.5-8-5.7c0-3,2.8-4,5.4-4c1.7,0,3.3,0.4,4.8,1.2l0.3,3.2l-2.5,0.3l-0.3-2c-0.8-0.3-1.5-0.4-2.3-0.4
	c-1.3,0-2.1,0.5-2.1,1.5c0,2.7,7.8,0.4,7.8,5.6C784,120.3,781.5,121.8,778,121.8z"/>
<path class="st2" d="M791.2,121.8c-1.9,0-3.7-0.4-5.4-1.3l0.4-3.4l2.5,0.3v1.7c0.8,0.3,1.5,0.4,2.3,0.4c1.6,0,3-0.6,3-1.7
	c0-2.8-8-0.5-8-5.7c0-3,2.8-4,5.4-4c1.7,0,3.3,0.4,4.8,1.2l0.3,3.2l-2.5,0.3l-0.3-2c-0.8-0.3-1.5-0.4-2.3-0.4
	c-1.3,0-2.1,0.5-2.1,1.5c0,2.7,7.8,0.4,7.8,5.6C797.2,120.3,794.7,121.8,791.2,121.8z"/>
<path class="st0" d="M1121.9,323.1v-2.8h2.2v-13.5h-2.2v-2.8h14.3l0.6,5.5l-2.8,0.3l-0.6-3h-6v5.2h8.4v2.8h-8.4v5.4h6.2l0.6-3
	l2.8,0.3l-0.6,5.5L1121.9,323.1z"/>
<path class="st0" d="M1144.8,323.4c-2.8,0-4.6-1.6-4.6-4.2v-6.9h-2v-2.3h2v-4.1h3.2v4.1h4.9v2.3h-4.9v6.4c0,1.4,0.6,2.1,1.8,2.1
	c0.7,0,1.7-0.3,2-2.3l2.3,0.8C1149,322.1,1147.4,323.4,1144.8,323.4z"/>
<path class="st0" d="M1158.7,323.1v-2.4h2v-5.2c0-2.5-1-3.4-2.6-3.4c-2,0-3.1,1.4-3.2,3.2v5.4h2v2.4h-7v-2.4h2v-15.3h-2V303h5.1v9.1
	c0.9-1.6,2.6-2.5,4.3-2.4c2.5,0,4.5,1.4,4.5,4.7v6.3h2v2.4L1158.7,323.1z"/>
<path class="st0" d="M1173.4,323.4c-3.8,0-6.6-2.3-6.6-6.6c0-4,2.4-7.1,6.4-7.1c3.7,0,5.9,2.4,5.9,5.7c0,0.6-0.1,1.2-0.2,1.8h-8.9
	c0.2,2.4,1.3,3.7,3.5,3.7c2,0,2.8-1.1,3-2.3l2.6,0.5C1179.1,321.4,1177,323.4,1173.4,323.4z M1173.2,312.1c-1.9,0-2.8,1.4-3,3.3h5.8
	C1176.1,313.8,1175.3,312.1,1173.2,312.1z"/>
<path class="st0" d="M1191.4,310.5l0.6,4.1l-2.4,0.3l-0.5-2.3c-0.3-0.2-0.6-0.3-1-0.3c-1.1,0-2,0.9-2,2.5v5.8h2.6v2.4h-7.7v-2.4h2
	v-8.3h-2V310h4.9v2.5c0.4-1.5,1.5-2.6,3.2-2.6C1189.8,309.8,1190.7,310,1191.4,310.5z"/>
<path class="st0" d="M1202.5,323.1v-2.4h2v-5.2c0-2.5-0.9-3.4-2.5-3.4c-2,0-3.2,1.4-3.3,3.3v5.2h2v2.4h-7.1v-2.4h2v-8.3h-2V310h5.2
	v2.1c0.9-1.6,2.6-2.5,4.3-2.4c2.5,0,4.5,1.4,4.5,4.7v6.3h2v2.4H1202.5z"/>
<path class="st0" d="M1217.2,323.4c-3.8,0-6.6-2.3-6.6-6.6c0-4,2.4-7.1,6.4-7.1c3.7,0,5.9,2.4,5.9,5.7c0,0.6-0.1,1.2-0.2,1.8h-8.8
	c0.2,2.4,1.3,3.7,3.5,3.7c2,0,2.8-1.1,3-2.3l2.6,0.5C1222.9,321.4,1220.8,323.4,1217.2,323.4z M1217,312.1c-1.9,0-2.8,1.4-3,3.3h5.8
	C1219.9,313.8,1219.1,312.1,1217,312.1z"/>
<path class="st0" d="M1230.7,323.4c-2.8,0-4.6-1.6-4.6-4.2v-6.9h-2v-2.3h2v-4.1h3.2v4.1h4.9v2.3h-4.9v6.4c0,1.4,0.6,2.1,1.8,2.1
	c0.7,0,1.7-0.3,2-2.3l2.3,0.8C1234.9,322.1,1233.3,323.4,1230.7,323.4z"/>
</svg>
