<?xml version="1.0" encoding="utf-8"?>
<!-- Generator: Adobe Illustrator 23.0.1, SVG Export Plug-In . SVG Version: 6.00 Build 0)  -->
<svg version="1.1" id="Layer_1" xmlns="http://www.w3.org/2000/svg" xmlns:xlink="http://www.w3.org/1999/xlink" x="0px" y="0px"
	 viewBox="0 0 1920 700" style="enable-background:new 0 0 1920 700;" xml:space="preserve">
<style type="text/css">
	.st0{fill:#BDCADA;}
	.st1{fill:#FFCD50;}
</style>
<title>Antenna1</title>
<g>
	<g id="Module_3_Part_Graphics">
		<g id="Antenna">
			<path class="st0" d="M1700.1,189.7c-6.9,0-12.5,5.6-12.5,12.5v343.3l-79.5,0c-10.6,0-19.1,8.6-19.1,19.1v33.9
				c0,10.6,8.6,19.1,19.1,19.1h90.9c0.2,0,0.5,0,0.7,0c0.1,0,0.2,0,0.3,0c6.9,0,12.5-5.6,12.5-12.5v-1v-58.7V202.2
				C1712.6,195.3,1707,189.7,1700.1,189.7z M1614,570.4h73.6v22.3H1614V570.4z"/>
			<path class="st1" d="M1729.5,169.5c-3.2,0-6.4-1.2-8.8-3.7c-5.5-5.5-12.8-8.5-20.6-8.5c-7.8,0-15.1,3-20.6,8.5
				c-4.9,4.9-12.8,4.9-17.7,0c-4.9-4.9-4.9-12.8,0-17.7c10.2-10.2,23.8-15.8,38.2-15.8s28,5.6,38.2,15.8c4.9,4.9,4.9,12.8,0,17.7
				C1735.9,168.2,1732.7,169.5,1729.5,169.5z"/>
			<path class="st1" d="M1635.4,134.2c-3.2,0-6.4-1.2-8.8-3.7c-4.9-4.9-4.9-12.8,0-17.7c40.6-40.6,106.5-40.6,147.1,0
				c4.9,4.9,4.9,12.8,0,17.7c-4.9,4.9-12.8,4.9-17.7,0c-30.8-30.8-81-30.8-111.8,0C1641.8,132.9,1638.6,134.2,1635.4,134.2z"/>
			<path class="st1" d="M1800.2,98.9c-3.2,0-6.4-1.2-8.8-3.7c-50.3-50.3-132.1-50.3-182.4,0c-4.9,4.9-12.8,4.9-17.7,0
				c-4.9-4.9-4.9-12.8,0-17.7c60-60,157.7-60,217.7,0c4.9,4.9,4.9,12.8,0,17.7C1806.5,97.6,1803.3,98.9,1800.2,98.9z"/>
		</g>
	</g>
</g>
</svg>
