<?xml version="1.0" encoding="utf-8"?>
<!-- Generator: Adobe Illustrator 23.0.1, SVG Export Plug-In . SVG Version: 6.00 Build 0)  -->
<svg version="1.1" id="Layer_1" xmlns="http://www.w3.org/2000/svg" xmlns:xlink="http://www.w3.org/1999/xlink" x="0px" y="0px"
	 viewBox="0 0 1920 700" style="enable-background:new 0 0 1920 700;" xml:space="preserve">
<style type="text/css">
	.st0{fill:#FFCD50;}
	.st1{fill:#BDCADA;}
</style>
<title>Power Supply1</title>
<g>
	<g id="Module_3_Part_Graphics">
		<g id="Power_Supply">
			<path class="st0" d="M1575.2,439.2h-148c-35.1,0-63.7-28.6-63.7-63.7v-38.8c0-6.3,5.1-11.4,11.4-11.4c6.3,0,11.4,5.1,11.4,11.4
				v38.8c0,22.5,18.4,40.9,40.9,40.9h148c22.6,0,40.9-18.4,40.9-40.9V255.5c0-35.2,28.6-63.8,63.8-63.8h90c6.3,0,11.4,5.1,11.4,11.4
				s-5.1,11.4-11.4,11.4h-90c-22.6,0-40.9,18.4-40.9,40.9v119.9C1639,410.6,1610.4,439.2,1575.2,439.2z"/>
			<path class="st0" d="M1338.6,137.5h-68.8c-6.3,0-11.4-5.1-11.4-11.4s5.1-11.4,11.4-11.4h68.8c6.3,0,11.4,5.1,11.4,11.4
				S1344.9,137.5,1338.6,137.5z"/>
			<path class="st1" d="M1394.5,345.6h-34.5c-18.1,0-32.9-14.8-32.9-32.9v-219c0-18.1,14.8-32.9,32.9-32.9h119
				c18.1,0,32.9,14.8,32.9,32.9v134.4C1512,292.9,1459.3,345.6,1394.5,345.6z M1360.1,83.6c-5.6,0-10.1,4.5-10.1,10.1v219
				c0,5.6,4.5,10.1,10.1,10.1h34.5c52.2,0,94.7-42.5,94.7-94.7V93.7c0-5.6-4.5-10.1-10.1-10.1H1360.1z"/>
		</g>
	</g>
</g>
</svg>
