<?xml version="1.0" encoding="utf-8"?>
<!-- Generator: Adobe Illustrator 23.0.1, SVG Export Plug-In . SVG Version: 6.00 Build 0)  -->
<svg version="1.1" id="Layer_1" xmlns="http://www.w3.org/2000/svg" xmlns:xlink="http://www.w3.org/1999/xlink" x="0px" y="0px"
	 viewBox="0 0 1920 700" style="enable-background:new 0 0 1920 700;" xml:space="preserve">
<style type="text/css">
	.st0{fill:#FFCD50;}
	.st1{fill:#3EB1CF;}
	.st2{fill:#BDCADA;}
</style>
<title>Radio1</title>
<g>
	<g id="Module_3_Part_Graphics">
		<g id="Radio">
			<g id="Antenna">
				<path class="st0" d="M1679.5,169.5c-3.2,0-6.4-1.2-8.8-3.7c-11.4-11.4-29.8-11.4-41.2,0c-4.9,4.9-12.8,4.9-17.7,0
					c-4.9-4.9-4.9-12.8,0-17.7c21.1-21.1,55.4-21.1,76.5,0c4.9,4.9,4.9,12.8,0,17.7C1685.9,168.2,1682.7,169.5,1679.5,169.5z"/>
				<path class="st0" d="M1714.8,134.2c-3.2,0-6.4-1.2-8.8-3.7c-30.8-30.8-81-30.8-111.8,0c-4.9,4.9-12.8,4.9-17.7,0
					c-4.9-4.9-4.9-12.8,0-17.7c40.6-40.6,106.5-40.6,147.1,0c4.9,4.9,4.9,12.8,0,17.7C1721.2,132.9,1718,134.2,1714.8,134.2z"/>
				<path class="st0" d="M1550.1,98.9c-2.4,0-4.8-0.7-6.9-2.1c-5.7-3.8-7.3-11.6-3.5-17.3c0.5-0.7,1-1.3,1.6-1.9l0,0
					c60-60,157.7-60,217.7,0c4.9,4.9,4.9,12.8,0,17.7c-4.9,4.9-12.8,4.9-17.7,0c-50.2-50.2-132-50.3-182.3-0.2
					c-0.1,0.1-0.2,0.2-0.3,0.3l-0.4,0.4l-0.5,0.3C1555.6,97.9,1552.9,98.9,1550.1,98.9z"/>
			</g>
			<g id="Radio-2">
				<path class="st1" d="M1188.6,619.5h-74.3c-8.6,0-15.6-7-15.6-15.6v-45.5c0-8.6,7-15.6,15.6-15.6h74.3V619.5z M1123.7,594.5h39.9
					v-26.8h-39.9V594.5z"/>
				<path class="st2" d="M1650.1,189.7c-6.9,0-12.5,5.6-12.5,12.5v343.3H1564V527c0-17.7-14.4-32.2-32.2-32.2h-336.1
					c-17.7,0-32.2,14.4-32.2,32.2v108.3c0,17.7,14.4,32.2,32.2,32.2h336.1c17.7,0,32.2-14.4,32.2-32.2v-17.6h85.1c0.2,0,0.5,0,0.7,0
					c0.1,0,0.2,0,0.3,0c6.9,0,12.5-5.6,12.5-12.5v-1v-58.7V202.2C1662.6,195.3,1657,189.7,1650.1,189.7z M1531.8,642.5h-336.1
					c-4,0-7.2-3.2-7.2-7.2V527c0-4,3.2-7.2,7.2-7.2h336.1c4,0,7.2,3.2,7.2,7.2v37.3c0,0.1,0,0.2,0,0.3v33.9c0,0.1,0,0.2,0,0.3v36.5
					C1539,639.3,1535.8,642.5,1531.8,642.5z M1564,570.4h73.6v22.3H1564V570.4z"/>
				<path class="st2" d="M1333.5,591.6l-5.2-9.9h-4.2v6.3h2.9v3.7H1317v-3.7h2.9v-17.8h-2.9v-3.7h11.2c6.2,0,9.3,2.7,9.3,7.4
					c0.1,3.2-2,6-5,6.9l3.8,7.1h3.1v3.7H1333.5z M1327.5,570.2h-3.3v8.1h3.2c4.1,0,5.5-1.5,5.5-4.2
					C1333,571.2,1331.5,570.2,1327.5,570.2z"/>
				<path class="st2" d="M1349.6,573.9c3.9,0,6.7,1.9,6.7,5.9v7.8c0,1.1,0.4,1.5,1.3,1.5c0.3,0,0.6-0.1,0.9-0.1l0,2.3
					c-0.8,0.5-1.8,0.7-2.8,0.7c-2.2,0-3.4-1.3-3.6-3.4v-0.1c-1.1,2.1-3.3,3.5-5.7,3.5c-2.4,0-5.3-1.3-5.3-4.9c0-4.3,4.2-5.3,8.1-5.3
					c1,0,2,0,2.9,0.1v-1c0-2-0.3-4-3.2-4c-1-0.1-2,0.1-2.9,0.6l-0.7,2.7l-3.3-0.3l0.7-4.3C1344.8,574.4,1347.2,573.9,1349.6,573.9z
					 M1352.1,584.1c-0.9-0.1-1.8-0.2-2.8-0.2c-2,0-4,0.5-4,2.7c0,1.5,1,2.4,2.5,2.4c2.3,0,4.2-1.9,4.2-4.2L1352.1,584.1z"/>
				<path class="st2" d="M1373.5,591.6v-3.3c-1.1,2.3-3.5,3.8-6,3.7c-4.5,0-7.4-3.3-7.4-8.7c0-5,2.4-9.4,7.8-9.4
					c2.3-0.1,4.5,1,5.6,3v-8.8h-3.7V565h7.9v23.4h2.5v3.2L1373.5,591.6z M1373.5,581.9c0-2.9-2-4.7-4.4-4.7c-2.8,0-4.7,2.2-4.7,5.8
					c0,3.6,2,5.6,4.4,5.6c2.8,0,4.7-2.8,4.7-5.4V581.9z"/>
				<path class="st2" d="M1382,591.6v-3.2h2.6v-11h-2.7v-3.2h6.8v14.1h2.6v3.2L1382,591.6z M1384.4,566.1h4.2v4.6h-4.2V566.1z"/>
				<path class="st2" d="M1401.8,592c-5.3,0-8.8-3.4-8.8-8.9c0-5.1,3.1-9.2,9-9.2s9,4.2,9,9.1C1411.1,588.3,1407.3,592,1401.8,592z
					 M1402,577.1c-2.9,0-4.7,2.3-4.7,5.8c0,3.3,1.6,5.8,4.7,5.8c3.1,0,4.8-2.4,4.8-5.9C1406.8,579.1,1404.8,577.1,1402,577.1z"/>
			</g>
		</g>
	</g>
</g>
</svg>
