<?xml version="1.0" encoding="utf-8"?>
<!-- Generator: Adobe Illustrator 23.0.1, SVG Export Plug-In . SVG Version: 6.00 Build 0)  -->
<svg version="1.1" id="Layer_1" xmlns="http://www.w3.org/2000/svg" xmlns:xlink="http://www.w3.org/1999/xlink" x="0px" y="0px"
	 viewBox="0 0 1920 700" style="enable-background:new 0 0 1920 700;" xml:space="preserve">
<style type="text/css">
	.st0{fill:#3EB1CF;}
	.st1{fill:#BDCADA;}
</style>
<title>Single Board Computer1</title>
<g>
	<g id="Module_3_Part_Graphics">
		<g id="Single_Board_Computer">
			<path class="st0" d="M1365.6,239.6c0-5.8,4.7-10.4,10.4-10.4h242.2c5.8,0,10.4,4.7,10.4,10.4s-4.7,10.4-10.4,10.4h-242.2
				C1370.3,250.1,1365.6,245.4,1365.6,239.6z"/>
			<path class="st0" d="M1425,382.5v-65c0-9.1,7.4-16.4,16.4-16.4h65c9.1,0,16.4,7.4,16.4,16.4v65c0,9.1-7.4,16.4-16.4,16.4h-65
				C1432.4,398.9,1425,391.6,1425,382.5z M1445.8,321.9v56.1h56.1v-56.1H1445.8z"/>
			<path class="st0" d="M1607.8,366.3v-32.5c0-9.1,7.4-16.4,16.4-16.4h32.5c9.1,0,16.4,7.4,16.4,16.4v32.5c0,9.1-7.4,16.4-16.4,16.4
				h-32.5C1615.2,382.7,1607.8,375.3,1607.8,366.3z M1628.7,338.2v23.7h23.7v-23.7H1628.7z"/>
			<path class="st0" d="M1556.5,468.9v-79.2c0-5.8,4.7-10.4,10.4-10.4c5.8,0,10.4,4.7,10.4,10.4v79.2c0,5.8-4.7,10.4-10.4,10.4
				C1561.2,479.3,1556.5,474.6,1556.5,468.9z"/>
			<path class="st0" d="M1365.6,393.4v-86.8c0-5.8,4.7-10.4,10.4-10.4c5.8,0,10.4,4.7,10.4,10.4v86.8c0,5.8-4.7,10.4-10.4,10.4
				C1370.3,403.8,1365.6,399.2,1365.6,393.4z"/>
			<path class="st1" d="M1772.1,478.1v-12.5v-72.7v-6.5v-72.7v-6.5v-72.7v-12.5c0-13.6-11-24.6-24.6-24.6h-394
				c-13.6,0-24.6,11-24.6,24.6v256.2c0,13.6,11,24.6,24.6,24.6h394C1761.1,502.7,1772.1,491.7,1772.1,478.1z M1751.3,444.7h-44.2
				v-31h44.2V444.7z M1751.3,365.5h-44.2v-31h44.2V365.5z M1751.3,286.2h-44.2v-31h44.2V286.2z M1349.8,478.1V221.9
				c0-2.1,1.7-3.7,3.7-3.7h394c2.1,0,3.7,1.7,3.7,3.7v12.5h-65v72.7h65v6.5h-65v72.7h65v6.5h-65v72.7h65v12.5c0,2.1-1.7,3.7-3.7,3.7
				H1522v-46.7h-96.2v46.7h-72.2C1351.5,481.8,1349.8,480.2,1349.8,478.1z M1501.2,481.7h-54.5V456h54.5V481.7z"/>
		</g>
	</g>
</g>
</svg>
