<?xml version="1.0" encoding="utf-8"?>
<!-- Generator: Adobe Illustrator 23.0.1, SVG Export Plug-In . SVG Version: 6.00 Build 0)  -->
<svg version="1.1" id="Module_6_Wireless_Tech" xmlns="http://www.w3.org/2000/svg" xmlns:xlink="http://www.w3.org/1999/xlink"
	 x="0px" y="0px" viewBox="0 0 1920 856.7" style="enable-background:new 0 0 1920 856.7;" xml:space="preserve">
<style type="text/css">
	.st0{fill:#BDCADA;}
	.st1{fill:#FFCD50;}
	.st2{fill:#3EB1CF;}
</style>
<title>wireless-tech</title>
<path class="st0" d="M423.2,563.4L405.8,546c-0.3-0.3-0.5-0.6-0.9-0.9l-35.6-35.6l-0.2-0.2c-6.1-6.1-16.1-6.1-22.2,0l-54.1,54.1
	c-2.3,2.3-2.3,6,0,8.3c2.3,2.3,6,2.3,8.3,0l54.1-54.1c1.5-1.5,4-1.5,5.5,0l34.6,34.6v72.9c0,2.2-1.8,3.9-3.9,3.9h-66.7c0,0,0,0,0,0
	c-1,0-2-0.4-2.8-1.1c-0.7-0.7-1.2-1.7-1.2-2.8v-37.3c0-3.2-2.6-5.9-5.9-5.9c-3.2,0-5.9,2.6-5.9,5.9v37.3c0,4.2,1.7,8.1,4.6,11.1
	c3,2.9,6.9,4.6,11,4.6c0,0,0,0,0.1,0h66.7c8.6,0,15.7-7,15.7-15.7v-61.2l7.8,7.8c1.1,1.1,2.7,1.7,4.2,1.7s3-0.6,4.2-1.7
	C425.5,569.4,425.5,565.7,423.2,563.4z"/>
<path class="st0" d="M1479.6,633.4l-27.3-100.7c-1-3.8-4.9-6.1-8.8-5.1c-2.5,0.7-4.4,2.6-5.1,5l-27.3,100.7c0,0,0,0,0,0
	c-0.1,0.4-0.2,0.8-0.2,1.2c0,0.6,0,1.1,0.1,1.6c0,0,0,0,0,0.1c0,0.1,0.1,0.3,0.1,0.4c0,0.1,0,0.1,0,0.2c0,0.1,0.1,0.2,0.1,0.3
	c0,0.1,0.1,0.2,0.1,0.2c0,0.1,0.1,0.1,0.1,0.2c0.1,0.1,0.1,0.2,0.2,0.3c0,0,0,0.1,0.1,0.1c0.1,0.1,0.2,0.3,0.2,0.4c0,0,0,0,0,0
	c0.1,0.1,0.2,0.3,0.3,0.4c0,0,0,0,0.1,0.1c0.1,0.1,0.2,0.2,0.3,0.3c0.3,0.3,0.6,0.5,0.9,0.7c0,0,0,0,0,0c0,0,0,0,0,0
	c0.2,0.1,0.4,0.2,0.6,0.3c0.1,0,0.1,0.1,0.2,0.1c0.2,0.1,0.4,0.1,0.5,0.2c0.1,0,0.1,0,0.2,0.1c0,0,0,0,0,0c0.1,0,0.2,0,0.3,0.1
	c0.1,0,0.3,0.1,0.4,0.1c0.3,0,0.5,0.1,0.8,0.1c0,0,0,0,0.1,0c0.3,0,0.5,0,0.8-0.1c0.1,0,0.2,0,0.3-0.1c0.2,0,0.4-0.1,0.6-0.1
	c0.1,0,0.2-0.1,0.3-0.1c0.2-0.1,0.5-0.2,0.7-0.3c0,0,0.1,0,0.1-0.1c0.3-0.1,0.5-0.3,0.7-0.5c0.1,0,0.1-0.1,0.2-0.1
	c0.2-0.1,0.3-0.3,0.5-0.4c0.1-0.1,0.1-0.1,0.2-0.2c0.1-0.1,0.2-0.3,0.4-0.4c0.1-0.1,0.1-0.2,0.2-0.3c0,0,0.1-0.1,0.1-0.1l23.6-37.6
	l23.6,37.6c0.6,1,1.5,1.8,2.6,2.2c0,0,0,0,0,0c0.2,0.1,0.3,0.1,0.5,0.2c0.1,0,0.1,0,0.2,0.1c0.1,0,0.3,0.1,0.4,0.1
	c0.2,0,0.4,0.1,0.6,0.1c0.1,0,0.1,0,0.2,0c0.2,0,0.3,0,0.5,0c0,0,0,0,0.1,0c0,0,0.1,0,0.1,0c0.2,0,0.4,0,0.6,0c0,0,0.1,0,0.1,0
	c0.2,0,0.5-0.1,0.7-0.1C1478.6,639.7,1480.4,636.5,1479.6,633.4z M1445.3,552.1l5,18.2l-5,7.9l-5-7.9L1445.3,552.1z M1432.8,598.2
	l3.4-12.4l2.2,3.5L1432.8,598.2z M1454.5,585.8l3.4,12.5l-5.6-8.9L1454.5,585.8z"/>
<path class="st1" d="M1473.9,549.4c-1.5,0-3-0.6-4.2-1.7c-2.3-2.3-2.3-6,0-8.3c3.4-3.4,3.4-8.9,0-12.3c-2.3-2.3-2.3-6,0-8.3
	c2.3-2.3,6-2.3,8.3,0c8,8,8,20.9,0,28.9C1476.9,548.9,1475.4,549.4,1473.9,549.4z"/>
<path class="st1" d="M1486.2,561.8c-1.5,0-3-0.6-4.2-1.7c-2.3-2.3-2.3-6,0-8.3c10.2-10.2,10.2-26.8,0-37c-2.3-2.3-2.3-6,0-8.3
	c2.3-2.3,6-2.3,8.3,0c14.8,14.8,14.8,38.8,0,53.6C1489.2,561.2,1487.7,561.8,1486.2,561.8z"/>
<path class="st1" d="M1498.6,574.1c-1.5,0-3-0.6-4.2-1.7c-2.3-2.3-2.3-6,0-8.3c17-17,17-44.7,0-61.7c-2.3-2.3-2.3-6,0-8.3
	c2.3-2.3,6-2.3,8.3,0c21.6,21.6,21.6,56.7,0,78.3C1501.6,573.6,1500.1,574.1,1498.6,574.1z"/>
<path class="st0" d="M1575.1,638.8C1575.2,638.8,1575.2,638.8,1575.1,638.8c0.2-0.2,0.3-0.4,0.4-0.5c0,0,0,0,0,0
	c0.1-0.1,0.2-0.3,0.2-0.4c0,0,0-0.1,0.1-0.1c0.1-0.1,0.1-0.2,0.2-0.3c0-0.1,0.1-0.1,0.1-0.2c0-0.1,0.1-0.2,0.1-0.2
	c0-0.1,0.1-0.2,0.1-0.3c0-0.1,0-0.1,0-0.2c0-0.1,0.1-0.3,0.1-0.4c0,0,0,0,0-0.1c0.1-0.5,0.2-1.1,0.1-1.6c0-0.4-0.1-0.8-0.2-1.2
	c0,0,0,0,0,0l-27.3-100.7c-0.7-2.5-2.6-4.4-5.1-5.1c-1.8-0.5-3.8-0.2-5.4,0.7c-1.7,1-2.8,2.5-3.3,4.3L1508,633.4c0,0,0,0,0,0
	c-0.1,0.4-0.2,0.8-0.2,1.2c0,0.6,0,1.1,0.1,1.6c0,0,0,0,0,0c0,0.1,0.1,0.3,0.1,0.4c0,0,0,0.1,0,0.1c0,0.1,0.1,0.2,0.1,0.3
	c0,0.1,0.1,0.2,0.1,0.2c0,0.1,0.1,0.1,0.1,0.2c0.1,0.1,0.1,0.2,0.2,0.3c0,0,0,0.1,0.1,0.1c0.1,0.1,0.2,0.3,0.2,0.4c0,0,0,0,0,0
	c0.1,0.1,0.2,0.3,0.3,0.4c0,0.1,0.1,0.1,0.2,0.2c0.1,0.1,0.2,0.2,0.2,0.2c0.3,0.3,0.6,0.5,0.9,0.7c0,0,0,0,0,0c0,0,0,0,0,0
	c0.2,0.1,0.4,0.2,0.6,0.3c0.1,0,0.1,0.1,0.2,0.1c0.2,0.1,0.4,0.1,0.5,0.2c0.1,0,0.1,0,0.2,0.1c0,0,0,0,0,0c0.2,0.1,0.4,0.1,0.7,0.1
	c0.1,0,0.1,0,0.2,0c0.2,0,0.4,0,0.6,0c0,0,0.1,0,0.1,0c0,0,0.1,0,0.1,0c0.2,0,0.4,0,0.6,0c0,0,0.1,0,0.1,0c0.2,0,0.4-0.1,0.7-0.1
	c0,0,0.1,0,0.1,0c0.2,0,0.3-0.1,0.5-0.2c0.1,0,0.1-0.1,0.2-0.1c0.1-0.1,0.3-0.1,0.4-0.2c0.1,0,0.1-0.1,0.2-0.1
	c0.2-0.1,0.4-0.2,0.5-0.3c0.1,0,0.1-0.1,0.2-0.1c0.1-0.1,0.2-0.2,0.4-0.3c0.1-0.1,0.1-0.1,0.2-0.2c0.1-0.1,0.2-0.2,0.3-0.4
	c0,0,0.1-0.1,0.1-0.1c0.1-0.2,0.3-0.4,0.4-0.6c0,0,0,0,0,0l23.6-37.6l23.6,37.6c0,0,0.1,0.1,0.1,0.1c0.1,0.1,0.1,0.2,0.2,0.3
	c0.1,0.2,0.2,0.3,0.4,0.5c0.1,0.1,0.1,0.1,0.2,0.2c0.2,0.2,0.3,0.3,0.5,0.4c0.1,0,0.1,0.1,0.1,0.1c0.2,0.2,0.5,0.3,0.7,0.5
	c0,0,0.1,0,0.1,0c0.2,0.1,0.4,0.2,0.7,0.3c0.1,0,0.2,0.1,0.3,0.1c0.2,0.1,0.4,0.1,0.6,0.1c0.1,0,0.2,0,0.3,0.1
	c0.3,0,0.5,0.1,0.8,0.1c0,0,0,0,0.1,0c0.3,0,0.5,0,0.8-0.1c0.1,0,0.3-0.1,0.4-0.1c0.1,0,0.2,0,0.3-0.1c0,0,0,0,0,0
	c0.1,0,0.1,0,0.2-0.1c0.2-0.1,0.4-0.1,0.5-0.2c0.1,0,0.1-0.1,0.2-0.1c0.2-0.1,0.4-0.2,0.6-0.3c0,0,0,0,0,0c0,0,0,0,0,0
	c0.3-0.2,0.7-0.5,0.9-0.7C1574.9,639,1575,638.9,1575.1,638.8z M1542.2,552.1l5,18.3l-5,7.9l-5-7.9L1542.2,552.1z M1529.7,598.2
	l3.4-12.4l2.2,3.5L1529.7,598.2z M1551.3,585.8l3.4,12.4l-5.6-8.9L1551.3,585.8z"/>
<path class="st0" d="M288.7,686.4c-5.6,0-9.7-4.1-9.7-9.8c0-4.8,3-10.3,9.7-10.3c2.5-0.1,5,0.7,7,2.4l0.5,4.2l-2.7,0.3l-0.5-2.7
	c-1.3-0.8-2.8-1.2-4.3-1.2c-3.7,0-6.1,2.7-6.1,7.2c0,4.7,2.6,7.1,6.4,7.1c1.4,0,2.7-0.3,3.9-0.8l0.5-2.9l2.7,0.3l-0.4,4.3
	C294.3,685.6,291.5,686.4,288.7,686.4z"/>
<path class="st0" d="M298,686.1v-2.5h2v-15.7h-2.1v-2.5h5.3v18.2h2v2.5L298,686.1z"/>
<path class="st0" d="M313.4,686.4c-4.1,0-6.8-2.7-6.8-6.9c0-3.9,2.4-7.2,7.1-7.2c4.7,0,7,3.2,7,7.1
	C320.6,683.6,317.7,686.4,313.4,686.4z M313.6,674.9c-2.3,0-3.6,1.8-3.6,4.5c0,2.5,1.2,4.6,3.6,4.6c2.4,0,3.7-1.9,3.7-4.6
	C317.3,676.4,315.7,674.9,313.6,674.9z"/>
<path class="st0" d="M327.9,686.4c-1.9,0-3.8-0.4-5.5-1.3l0.5-3.5l2.5,0.2v1.7c0.8,0.3,1.5,0.4,2.4,0.4c1.6,0,3.1-0.6,3.1-1.7
	c0-2.8-8.2-0.5-8.2-5.8c0-3.1,2.9-4.1,5.6-4.1c1.7,0,3.4,0.4,4.9,1.2l0.3,3.3l-2.5,0.3l-0.3-2c-0.7-0.3-1.5-0.4-2.4-0.4
	c-1.3,0-2.2,0.5-2.2,1.6c0,2.8,8,0.5,8,5.8C334,684.9,331.5,686.4,327.9,686.4z"/>
<path class="st0" d="M342.5,686.4c-3.9,0-6.7-2.4-6.7-6.8c0-4.1,2.4-7.2,6.5-7.2c3.7,0,6.1,2.5,6.1,5.9c0,0.6-0.1,1.2-0.2,1.8h-9.1
	c0.2,2.4,1.4,3.8,3.6,3.8c1.5,0.2,2.9-0.9,3.1-2.4l2.7,0.5C348.3,684.4,346.1,686.4,342.5,686.4z M342.3,674.7
	c-1.9,0-2.9,1.4-3.1,3.3h5.9c0.3-1.5-0.7-3-2.2-3.3C342.7,674.8,342.5,674.7,342.3,674.7z"/>
<path class="st0" d="M369.4,686.1l-4-7.7h-3.2v4.9h2.3v2.9h-7.9v-2.9h2.3v-13.8h-2.3v-2.9h8.7c4.8,0,7.2,2.1,7.2,5.8
	c0.1,2.5-1.5,4.7-3.9,5.4l3,5.6h2.4v2.9H369.4z M364.7,669.5h-2.6v6.3h2.5c3.2,0,4.3-1.2,4.3-3.3
	C368.9,670.3,367.8,669.5,364.7,669.5L364.7,669.5z"/>
<path class="st0" d="M381.9,672.4c3,0,5.2,1.5,5.2,4.6v6.1c0,0.9,0.3,1.2,1,1.2c0.2,0,0.5-0.1,0.7-0.1v1.8c-0.7,0.4-1.4,0.6-2.2,0.6
	c-1.4,0.1-2.7-1-2.8-2.4c0-0.1,0-0.2,0-0.2v-0.1c-0.9,1.7-2.6,2.7-4.4,2.7c-1.9,0-4.1-1-4.1-3.8c0-3.3,3.2-4.1,6.3-4.1
	c0.8,0,1.5,0,2.3,0.1v-0.8c0-1.6-0.3-3.1-2.5-3.1c-0.8,0-1.6,0.1-2.3,0.5l-0.5,2.1l-2.6-0.3l0.6-3.4
	C378.1,672.7,380,672.3,381.9,672.4z M383.8,680.3c-0.7-0.1-1.4-0.2-2.2-0.2c-1.6,0-3.1,0.4-3.1,2.1c-0.1,1,0.7,1.8,1.6,1.8
	c0.1,0,0.2,0,0.3,0c1.8,0,3.3-1.5,3.3-3.3L383.8,680.3z"/>
<path class="st0" d="M399.3,686.1v-2.5h2v-5.3c0-2.6-1-3.5-2.6-3.5c-1.8,0-3.3,1.4-3.3,3.2c0,0.1,0,0.1,0,0.2v5.4h2v2.5h-7.2v-2.5h2
	v-8.5H390v-2.5h5.3v2.2c0.9-1.6,2.6-2.5,4.5-2.5c2.6,0,4.7,1.5,4.7,4.8v6.5h2v2.5L399.3,686.1z"/>
<path class="st0" d="M421.3,675.1v10.5c0,4.3-2.4,7.2-7.1,7.2c-2.8,0-5.5-1.1-6.5-4l2.5-1.3c0.7,1.7,2.3,2.8,4.1,2.8
	c2.2,0,3.8-1.7,3.8-4.6v-2c-0.9,1.7-2.7,2.7-4.6,2.6c-3.1,0-5.8-2.3-5.8-6.5c0-3.8,2.1-7.3,6-7.3c1.8-0.1,3.5,0.8,4.4,2.4v-2.1h5.2
	v2.5L421.3,675.1z M418.1,678.6c0-2.3-1.4-3.7-3.4-3.7c-2.2,0-3.5,1.7-3.5,4.5c0,2.8,1.3,4.1,3.2,4.1c2.1,0,3.7-1.7,3.7-3.8
	c0,0,0-0.1,0-0.1V678.6z"/>
<path class="st0" d="M431.2,686.4c-3.9,0-6.7-2.4-6.7-6.8c0-4.1,2.4-7.2,6.5-7.2c3.7,0,6.1,2.5,6.1,5.9c0,0.6-0.1,1.2-0.2,1.8h-9.1
	c0.2,2.4,1.4,3.8,3.6,3.8c1.5,0.2,2.9-0.9,3.1-2.4l2.7,0.5C437,684.4,434.8,686.4,431.2,686.4z M431,674.7c-1.9,0-2.9,1.4-3.1,3.3
	h5.9C434,676.5,433.1,674.7,431,674.7L431,674.7z"/>
<path class="st0" d="M1419.2,686.1v-2.9h2.2v-13.8h-2.2v-2.9h8.5v2.9h-2.9v13.8h6l0.6-4.1l2.9,0.2l-0.6,6.7H1419.2z"/>
<path class="st0" d="M1442.2,686.4c-4.1,0-6.8-2.7-6.8-6.9c0-3.9,2.4-7.2,7.1-7.2s7,3.2,7,7.1
	C1449.4,683.6,1446.5,686.4,1442.2,686.4z M1442.3,674.9c-2.3,0-3.6,1.8-3.6,4.5c0,2.5,1.2,4.6,3.6,4.6c2.4,0,3.7-1.9,3.7-4.6
	C1446.1,676.4,1444.5,674.9,1442.3,674.9L1442.3,674.9z"/>
<path class="st0" d="M1460.2,686.1v-2.5h2v-5.3c0-2.6-1-3.5-2.6-3.5c-1.8,0-3.3,1.4-3.3,3.2c0,0.1,0,0.1,0,0.2v5.4h2v2.5h-7.2v-2.5
	h2v-8.5h-2.1v-2.5h5.3v2.2c0.9-1.6,2.6-2.5,4.5-2.5c2.6,0,4.7,1.5,4.7,4.8v6.5h2v2.5L1460.2,686.1z"/>
<path class="st0" d="M1482.2,675.1v10.5c0,4.3-2.4,7.2-7.1,7.2c-2.8,0-5.5-1.1-6.5-4l2.5-1.3c0.7,1.7,2.3,2.8,4.1,2.8
	c2.2,0,3.8-1.7,3.8-4.6v-2c-0.8,1.7-2.6,2.8-4.6,2.6c-3.1,0-5.8-2.3-5.8-6.5c0-3.8,2.1-7.3,6-7.3c1.8-0.1,3.5,0.8,4.4,2.4v-2.1h5.2
	v2.5L1482.2,675.1z M1479,678.6c0-2.3-1.4-3.7-3.4-3.7c-2.2,0-3.5,1.7-3.5,4.5c0,2.8,1.4,4.1,3.2,4.1c2.1,0,3.7-1.7,3.7-3.8
	c0,0,0-0.1,0-0.1V678.6z"/>
<path class="st0" d="M1504.7,686.1l-4-7.7h-3.2v4.9h2.4v2.9h-7.8v-2.9h2.3v-13.8h-2.3v-2.9h8.6c4.8,0,7.2,2.1,7.2,5.8
	c0.1,2.5-1.5,4.7-3.9,5.4l3,5.6h2.4v2.9H1504.7z M1500,669.5h-2.6v6.3h2.5c3.2,0,4.3-1.2,4.3-3.3
	C1504.2,670.3,1503.1,669.5,1500,669.5L1500,669.5z"/>
<path class="st0" d="M1517.1,672.4c3,0,5.2,1.5,5.2,4.6v6.1c0,0.9,0.3,1.2,1,1.2c0.2,0,0.5-0.1,0.7-0.1v1.8
	c-0.7,0.4-1.4,0.6-2.2,0.6c-1.4,0.1-2.7-1-2.8-2.4c0-0.1,0-0.2,0-0.2v-0.1c-0.8,1.7-2.5,2.7-4.4,2.7c-1.9,0-4.1-1-4.1-3.8
	c0-3.3,3.2-4.1,6.3-4.1c0.8,0,1.5,0,2.3,0.1v-0.8c0-1.6-0.3-3.1-2.5-3.1c-0.8,0-1.5,0.1-2.2,0.5l-0.5,2.1l-2.6-0.3l0.6-3.4
	C1513.4,672.7,1515.3,672.3,1517.1,672.4z M1519.1,680.3c-0.7-0.1-1.4-0.2-2.2-0.2c-1.6,0-3.1,0.4-3.1,2.1c-0.1,1,0.7,1.8,1.6,1.8
	c0.1,0,0.2,0,0.3,0c1.8,0,3.3-1.5,3.3-3.3V680.3z"/>
<path class="st0" d="M1534.6,686.1v-2.5h2v-5.3c0-2.6-1-3.5-2.6-3.5c-1.8,0-3.3,1.4-3.3,3.2c0,0.1,0,0.1,0,0.2v5.4h2v2.5h-7.2v-2.5
	h2v-8.5h-2.1v-2.5h5.3v2.2c0.9-1.6,2.6-2.5,4.5-2.5c2.6,0,4.7,1.5,4.7,4.8v6.5h2v2.5L1534.6,686.1z"/>
<path class="st0" d="M1556.5,675.1v10.5c0,4.3-2.4,7.2-7.1,7.2c-2.8,0-5.5-1.1-6.5-4l2.5-1.3c0.7,1.7,2.3,2.8,4.1,2.8
	c2.2,0,3.8-1.7,3.8-4.6v-2c-0.8,1.7-2.6,2.8-4.6,2.6c-3.1,0-5.8-2.3-5.8-6.5c0-3.8,2.1-7.3,6-7.3c1.8-0.1,3.5,0.8,4.3,2.4v-2.1h5.2
	v2.5L1556.5,675.1z M1553.3,678.6c0-2.3-1.4-3.7-3.4-3.7c-2.2,0-3.5,1.7-3.5,4.5c0,2.8,1.4,4.1,3.2,4.1c2.1,0,3.7-1.7,3.7-3.8
	c0,0,0-0.1,0-0.1V678.6z"/>
<path class="st0" d="M1566.5,686.4c-3.9,0-6.7-2.4-6.7-6.8c0-4.1,2.4-7.2,6.5-7.2c3.7,0,6.1,2.5,6.1,5.9c0,0.6-0.1,1.2-0.2,1.8h-9.1
	c0.2,2.4,1.4,3.8,3.6,3.8c1.5,0.2,2.9-0.9,3.1-2.4l2.7,0.5C1572.3,684.4,1570.1,686.4,1566.5,686.4z M1566.2,674.7
	c-1.9,0-2.9,1.4-3.1,3.3h5.9c0.3-1.5-0.7-3-2.2-3.3C1566.6,674.8,1566.4,674.7,1566.2,674.7L1566.2,674.7z"/>
<path class="st2" d="M358,463.8c-3.2,0-5.9-2.6-5.9-5.9V314.5c0-13.8,5.4-26.8,15.1-36.5l29-29c2.3-2.3,6-2.3,8.3,0
	c2.3,2.3,2.3,6,0,8.3l-29,29c-7.5,7.5-11.7,17.5-11.7,28.2v143.3C363.9,461.1,361.3,463.8,358,463.8z"/>
<path class="st2" d="M1505.8,463.8c-3.2,0-5.9-2.6-5.9-5.9V314.5c0-13.8,5.4-26.8,15.1-36.5l29-29c2.3-2.3,6-2.3,8.3,0
	c2.3,2.3,2.3,6,0,8.3l-29,29c-7.5,7.5-11.7,17.5-11.7,28.2v143.3C1511.7,461.1,1509.1,463.8,1505.8,463.8z"/>
<path class="st1" d="M1314.5,463.8c-3.2,0-5.9-2.6-5.9-5.9V314.5c0-13.8,5.4-26.8,15.1-36.5l29-29c2.3-2.3,6-2.3,8.3,0
	c2.3,2.3,2.3,6,0,8.3l-29,29c-7.5,7.5-11.7,17.5-11.7,28.2v143.3C1320.4,461.1,1317.8,463.8,1314.5,463.8z"/>
<path class="st2" d="M1123.2,463.8c-3.2,0-5.9-2.6-5.9-5.9V314.5c0-13.8,5.4-26.8,15.1-36.5l29-29c2.3-2.3,6-2.3,8.3,0
	c2.3,2.3,2.3,6,0,8.3l-29,29c-7.5,7.5-11.7,17.5-11.7,28.2v143.3C1129.1,461.1,1126.5,463.8,1123.2,463.8z"/>
<path class="st2" d="M931.9,463.8c-3.2,0-5.9-2.6-5.9-5.9V314.5c0-13.8,5.4-26.8,15.1-36.5l29-29c2.3-2.3,6-2.3,8.3,0
	c2.3,2.3,2.3,6,0,8.3l-29,29c-7.5,7.5-11.7,17.5-11.7,28.2v143.3C937.8,461.1,935.2,463.8,931.9,463.8z"/>
<path class="st2" d="M740.6,463.8c-3.2,0-5.9-2.6-5.9-5.9V314.5c0-13.8,5.4-26.8,15.1-36.5l29-29c2.3-2.3,6-2.3,8.3,0
	c2.3,2.3,2.3,6,0,8.3l-29,29c-7.5,7.5-11.7,17.5-11.7,28.2v143.3C746.5,461.1,743.9,463.8,740.6,463.8z"/>
<path class="st2" d="M549.3,463.8c-3.2,0-5.9-2.6-5.9-5.9V314.5c0-13.8,5.4-26.8,15.1-36.5l29-29c2.3-2.3,6-2.3,8.3,0
	c2.3,2.3,2.3,6,0,8.3l-29,29c-7.5,7.5-11.7,17.5-11.7,28.2v143.3C555.2,461.1,552.6,463.8,549.3,463.8z"/>
<path class="st0" d="M433,236.3l-2-2l1.4-1.4l-2.6-1.2l-5.2,5.2l1.1,2.6l1.6-1.6l2,2l-5.2,5.2l-2-2l1.3-1.3l-5.6-13.9l-2,2l-2-2
	l4.4-4.4l16.8,6.8l1.3-1.3l2,2L433,236.3z M420.8,227.6l-0.1,0.1l2.9,6.7l3.8-3.8L420.8,227.6z"/>
<path class="st0" d="M440.1,205.5l11.8,11.8l-1.3,1.4l-17.2-1.9l-0.1,0.1l7.5,7.5l2-2l2,2l-5.8,5.8l-2-2l1.5-1.6l-9.8-9.8l-1.7,1.7
	l-2-2l3.5-3.5l16.4,1.8l0.1-0.1l-7.1-7.1l-2,2l-2-2l5.8-5.8l2,2L440.1,205.5z"/>
<path class="st0" d="M456.1,194.9l-3.1-2.2l-2.7,2.7l9.8,9.8l2.3-2.4l2,2l-6.9,6.9l-2-2l2.2-2.2l-9.8-9.8l-2.7,2.7l2.2,3.1l-2.2,1.9
	l-4.1-4.9l11.8-11.8l4.9,4.1L456.1,194.9z"/>
<path class="st0" d="M475,194.2l-2.2,2.2l-10.3-18.9l2.2-2.2L475,194.2z"/>
<path class="st0" d="M492.4,176.8l-2-2l1.4-1.4l-2.6-1.2l-5.2,5.2l1.1,2.6l1.6-1.6l2,2l-5.2,5.2l-2-2l1.3-1.3l-5.6-13.9l-2,2l-2-2
	l4.4-4.4l16.8,6.8l1.3-1.3l2,2L492.4,176.8z M480.3,168.1l-0.1,0.1l2.9,6.7l3.8-3.8L480.3,168.1z"/>
<path class="st0" d="M499.6,146.1l11.8,11.8l-1.3,1.4l-17.2-1.9l-0.1,0.1l7.5,7.5l2-2l2,2l-5.8,5.8l-2-2l1.5-1.6l-9.8-9.8l-1.7,1.8
	l-2-2l3.5-3.5l16.5,1.8l0.1-0.1l-7.1-7.1l-2,2l-2-2l5.8-5.8l2,2L499.6,146.1z"/>
<path class="st0" d="M515.6,135.4l-3.1-2.2l-2.7,2.7l9.8,9.8l2.3-2.4l2,2l-6.9,6.9l-2-2l2.2-2.2l-9.8-9.8l-2.7,2.7l2.2,3.1l-2.2,1.8
	l-4.1-4.9l11.8-11.8l4.9,4.1L515.6,135.4z"/>
<path class="st0" d="M521.1,134.7l3-2.9l-2.9-2.9l1.6-1.6l2.9,2.9l2.8-2.8l1.6,1.6l-2.8,2.8l2.9,2.9l-1.6,1.6l-2.9-2.9l-3,3
	L521.1,134.7z"/>
<path class="st0" d="M630.9,237.5l-7,7l-2-2l1.6-1.6l-9.8-9.8l-1.6,1.6l-2-2l6.9-6.9c2.6-2.6,5.5-2.9,7.5-0.9
	c1.5,1.4,1.7,3.7,0.4,5.4l0.1,0.1c2-1.6,4.8-1.3,6.5,0.5C633.7,231.1,634,234.4,630.9,237.5z M618.4,226.4l-2.4,2.4l3.8,3.8l2.2-2.2
	c1.6-1.6,1.6-3.1,0.4-4.3C621.1,224.6,619.7,225.1,618.4,226.4L618.4,226.4z M624.5,231.6l-2.8,2.8l4.1,4.1l2.4-2.4
	c1.7-1.7,2-3.3,0.6-4.8S626,230.1,624.5,231.6L624.5,231.6z"/>
<path class="st0" d="M636.5,231.9l-1.7-1.7l1.4-1.4l-11.1-11.1l-1.5,1.5l-1.7-1.7l3.8-3.8l12.9,12.9l1.4-1.4l1.7,1.7L636.5,231.9z"
	/>
<path class="st0" d="M650.2,218.2l-1.6-1.6c0.5,1.8,0,3.7-1.4,4.9c-1.8,1.8-4.4,2.3-6.8-0.1l-4.6-4.6l-1.4,1.4l-1.7-1.7l3.7-3.7
	l5.5,5.5c1.8,1.8,3.1,1.8,4.4,0.6c1.4-1.4,1.2-3.5-0.2-4.8l-3.7-3.7l-1.7,1.7l-1.7-1.7l4-4l7.8,7.8l1.5-1.5l1.7,1.7L650.2,218.2z"/>
<path class="st0" d="M659.8,209c-2.8,2.8-6.4,3.1-9.6-0.1c-2.9-2.9-3.4-6.8-0.5-9.7c2.6-2.6,6.1-2.5,8.5-0.1
	c0.4,0.4,0.8,0.9,1.1,1.4l-6.4,6.4c1.8,1.6,3.7,1.7,5.2,0.1c1.2-0.9,1.4-2.6,0.5-3.9l2.2-1.6C662.5,203.5,662.4,206.4,659.8,209z
	 M651.4,200.9c-1.4,1.4-1,3.1,0.1,4.6l4.2-4.2c-0.9-1.3-2.6-1.6-3.9-0.8C651.7,200.6,651.5,200.8,651.4,200.9z"/>
<path class="st0" d="M669.6,199.3c-2,2-4.5,2.2-6.4,0.3l-5-5l-1.4,1.4l-1.7-1.7l1.4-1.4l-3-2.9l2.3-2.3l3,2.9l3.6-3.5l1.7,1.7
	l-3.6,3.6l4.7,4.6c1,1,2,1,2.8,0.2c0.5-0.5,1-1.4-0.2-3.1l2.2-1.1C671.7,195.2,671.5,197.4,669.6,199.3z"/>
<path class="st0" d="M678.3,190.6c-2.9,2.9-6.7,2.9-9.7,0c-2.8-2.8-3.4-6.8-0.1-10s7.2-2.7,9.9,0
	C681.3,183.5,681.3,187.6,678.3,190.6z M670.2,182.3c-1.6,1.6-1.3,3.8,0.6,5.7c1.9,1.9,4.1,2.4,5.8,0.7c1.7-1.7,1.3-3.9-0.6-5.9
	S671.7,180.8,670.2,182.3z"/>
<path class="st0" d="M689.3,179.5c-2.9,2.9-6.7,3-9.7,0c-2.8-2.8-3.4-6.8-0.1-10c3.3-3.3,7.2-2.7,9.9,0
	C692.4,172.5,692.3,176.6,689.3,179.5z M681.2,171.3c-1.6,1.6-1.3,3.8,0.6,5.7s4.1,2.4,5.8,0.7c1.7-1.7,1.3-4-0.6-5.9
	C685,169.9,682.7,169.7,681.2,171.3z"/>
<path class="st0" d="M699.9,169c-2,2-4.5,2.2-6.4,0.3l-5-5l-1.4,1.4l-1.7-1.7l1.4-1.4l-2.9-3l2.3-2.3l2.9,3l3.6-3.5l1.7,1.7
	l-3.6,3.5l4.7,4.7c1,1,2,1,2.8,0.2c0.5-0.5,1-1.4-0.2-3.1l2.2-1.2C702,164.9,701.7,167.1,699.9,169z"/>
<path class="st0" d="M709.8,158.7l-1.7-1.7l1.4-1.4l-3.7-3.7c-1.8-1.8-3.2-1.8-4.4-0.6c-1.3,1.2-1.3,3.3-0.1,4.6
	c0,0,0.1,0.1,0.1,0.1l3.9,3.9l1.4-1.4l1.7,1.7l-5.1,5.1l-1.7-1.7l1.4-1.4l-11.1-11.2l-1.4,1.4l-1.7-1.7l3.7-3.7l6.6,6.6
	c-0.5-1.8,0-3.7,1.4-4.9c1.8-1.8,4.4-2.2,6.7,0.1l4.6,4.6l1.4-1.4l1.7,1.7L709.8,158.7z"/>
<path class="st0" d="M722.4,146l-2.2,2.2l-10.3-18.9l2.2-2.2L722.4,146z"/>
<path class="st0" d="M739.2,129.2l-7,7l-2-2l1.6-1.6l-9.8-9.8l-1.6,1.6l-2-2l6.9-6.9c2.6-2.6,5.5-2.9,7.5-0.9
	c1.5,1.4,1.7,3.7,0.4,5.4l0.1,0.1c2-1.6,4.8-1.4,6.5,0.5C742,122.8,742.3,126.1,739.2,129.2z M726.7,118.1l-2.4,2.4l3.8,3.8l2.2-2.2
	c1.6-1.6,1.6-3.1,0.4-4.3C729.4,116.3,728,116.8,726.7,118.1L726.7,118.1z M732.8,123.3l-2.8,2.8l4.1,4.1l2.4-2.4
	c1.7-1.7,2-3.3,0.6-4.8C735.7,121.6,734.3,121.8,732.8,123.3z"/>
<path class="st0" d="M745.3,123.1l-2-2l1.6-1.6l-9.7-9.7l-1.6,1.6l-2-2l6-6l2,2l-2.1,2.1l9.8,9.8l4.2-4.2l-2.5-3.3l2.2-1.8l4.3,5.1
	L745.3,123.1z"/>
<path class="st0" d="M757,111.4l-2-2l1.6-1.6l-9.7-9.8l-1.6,1.6l-2-2l10.4-10.4l4.4,3.6l-1.8,2.2l-2.6-1.7l-4.4,4.4l3.8,3.8l6.1-6.1
	l2,2l-6.1,6.1l3.9,3.9l4.5-4.5l-1.7-2.6l2.2-1.9l3.6,4.4L757,111.4z"/>
<path class="st0" d="M1580.4,244.5l-2-2l1.6-1.6l-9.8-9.8l-1.6,1.6l-2-2l6-6l2,2l-2.1,2.1l9.8,9.8l4.2-4.2l-2.4-3.3l2.2-1.8l4.3,5.1
	L1580.4,244.5z"/>
<path class="st0" d="M1592.2,214.4l-3.1-2.2l-2.7,2.7l9.8,9.8l2.4-2.3l2,2l-6.9,6.9l-2-2l2.2-2.2l-9.8-9.8l-2.7,2.7l2.2,3.1
	l-2.2,1.8l-4.1-4.9l11.8-11.8l4.9,4.1L1592.2,214.4z"/>
<path class="st0" d="M1604.7,220.3l-2-2l1.6-1.6l-9.8-9.8l-1.6,1.6l-2-2l10.4-10.4l4.4,3.6l-1.8,2.2l-2.6-1.7l-4.4,4.4l3.8,3.8
	l6.1-6.1l2,2l-6.1,6.1l3.9,3.9l4.5-4.5l-1.7-2.6l2.2-1.8l3.6,4.4L1604.7,220.3z"/>
<path class="st0" d="M1616.5,196.6l1.9,1.9l-5,5l-1.9-1.9L1616.5,196.6z"/>
<path class="st0" d="M1627.7,173.7l9.8,9.7l1.6-1.6l2,2l-5.3,5.3l-2-2l1.4-1.4l-6.6-6.6l-0.1,0.1l3.6,11.7l-1.1,1.1l-12.1-3.6
	l-0.1,0.1l6.8,6.8l1.4-1.4l2,2l-5.2,5.2l-2-2l1.6-1.6l-9.8-9.8l-1.7,1.7l-2-2l3.7-3.7l14.5,4.3l0.1-0.1l-4.6-14.2l3.8-3.8l2,2
	L1627.7,173.7z"/>
<path class="st0" d="M821.8,214.3l8,15.5l-1.7,1.7l-13.1-6.3l-0.1,0.1l6.5,13l-1.8,1.8l-15.8-7.8l-1.2,1.2l-2-2l5.3-5.2l2,2
	l-1.6,1.6l10.3,5.5l0.1-0.1l-5.2-10.6l-1.2,1.2l-2-2l5.2-5.2l2,2l-1.1,1.1l10.8,5.3l0.1-0.1l-5.8-10.2l-1.7,1.7l-2-2l5.2-5.2l2,2
	L821.8,214.3z"/>
<path class="st0" d="M822.4,209.3l2.4-2.3l2.5,2.5l-2.4,2.4L822.4,209.3z M835.1,224.6l-1.7-1.7l1.4-1.4l-6-6l-1.5,1.5l-1.8-1.8
	l3.8-3.8l7.8,7.8l1.4-1.4l1.7,1.7L835.1,224.6z"/>
<path class="st0" d="M840.7,200.1l-2.7-1.9l-4.3,4.3l4.4,4.4l6-6l2,2l-6,6l3.3,3.3l2.3-2.3l2,2l-6.3,6.3l-2-2l1.6-1.6l-9.7-9.8
	l-1.6,1.6l-2-2l10.2-10.2l4.6,3.7L840.7,200.1z"/>
<path class="st0" d="M840.6,191.1l2.4-2.3l2.5,2.5l-2.3,2.4L840.6,191.1z M853.3,206.4l-1.7-1.7l1.4-1.4l-6-6l-1.5,1.5l-1.8-1.8
	l3.8-3.8l7.8,7.8l1.4-1.4l1.7,1.7L853.3,206.4z"/>
<path class="st0" d="M1006.3,244.7l-1.3-1.2l-3-17.9l0,0l-4.6,4.6l1.9,2.9l-2.2,1.8l-3.8-4.7l10-10l1.2,1.1l3.1,18.1l0,0l5.5-5.5
	l-2.2-3.2l2.2-1.8l4,5L1006.3,244.7z"/>
<path class="st0" d="M1006,216.9l2.4-2.4l2.5,2.5l-2.4,2.3L1006,216.9z M1018.8,232.2l-1.7-1.7l1.4-1.4l-6-6l-1.5,1.5l-1.8-1.8
	l3.8-3.8l7.8,7.8l1.4-1.4l1.7,1.7L1018.8,232.2z"/>
<path class="st0" d="M1026.7,208.7l7.4,7.4c3,3,3.4,6.8,0,10.1c-2,2-4.6,3.1-7.4,1.8l0.8-2.7c1.7,0.7,3.6,0.4,4.8-0.9
	c1.6-1.6,1.6-3.9-0.6-6l-1.4-1.4c0.6,1.8,0.1,3.8-1.4,5.1c-2.2,2.2-5.7,2.5-8.7-0.5c-2.7-2.7-3.7-6.6-0.9-9.4c1.2-1.3,3-1.9,4.8-1.4
	l-1.5-1.5l3.7-3.7l1.8,1.8L1026.7,208.7z M1026.9,213.4c-1.6-1.6-3.6-1.6-5-0.2c-1.6,1.6-1.2,3.7,0.7,5.7c2,2,3.9,2,5.2,0.7
	c1.4-1.5,1.4-3.8-0.1-5.3c0,0-0.1-0.1-0.1-0.1L1026.9,213.4z"/>
<path class="st0" d="M1043.6,207.4l-7,7l-2-2l1.6-1.6l-9.8-9.8l-1.6,1.6l-2-2l6.9-6.9c2.6-2.6,5.5-2.9,7.5-0.9
	c1.5,1.4,1.7,3.7,0.4,5.4l0.1,0.1c2-1.6,4.8-1.3,6.5,0.5C1046.4,201,1046.7,204.3,1043.6,207.4z M1031.2,196.3l-2.4,2.4l3.8,3.8
	l2.2-2.2c1.6-1.6,1.6-3.1,0.4-4.3C1033.8,194.4,1032.5,195,1031.2,196.3L1031.2,196.3z M1037.2,201.5l-2.8,2.8l4.1,4.1l2.4-2.4
	c1.7-1.7,2-3.3,0.6-4.8S1038.7,200,1037.2,201.5L1037.2,201.5z"/>
<path class="st0" d="M1054.4,197c-2.8,2.8-6.4,3.1-9.6-0.1c-2.9-2.9-3.4-6.8-0.5-9.7c2.6-2.6,6-2.5,8.5-0.1c0.4,0.4,0.8,0.9,1.2,1.4
	l-6.4,6.4c1.8,1.6,3.7,1.7,5.2,0.1c1.2-1,1.4-2.6,0.6-3.9l2.2-1.5C1057.1,191.5,1057,194.4,1054.4,197z M1046,188.9
	c-1.4,1.4-1,3.1,0.1,4.6l4.2-4.2c-0.9-1.3-2.6-1.6-3.9-0.8C1046.3,188.6,1046.2,188.8,1046,188.9z"/>
<path class="st0" d="M1064.6,186.9c-2.8,2.8-6.4,3.1-9.6-0.1c-2.9-2.9-3.4-6.8-0.5-9.7c2.6-2.6,6.1-2.5,8.5-0.1
	c0.4,0.4,0.8,0.9,1.1,1.4l-6.4,6.4c1.8,1.6,3.7,1.7,5.2,0.1c1.2-0.9,1.4-2.6,0.6-3.9l2.2-1.6
	C1067.2,181.3,1067.2,184.3,1064.6,186.9z M1056.1,178.7c-1.4,1.4-1,3.1,0.1,4.6l4.2-4.2C1059.5,177.9,1057.7,177.3,1056.1,178.7z"
	/>
<path class="st0" d="M1203,239.8c-3.7,3.7-7.8,2.1-11.8-1.8c-3.9-3.9-6-8.8-2-12.9c1.5-1.7,3.7-2.5,5.9-2.2v2.7
	c-1.5-0.1-3,0.5-4,1.6c-2,2-1.2,4.2,1.8,7.5l0.5,0.5c-0.5-1.5-0.5-3.4,1.4-5.2c2.8-2.8,6-1.8,8.2,0.4
	C1205.7,233,1206,236.7,1203,239.8z M1196.1,232.6c-1.4,1.2-1.6,3.3-0.4,4.7c0.1,0.1,0.1,0.1,0.2,0.2c1.9,1.5,3.5,1.8,5.1,0.2
	c1.6-1.6,1.3-3.2-0.2-4.8S1197.6,231,1196.1,232.6L1196.1,232.6z"/>
<path class="st0" d="M1209.2,233.2l-2-2l1.6-1.6l-9.8-9.8l-1.6,1.6l-2-2l6-6l2,2l-2.1,2.1l9.8,9.8l4.2-4.2l-2.4-3.3l2.2-1.8l4.3,5.1
	L1209.2,233.2z"/>
<path class="st0" d="M1227.8,214.9c-4.4,4.4-10.2,3.7-14-0.1c-4-4-4.4-9.9-0.1-14.1c4.2-4.2,10.2-3.8,14.1,0.1
	C1231.7,204.6,1232.2,210.5,1227.8,214.9z M1215.7,202.7c-2.9,2.9-2.3,6.6,0.6,9.4s6.5,3.7,9.6,0.6c2.9-2.9,2.3-6.5-0.6-9.4
	C1222.2,200.2,1218.5,199.9,1215.7,202.7L1215.7,202.7z"/>
<path class="st0" d="M1242.3,176.5l8,15.6l-1.7,1.7l-13.1-6.4l-0.1,0.1l6.5,13l-1.8,1.8l-15.8-7.8l-1.2,1.2l-2-2l5.2-5.2l2,2
	l-1.5,1.5l10.3,5.5l0.1-0.1l-5.2-10.6l-1.2,1.2l-2-2l5.2-5.2l2,2l-1.1,1.1l10.7,5.3l0.1-0.1l-5.8-10.2l-1.7,1.7l-2-2l5.2-5.2l2,2
	L1242.3,176.5z"/>
<path class="st0" d="M1257.7,175l-2.4,2.4l2.8,2.8l2.2-2.2l2,2l-6.2,6.2l-2-2l1.6-1.6l-9.8-9.8l-1.6,1.6l-2-2l6.2-6.2
	c3.4-3.4,6.9-3.3,9.5-0.7C1261.1,168.5,1260.4,172.3,1257.7,175z M1250.3,168.4l-1.9,1.9l5,5l1.9-1.9c2-2,1.8-3.8,0.3-5.4
	S1252.3,166.4,1250.3,168.4z"/>
<path class="st0" d="M1275.7,166.6l-2-2l1.4-1.4l-2.6-1.2l-5.2,5.2l1.1,2.6l1.6-1.6l2,2l-5.2,5.2l-2-2l1.3-1.3l-5.6-13.9l-2,2l-2-2
	l4.4-4.4l16.8,6.8l1.3-1.3l2,2L1275.7,166.6z M1263.5,157.9l-0.1,0.1l2.9,6.7l3.8-3.8L1263.5,157.9z"/>
<path class="st0" d="M1282.9,135.8l11.8,11.8l-1.3,1.4l-17.2-1.9l-0.1,0.1l7.5,7.5l2-2l2,2l-5.8,5.8l-2-2l1.6-1.6l-9.8-9.8l-1.7,1.7
	l-2-2l3.5-3.5l16.5,1.8l0.1-0.1l-7.1-7.1l-2,2l-2-2l5.8-5.8l2,2L1282.9,135.8z"/>
<path class="st0" d="M1389.1,244.5l-2-2l1.6-1.6l-9.8-9.8l-1.6,1.6l-2-2l6-6l2,2l-2.1,2.1l9.8,9.8l4.2-4.2l-2.4-3.3l2.2-1.8l4.3,5.1
	L1389.1,244.5z"/>
<path class="st0" d="M1405.6,228.4c-2.9,2.9-6.7,2.9-9.7,0c-2.8-2.8-3.4-6.8-0.1-10s7.2-2.7,9.9,0
	C1408.7,221.3,1408.6,225.4,1405.6,228.4z M1397.5,220.2c-1.6,1.6-1.3,3.8,0.6,5.7c1.9,1.9,4.1,2.4,5.8,0.7c1.7-1.7,1.3-3.9-0.6-5.9
	C1401.3,218.6,1399.1,218.6,1397.5,220.2z"/>
<path class="st0" d="M1420.5,213.1l-8.3-2.6l-2.3,2.3l3.4,3.4l1.6-1.6l2,2l-5.6,5.6l-2-2l1.6-1.6l-9.8-9.8l-1.6,1.6l-2-2l6.1-6.1
	c3.4-3.4,6.6-3.6,9.2-1c1.8,1.7,2.2,4.4,1,6.5l6,1.8l1.7-1.7l2,2L1420.5,213.1z M1405.4,204.6l-1.8,1.8l4.4,4.4l1.8-1.8
	c2.2-2.2,2.2-3.9,0.7-5.3C1409,202.3,1407.6,202.5,1405.4,204.6z"/>
<path class="st0" d="M1419.6,194.6c2.1-2.1,4.7-2.6,6.9-0.4l4.3,4.3c0.6,0.6,1.1,0.6,1.6,0.1c0.2-0.2,0.3-0.4,0.4-0.6l1.3,1.2
	c-0.2,0.7-0.6,1.4-1.1,1.9c-0.9,1.1-2.6,1.2-3.6,0.3c-0.1-0.1-0.1-0.1-0.2-0.2l0,0c0.6,1.8,0.1,3.7-1.2,5.1
	c-1.3,1.3-3.6,2.2-5.7,0.2c-2.4-2.4-0.6-5.2,1.6-7.3c0.5-0.5,1.1-1.1,1.7-1.5l-0.5-0.5c-1.1-1.1-2.4-2-4-0.4c-0.6,0.5-1,1.2-1.3,1.9
	l1.1,1.8l-2,1.6l-2-2.8C1417.2,197.5,1418.2,195.9,1419.6,194.6z M1426.6,198.8c-0.6,0.4-1.1,0.9-1.7,1.4c-1.1,1.1-1.9,2.5-0.7,3.7
	c0.6,0.7,1.7,0.8,2.5,0.1c0.1-0.1,0.1-0.1,0.2-0.2c1.3-1.3,1.3-3.4,0-4.7L1426.6,198.8z"/>
<path class="st0" d="M1570.7,463.8H297c-3.2,0-5.9-2.6-5.9-5.9s2.6-5.9,5.9-5.9h1273.7c3.2,0,5.9,2.6,5.9,5.9
	S1574,463.8,1570.7,463.8z"/>
</svg>
