<?xml version="1.0" encoding="utf-8"?>
<!-- Generator: Adobe Illustrator 23.0.1, SVG Export Plug-In . SVG Version: 6.00 Build 0)  -->
<svg version="1.1" id="Module_6_Smart_Devices" xmlns="http://www.w3.org/2000/svg" xmlns:xlink="http://www.w3.org/1999/xlink"
	 x="0px" y="0px" viewBox="0 0 1920 874.5" style="enable-background:new 0 0 1920 874.5;" xml:space="preserve">
<style type="text/css">
	.st0{fill:#FFCD50;}
	.st1{fill:#BDCADA;}
	.st2{fill:#3EB1CF;}
	.st3{fill:#CE4141;}
	.st4{fill:#BCC9DA;}
</style>
<title>smart-home</title>
<path class="st0" d="M1555,453.8h-15.9c-4,0-7.3-3.3-7.3-7.3s3.3-7.3,7.3-7.3h15.9c4,0,7.3,3.3,7.3,7.3S1559.1,453.8,1555,453.8z
	 M1506,453.8h-15.9c-4,0-7.3-3.3-7.3-7.3s3.3-7.3,7.3-7.3h15.9c4,0,7.3,3.3,7.3,7.3S1510,453.8,1506,453.8z M1457,453.8h-15.9
	c-4,0-7.3-3.3-7.3-7.3s3.3-7.3,7.3-7.3h15.9c4,0,7.3,3.3,7.3,7.3S1461,453.8,1457,453.8z M1408,453.8h-15.9c-4,0-7.3-3.3-7.3-7.3
	s3.3-7.3,7.3-7.3h15.9c4,0,7.3,3.3,7.3,7.3S1412,453.8,1408,453.8z"/>
<path class="st0" d="M386.3,323.6c-4,0-7.2-3.2-7.3-7.2c0-4,3.2-7.3,7.2-7.4l9.1-0.1c4-0.1,7.3,3.2,7.4,7.2c0,4-3.2,7.3-7.2,7.4
	L386.3,323.6C386.4,323.6,386.3,323.6,386.3,323.6z M428.5,323c-4,0-7.2-3.2-7.3-7.2c0-4,3.2-7.3,7.2-7.4l15.9-0.2
	c4.1-0.1,7.3,3.2,7.4,7.2c0,4-3.2,7.3-7.2,7.4L428.5,323C428.6,323,428.6,323,428.5,323z M477.6,322.4c-4,0-7.2-3.2-7.3-7.2
	c0-4,3.2-7.3,7.2-7.4l15.9-0.2c0,0,0.1,0,0.1,0c4,0,7.2,3.2,7.3,7.2c0,4-3.2,7.3-7.2,7.4L477.6,322.4
	C477.6,322.4,477.6,322.4,477.6,322.4z"/>
<path class="st0" d="M567.6,539.8h-15.9c-4,0-7.3-3.3-7.3-7.3c0-4,3.3-7.3,7.3-7.3h15.9c4,0,7.3,3.3,7.3,7.3
	C574.8,536.5,571.6,539.8,567.6,539.8z M518.5,539.8h-15.9c-4,0-7.3-3.3-7.3-7.3c0-4,3.3-7.3,7.3-7.3h15.9c4,0,7.3,3.3,7.3,7.3
	C525.8,536.5,522.6,539.8,518.5,539.8z M469.5,539.8h-15.9c-4,0-7.3-3.3-7.3-7.3c0-4,3.3-7.3,7.3-7.3h15.9c4,0,7.3,3.3,7.3,7.3
	C476.8,536.5,473.5,539.8,469.5,539.8z M420.5,539.8h-15.9c-4,0-7.3-3.3-7.3-7.3c0-4,3.3-7.3,7.3-7.3h15.9c4,0,7.3,3.3,7.3,7.3
	C427.8,536.5,424.5,539.8,420.5,539.8z"/>
<path class="st0" d="M1272.8,381.2h-15.9c-4,0-7.3-3.3-7.3-7.3s3.3-7.3,7.3-7.3h15.9c4,0,7.3,3.3,7.3,7.3S1276.9,381.2,1272.8,381.2
	z M1223.8,381.2h-15.9c-4,0-7.3-3.3-7.3-7.3s3.3-7.3,7.3-7.3h15.9c4,0,7.3,3.3,7.3,7.3S1227.8,381.2,1223.8,381.2z M1174.8,381.2
	h-15.9c-4,0-7.3-3.3-7.3-7.3s3.3-7.3,7.3-7.3h15.9c4,0,7.3,3.3,7.3,7.3S1178.8,381.2,1174.8,381.2z M1125.8,381.2h-15.9
	c-4,0-7.3-3.3-7.3-7.3s3.3-7.3,7.3-7.3h15.9c4,0,7.3,3.3,7.3,7.3S1129.8,381.2,1125.8,381.2z"/>
<path class="st1" d="M1683.3,320.6h-83.7c-10.8,0-19.6,8.8-19.6,19.6v27.4v24.6v27.4v24.6v27.4c0,10.8,8.8,19.6,19.6,19.6h83.7
	c10.8,0,19.6-8.8,19.6-19.6v-27.4v-24.6v-27.4v-24.6v-27.4C1702.9,329.4,1694.1,320.6,1683.3,320.6z M1594.7,419.5v-27.4
	c0-2.8,2.2-5,5-5h83.7c2.8,0,5,2.2,5,5v27.4c0,2.8-2.2,5-5,5h-83.7C1596.9,424.5,1594.7,422.2,1594.7,419.5z M1594.7,340.2
	c0-2.8,2.2-5,5-5h83.7c2.8,0,5,2.2,5,5v27.4c0,2.8-2.2,5-5,5h-83.7c-2.8,0-5-2.2-5-5V340.2z M1688.4,471.4c0,2.8-2.2,5-5,5h-83.7
	c-2.8,0-5-2.2-5-5v-27.4c0-2.8,2.2-5,5-5h83.7c2.8,0,5,2.2,5,5V471.4z"/>
<path class="st2" d="M1629.5,361.1h-17.8c-4,0-7.3-3.3-7.3-7.3s3.3-7.3,7.3-7.3h17.8c4,0,7.3,3.3,7.3,7.3S1633.6,361.1,1629.5,361.1
	z"/>
<path class="st2" d="M1629.5,413.1h-17.8c-4,0-7.3-3.3-7.3-7.3s3.3-7.3,7.3-7.3h17.8c4,0,7.3,3.3,7.3,7.3S1633.6,413.1,1629.5,413.1
	z"/>
<path class="st2" d="M1629.5,465.1h-17.8c-4,0-7.3-3.3-7.3-7.3s3.3-7.3,7.3-7.3h17.8c4,0,7.3,3.3,7.3,7.3S1633.6,465.1,1629.5,465.1
	z"/>
<path class="st1" d="M1579.5,529.9v19.8h-2.3l-12.8-16.1h-0.1v12.7h3.4v3.4h-9.7v-3.4h2.6v-16.4h-2.9v-3.4h5.8l12.2,15.3h0.1v-11.9
	h-3.4v-3.4h9.8v3.4H1579.5z"/>
<path class="st1" d="M1591.3,550c-4.6,0-8-2.8-8-8.1c0-4.9,2.9-8.6,7.8-8.6c4.4,0,7.2,3,7.2,7c0,0.7-0.1,1.4-0.2,2.1h-10.8
	c0.2,2.9,1.6,4.5,4.3,4.5c1.8,0.2,3.4-1,3.7-2.8l3.2,0.6C1598.2,547.6,1595.6,550,1591.3,550z M1591,536.1c-2.3,0-3.4,1.7-3.7,4h7.1
	C1594.6,538.2,1593.6,536.1,1591,536.1z"/>
<path class="st1" d="M1607.7,550c-3.4,0-5.6-1.9-5.6-5.1v-8.4h-2.4v-2.8h2.4v-5h3.8v4.9h5.9v2.8h-5.9v7.8c0,1.7,0.8,2.5,2.2,2.5
	c0.8,0,2-0.3,2.4-2.7l2.8,0.9C1612.8,548.4,1610.9,550,1607.7,550z"/>
<path class="st1" d="M1638.3,536.6l-4.5,13.1h-2.9l-4.4-10.6h-0.2l-4.2,10.6h-2.7l-4.6-13.1h-1.6v-2.9h8.2v2.9h-2.5l2.5,7.7h0.2
	l4.1-10.6h2.4l4.6,10.5h0.2l1.9-7.6h-2.4v-2.9h7.4v2.9L1638.3,536.6z"/>
<path class="st1" d="M1648.8,550c-4.9,0-8.1-3.2-8.1-8.2c0-4.6,2.8-8.5,8.4-8.5c5.6,0,8.3,3.8,8.3,8.4
	C1657.3,546.6,1653.9,550,1648.8,550z M1649,536.3c-2.7,0-4.3,2.1-4.3,5.3c0,3,1.5,5.4,4.3,5.4c2.8,0,4.4-2.2,4.4-5.4
	C1653.4,538.1,1651.6,536.3,1649,536.3z"/>
<path class="st1" d="M1672.1,534.3l0.7,5l-3,0.4l-0.6-2.8c-0.4-0.2-0.8-0.3-1.2-0.4c-1.4,0-2.5,1.2-2.5,3.1v7.1h3.2v2.9h-9.4v-2.9
	h2.4v-10.1h-2.5v-3h6v3c0.6-1.9,1.9-3.2,3.8-3.2C1670.1,533.4,1671.2,533.7,1672.1,534.3z"/>
<path class="st1" d="M1684.3,549.6v-2.9h1.9l-3.4-4h-2.6v4h1.8v2.9h-8v-2.9h2.4V528h-2.5v-2.9h6.3V540h2.7l2.8-3.4h-2.1v-3h7.8v3h-2
	l-3.8,4.4l4.8,5.7h1.7v2.9L1684.3,549.6z"/>
<path class="st1" d="M1724.6,536.2v3.3h-2.8c-1,2.2-2.4,4.3-4.1,5.9c1.1,0.5,2.2,0.8,3.4,0.8c0.9,0,1.7-0.2,2.5-0.6l0.8,3.2
	c-1.2,0.6-2.6,1-3.9,0.9c-2.2-0.1-4.3-0.7-6.1-1.9c-1.9,1.2-4,1.8-6.2,1.9c-3.4,0-7.1-1.9-7.1-5.8c0-3.1,2.3-4.6,4.6-5.9
	c-0.9-1.7-1.3-3.6-1.4-5.6c0-3.4,2.1-6.6,6.8-6.6c3.7,0,6.2,2,6.2,5.1c0,3.3-2.9,5-7.2,7.1c1.4,2.3,3.2,4.3,5.3,5.8
	c1.2-1.3,2-2.9,2.4-4.6h-2.4v-3.3L1724.6,536.2z M1704.8,543.5c0,2.4,2,3.3,4.4,3.3c0.9,0,1.8-0.1,2.6-0.4c-2.1-1.8-3.9-3.9-5.2-6.2
	C1705.5,540.9,1704.8,542.1,1704.8,543.5L1704.8,543.5z M1710.9,529.1c-2.2,0-2.8,1.9-2.8,3.3c0,1.4,0.3,2.8,0.9,4.1
	c2.7-1.6,4.2-3.1,4.2-5.1c0.1-1.2-0.8-2.3-2-2.4C1711.1,529.1,1711,529.1,1710.9,529.1L1710.9,529.1z"/>
<path class="st1" d="M1502.1,592.4V589h2.4l-1.2-3.2h-8.7l-1.2,3.2h2.6v3.4h-8.8V589h2.1l7-16.4h-3.4v-3.4h7.4l8.4,19.8h2.2v3.4
	H1502.1z M1499.2,574.9h-0.2l-3.2,8.1h6.4L1499.2,574.9z"/>
<path class="st1" d="M1522.4,592.7c-2,0.1-3.9-0.8-5-2.5v6.7h3.2v3h-9.4v-3h2.4v-17.7h-2.5v-2.9h6.3v3.2c0.9-2.2,3.1-3.6,5.5-3.5
	c4.1,0,6.9,2.9,6.9,7.9C1529.8,588.5,1527.4,592.7,1522.4,592.7z M1521.6,579.1c-2.6,0-4.1,2.3-4.2,4.9v1.2c0,2.6,1.7,4.4,4.1,4.4
	c2.7,0,4.3-2,4.3-5.3C1525.8,581,1524.1,579.2,1521.6,579.1L1521.6,579.1z"/>
<path class="st1" d="M1542.5,592.7c-2,0.1-3.9-0.8-5-2.5v6.7h3.2v3h-9.4v-3h2.4v-17.7h-2.5v-2.9h6.3v3.2c0.9-2.2,3.1-3.6,5.5-3.5
	c4.1,0,6.9,2.9,6.9,7.9C1549.8,588.5,1547.5,592.7,1542.5,592.7z M1541.7,579.1c-2.6,0-4.1,2.3-4.2,4.9v1.2c0,2.6,1.7,4.4,4.1,4.4
	c2.7,0,4.3-2,4.3-5.3C1545.9,581,1544.1,579.2,1541.7,579.1L1541.7,579.1z"/>
<path class="st1" d="M1551.5,592.4v-2.9h2.4v-18.7h-2.5v-2.9h6.3v21.6h2.4v2.9L1551.5,592.4z"/>
<path class="st1" d="M1561.9,592.4v-2.9h2.4v-10.1h-2.5v-3h6.3v13.1h2.4v2.9L1561.9,592.4z M1564.1,568.9h3.9v4.2h-3.9V568.9z"/>
<path class="st1" d="M1579.8,592.7c-4.6,0-7.7-2.8-7.7-8.1c0-5.3,3.3-8.6,8.1-8.6c2,0,4,0.5,5.7,1.5l0.7,4.5l-3.1,0.3l-0.5-2.6
	c-0.9-0.4-1.8-0.6-2.8-0.6c-2.5,0-4,1.9-4,5.3c0,3.3,1.4,5.2,4.1,5.2c2.1,0,3.2-1.2,3.6-3.6l3.2,0.6
	C1586.6,589.5,1584.7,592.7,1579.8,592.7z"/>
<path class="st1" d="M1596.7,576.1c3.6,0,6.1,1.8,6.1,5.4v7.2c0,1,0.4,1.4,1.2,1.4c0.3,0,0.6-0.1,0.8-0.1v2.1
	c-0.8,0.4-1.7,0.7-2.6,0.7c-1.7,0.1-3.2-1.2-3.3-2.9c0-0.1,0-0.2,0-0.3v-0.1c-1,2-3,3.2-5.2,3.2c-2.2,0-4.9-1.2-4.9-4.6
	c0-4,3.8-4.9,7.4-4.9c0.9,0,1.8,0,2.7,0.1v-0.9c0-1.9-0.3-3.7-3-3.7c-0.9,0-1.8,0.1-2.7,0.5l-0.6,2.5l-3.1-0.3l0.7-4
	C1592.3,576.5,1594.5,576,1596.7,576.1z M1599.1,585.5c-0.8-0.1-1.7-0.2-2.6-0.2c-1.9,0-3.7,0.5-3.7,2.5c-0.1,1.1,0.8,2.1,1.9,2.2
	c0.1,0,0.3,0,0.4,0c2.1,0,3.9-1.7,3.9-3.9V585.5z"/>
<path class="st1" d="M1613.8,592.7c-3.4,0-5.6-1.9-5.6-5.1v-8.4h-2.4v-2.8h2.4v-5h3.8v4.9h5.9v2.8h-5.9v7.8c0,1.7,0.8,2.5,2.2,2.5
	c0.8,0,2-0.3,2.4-2.7l2.8,0.9C1618.9,591.2,1616.9,592.7,1613.8,592.7z"/>
<path class="st1" d="M1620.5,592.4v-2.9h2.4v-10.1h-2.5v-3h6.3v13.1h2.4v2.9L1620.5,592.4z M1622.6,568.9h3.9v4.2h-3.9V568.9z"/>
<path class="st1" d="M1638.7,592.7c-4.9,0-8.1-3.2-8.1-8.2c0-4.6,2.8-8.5,8.4-8.5c5.6,0,8.3,3.8,8.3,8.4
	C1647.3,589.4,1643.8,592.7,1638.7,592.7z M1638.9,579c-2.7,0-4.3,2.1-4.3,5.3c0,3,1.5,5.4,4.3,5.4c2.9,0,4.4-2.2,4.4-5.4
	C1643.3,580.9,1641.5,579,1638.9,579L1638.9,579z"/>
<path class="st1" d="M1660.1,592.4v-2.9h2.4v-6.3c0-3-1.1-4.2-3.1-4.2c-2.1,0-3.9,1.7-4,3.8c0,0.1,0,0.2,0,0.3v6.4h2.4v2.9h-8.6
	v-2.9h2.4v-10.1h-2.5v-3h6.3v2.6c1.1-1.9,3.1-3,5.3-2.9c3.1,0,5.6,1.8,5.6,5.7v7.7h2.4v2.9L1660.1,592.4z"/>
<path class="st1" d="M1685.7,592.7c-3.1,0-6.3-0.8-8-2.2l0.6-5.3l3.2,0.3l-0.1,2.9c1.2,0.7,2.6,1,4,0.9c2.8,0,4.8-0.6,4.8-3.3
	c0-2.9-2.5-3.5-5.2-4c-3.3-0.6-7.2-1.5-7.2-6.3s3.9-6.8,8-6.8c2.9,0,5.8,0.9,7.3,2.3l0.2,4.9l-3.2,0.3l-0.3-3c-1.2-0.7-2.5-1-3.9-1
	c-2.2,0-3.9,0.9-3.9,2.9c0,2.3,2.2,2.8,4.5,3.4c2.9,0.6,7.9,1.3,7.9,7C1694.5,590.2,1691,592.7,1685.7,592.7z"/>
<path class="st1" d="M1704.7,592.7c-4.6,0-8-2.8-8-8.1c0-4.9,2.9-8.6,7.8-8.6c4.4,0,7.2,3,7.2,7c0,0.7-0.1,1.4-0.2,2.1h-10.8
	c0.2,2.9,1.6,4.5,4.3,4.5c1.8,0.2,3.4-1,3.7-2.8l3.2,0.6C1711.6,590.3,1709.1,592.7,1704.7,592.7z M1704.5,578.9
	c-2.3,0-3.4,1.7-3.7,4h7.1C1708,581,1707,578.9,1704.5,578.9z"/>
<path class="st1" d="M1726.6,577l0.7,5l-3,0.4l-0.6-2.8c-0.4-0.2-0.8-0.3-1.2-0.4c-1.3,0-2.5,1.2-2.5,3.1v7.1h3.2v2.9h-9.4v-2.9h2.4
	v-10.1h-2.5v-3h6v3c0.6-1.9,1.9-3.2,3.8-3.2C1724.6,576.1,1725.7,576.5,1726.6,577z"/>
<path class="st1" d="M1744.7,579.3l-5.7,13.1h-2.8l-6.1-13.1h-1.7v-2.9h7.8v2.9h-2l3.6,8.1h0.2l3-8.1h-1.8v-2.9h7.2v2.9
	L1744.7,579.3z"/>
<path class="st1" d="M1755.1,592.7c-4.6,0-8-2.8-8-8.1c0-4.9,2.9-8.6,7.8-8.6c4.4,0,7.2,3,7.2,7c0,0.7-0.1,1.4-0.2,2.1h-10.8
	c0.2,2.9,1.6,4.5,4.3,4.5c1.8,0.2,3.4-1,3.7-2.8l3.2,0.6C1762,590.3,1759.5,592.7,1755.1,592.7z M1754.9,578.9c-2.3,0-3.4,1.7-3.7,4
	h7.1C1758.5,581,1757.4,578.9,1754.9,578.9z"/>
<path class="st1" d="M1777,577l0.7,5l-3,0.4l-0.6-2.8c-0.4-0.2-0.8-0.3-1.2-0.4c-1.3,0-2.5,1.2-2.5,3.1v7.1h3.2v2.9h-9.4v-2.9h2.4
	v-10.1h-2.5v-3h6v3c0.6-1.9,1.9-3.2,3.8-3.2C1775.1,576.1,1776.1,576.5,1777,577z"/>
<path class="st1" d="M1786.4,592.7c-2.3,0-4.5-0.5-6.5-1.6l0.6-4.1l3,0.3v2.1c0.9,0.3,1.8,0.5,2.8,0.5c1.9,0,3.6-0.7,3.6-2.1
	c0-3.3-9.8-0.6-9.8-6.9c0-3.7,3.4-4.8,6.6-4.8c2,0,4,0.5,5.8,1.5l0.4,4l-3,0.4l-0.3-2.4c-0.9-0.4-1.8-0.5-2.8-0.5
	c-1.5,0-2.6,0.6-2.6,1.9c0,3.3,9.5,0.6,9.5,6.8C1793.7,591,1790.6,592.7,1786.4,592.7z"/>
<path class="st1" d="M1229.1,529.9l-6.3,19.8h-2.9l-5.7-16.3h-0.2l-5.5,16.3h-3l-6.7-19.8h-2v-3.4h8.8v3.4h-2.6l4,13.2h0.2l4.6-13.2
	h-2v-3.4h8.8v3.4h-1.9l4.6,13.4h0.2l3.6-13.4h-2.9v-3.4h8.7v3.4H1229.1z"/>
<path class="st1" d="M1231.6,549.6v-2.9h2.4v-10.1h-2.5v-3h6.3v13.1h2.4v2.9L1231.6,549.6z M1233.8,526.1h3.9v4.2h-3.8L1233.8,526.1
	z"/>
<path class="st1" d="M1254.7,534.3l0.7,5l-3,0.4l-0.6-2.8c-0.4-0.2-0.8-0.3-1.2-0.4c-1.4,0-2.5,1.2-2.5,3.1v7.1h3.2v2.9h-9.4v-2.9
	h2.4v-10.1h-2.5v-3h6v3c0.6-1.9,1.9-3.2,3.8-3.2C1252.7,533.4,1253.8,533.7,1254.7,534.3z"/>
<path class="st1" d="M1265.2,550c-4.6,0-8-2.8-8-8.1c0-4.9,2.9-8.6,7.8-8.6c4.4,0,7.2,3,7.2,7c0,0.7-0.1,1.4-0.2,2.1h-10.8
	c0.2,2.9,1.6,4.5,4.3,4.5c1.8,0.2,3.4-1,3.7-2.8l3.2,0.6C1272.1,547.6,1269.6,550,1265.2,550z M1265,536.1c-2.3,0-3.4,1.7-3.7,4h7.1
	C1268.5,538.2,1267.5,536.1,1265,536.1z"/>
<path class="st1" d="M1274,549.6v-2.9h2.4V528h-2.6v-2.9h6.3v21.6h2.4v2.9H1274z"/>
<path class="st1" d="M1292.2,550c-4.6,0-8-2.8-8-8.1c0-4.9,2.9-8.6,7.8-8.6c4.4,0,7.2,3,7.2,7c0,0.7-0.1,1.4-0.2,2.1h-10.8
	c0.2,2.9,1.6,4.5,4.3,4.5c1.8,0.2,3.4-1,3.7-2.8l3.2,0.6C1299,547.6,1296.5,550,1292.2,550z M1291.9,536.1c-2.3,0-3.4,1.7-3.7,4h7.1
	C1295.5,538.2,1294.4,536.1,1291.9,536.1z"/>
<path class="st1" d="M1308,550c-2.3,0-4.5-0.5-6.6-1.6l0.6-4.1l3,0.3v2.1c0.9,0.3,1.8,0.5,2.8,0.5c1.9,0,3.6-0.7,3.6-2.1
	c0-3.3-9.8-0.6-9.8-6.9c0-3.7,3.5-4.9,6.6-4.9c2,0,4.1,0.5,5.8,1.5l0.4,4l-3,0.4l-0.3-2.4c-0.9-0.4-1.8-0.5-2.8-0.5
	c-1.5,0-2.6,0.6-2.6,1.9c0,3.3,9.5,0.6,9.5,6.8C1315.3,548.2,1312.2,550,1308,550z"/>
<path class="st1" d="M1324,550c-2.3,0-4.5-0.5-6.5-1.6l0.6-4.1l3,0.3v2.1c0.9,0.3,1.8,0.5,2.8,0.5c1.9,0,3.6-0.7,3.6-2.1
	c0-3.3-9.8-0.6-9.8-6.9c0-3.7,3.4-4.9,6.6-4.9c2,0,4,0.5,5.8,1.5l0.4,4l-3,0.4l-0.3-2.4c-0.9-0.4-1.8-0.5-2.8-0.5
	c-1.5,0-2.6,0.6-2.6,1.9c0,3.3,9.5,0.6,9.5,6.8C1331.3,548.2,1328.3,550,1324,550z"/>
<path class="st1" d="M1356.2,549.6l-4.8-9.2h-3.8v5.8h2.7v3.4h-9.3v-3.4h2.7v-16.4h-2.7v-3.4h10.3c5.7,0,8.6,2.5,8.6,6.8
	c0.1,2.9-1.8,5.5-4.6,6.3l3.5,6.6h2.8v3.4L1356.2,549.6z M1350.7,529.9h-3v7.4h3c3.8,0,5.1-1.4,5.1-3.9
	C1355.7,530.8,1354.3,529.9,1350.7,529.9L1350.7,529.9z"/>
<path class="st1" d="M1370.8,550c-4.9,0-8.1-3.2-8.1-8.2c0-4.6,2.8-8.5,8.4-8.5c5.6,0,8.3,3.8,8.3,8.4
	C1379.3,546.6,1375.8,550,1370.8,550z M1370.9,536.3c-2.7,0-4.3,2.1-4.3,5.3c0,3,1.5,5.4,4.3,5.4s4.4-2.2,4.4-5.4
	C1375.3,538.1,1373.5,536.3,1370.9,536.3z"/>
<path class="st1" d="M1393.9,549.6V547c-1,1.9-3.1,3.1-5.3,3c-3.1,0-5.6-1.7-5.6-5.7v-7.7h-2.4v-2.9h6.2v9.2c0,3,1.1,4.2,3.1,4.2
	c2.2,0,4-1.8,3.9-4c0-0.1,0-0.1,0-0.2v-6.2h-2.9v-2.9h6.7v13.1h2.5v2.9L1393.9,549.6z"/>
<path class="st1" d="M1409,550c-3.4,0-5.6-1.9-5.6-5.1v-8.4h-2.4v-2.8h2.4v-5h3.8v4.9h5.9v2.8h-5.9v7.8c0,1.7,0.8,2.5,2.2,2.5
	c0.8,0,2-0.3,2.4-2.7l2.8,0.9C1414.2,548.4,1412.2,550,1409,550z"/>
<path class="st1" d="M1423.5,550c-4.6,0-8-2.8-8-8.1c0-4.9,2.9-8.6,7.8-8.6c4.4,0,7.2,3,7.2,7c0,0.7-0.1,1.4-0.2,2.1h-10.8
	c0.2,2.9,1.6,4.5,4.3,4.5c1.8,0.2,3.4-1,3.7-2.8l3.2,0.6C1430.4,547.6,1427.8,550,1423.5,550z M1423.3,536.1c-2.3,0-3.4,1.7-3.7,4
	h7.1c0.3-1.8-0.8-3.6-2.6-3.9C1423.7,536.1,1423.5,536.1,1423.3,536.1L1423.3,536.1z"/>
<path class="st1" d="M1445.4,534.3l0.7,5l-3,0.4l-0.6-2.8c-0.4-0.2-0.8-0.3-1.2-0.4c-1.4,0-2.5,1.2-2.5,3.1v7.1h3.2v2.9h-9.4v-2.9
	h2.4v-10.1h-2.5v-3h6v3c0.6-1.9,1.9-3.2,3.8-3.2C1443.4,533.4,1444.5,533.7,1445.4,534.3z"/>
<path class="st1" d="M1377.7,414.8v-74.3c0-4-3.3-7.3-7.3-7.3c-4,0-7.3,3.3-7.3,7.3v74.2h-83v-74.2c0-4-3.3-7.3-7.3-7.3
	c-4,0-7.3,3.3-7.3,7.3v74.3c-12.1,1.1-21.7,11.3-21.7,23.8v16.1c0,13.2,10.7,23.9,23.9,23.9h107.8c13.2,0,23.9-10.7,23.9-23.9v-16.1
	C1399.4,426.1,1389.8,415.9,1377.7,414.8z M1384.8,454.6c0,5.1-4.2,9.3-9.3,9.3h-107.8c-5.1,0-9.3-4.2-9.3-9.3v-16.1
	c0-5.1,4.2-9.3,9.3-9.3h107.8c5.1,0,9.3,4.2,9.3,9.3V454.6z"/>
<path class="st2" d="M1283.2,453.8h-10.4c-4,0-7.3-3.3-7.3-7.3s3.3-7.3,7.3-7.3h10.4c4,0,7.3,3.3,7.3,7.3S1287.3,453.8,1283.2,453.8
	z"/>
<path class="st2" d="M280.5,539.8c-4,0-7.3-3.3-7.3-7.3v-168c0-4,3.3-7.3,7.3-7.3s7.3,3.3,7.3,7.3v168
	C287.7,536.5,284.5,539.8,280.5,539.8z"/>
<path class="st2" d="M355.3,437.6h-45.1c-6.3,0-11.5-5.1-11.5-11.5v-45.1c0-6.3,5.1-11.5,11.5-11.5h45.1c6.3,0,11.5,5.1,11.5,11.5
	v45.1C366.7,432.5,361.6,437.6,355.3,437.6z M313.3,423h38.8v-38.8h-38.8V423z"/>
<path class="st2" d="M333.8,353.1h-22.6c-6.3,0-11.5-5.1-11.5-11.5v-22.6c0-6.3,5.1-11.5,11.5-11.5h22.6c6.3,0,11.5,5.1,11.5,11.5
	v22.6C345.2,348,340.1,353.1,333.8,353.1z M314.3,338.6h16.3v-16.3h-16.3V338.6z"/>
<path class="st1" d="M376.5,280.8H268.2c-9.4,0-17.1,7.7-17.1,17.1v250.2c0,9.4,7.7,17.1,17.1,17.1h108.3c9.4,0,17.1-7.7,17.1-17.1
	v-33.3V448v-150C393.6,288.5,385.9,280.8,376.5,280.8z M379,500.3h-17.8v-37.7H379V500.3z M346.7,448v66.9H379v33.3
	c0,1.4-1.1,2.5-2.5,2.5H268.2c-1.4,0-2.5-1.1-2.5-2.5V297.9c0-1.4,1.1-2.5,2.5-2.5h108.3c1.4,0,2.5,1.1,2.5,2.5v150H346.7z"/>
<path class="st2" d="M362.3,539.8h-60.2c-4,0-7.3-3.3-7.3-7.3c0-4,3.3-7.3,7.3-7.3h60.2c4,0,7.3,3.3,7.3,7.3
	C369.6,536.5,366.3,539.8,362.3,539.8z"/>
<path class="st2" d="M322.5,513.8c-4,0-7.3-3.3-7.3-7.3v-50.2c0-4,3.3-7.3,7.3-7.3s7.3,3.3,7.3,7.3v50.2
	C329.8,510.5,326.5,513.8,322.5,513.8z"/>
<path class="st1" d="M226,604.5v16.4h2.6v3.4h-8.9v-3.4h2.3v-11h-0.1l-6.7,12.8h-1.8l-7.1-13.1h-0.1v11.4h2.4v3.4h-8.8v-3.4h2.6
	v-16.4h-2.9v-3.4h6.3l8.6,15.8h0.1l8.1-15.8h6.3v3.4H226z"/>
<path class="st1" d="M231.1,624.3v-2.9h2.4v-10.1H231v-3h6.3v13.1h2.4v2.9H231.1z M233.3,600.8h3.9v4.2h-3.9V600.8z"/>
<path class="st1" d="M249,624.6c-4.6,0-7.7-2.8-7.7-8.1c0-5.3,3.3-8.6,8.1-8.6c2,0,4,0.5,5.7,1.5l0.6,4.5l-3.1,0.3l-0.5-2.6
	c-0.9-0.4-1.8-0.6-2.8-0.6c-2.5,0-4,1.9-4,5.3c0,3.3,1.4,5.2,4.1,5.2c2.1,0,3.2-1.2,3.6-3.6l3.2,0.6
	C255.9,621.4,253.9,624.6,249,624.6z"/>
<path class="st1" d="M270.7,608.9l0.7,5l-3,0.4l-0.6-2.8c-0.4-0.2-0.8-0.3-1.2-0.4c-1.3,0-2.5,1.2-2.5,3.1v7.1h3.2v2.9H258v-2.9h2.4
	v-10.1h-2.5v-3h6v3c0.6-1.9,1.9-3.2,3.8-3.2C268.8,608,269.8,608.4,270.7,608.9z"/>
<path class="st1" d="M281.4,624.6c-4.9,0-8.1-3.2-8.1-8.2c0-4.6,2.8-8.5,8.4-8.5c5.6,0,8.3,3.8,8.3,8.4
	C290,621.3,286.5,624.6,281.4,624.6z M281.6,610.9c-2.7,0-4.3,2.1-4.3,5.3c0,3,1.5,5.4,4.3,5.4s4.4-2.2,4.4-5.4
	C286,612.8,284.2,610.9,281.6,610.9L281.6,610.9z"/>
<path class="st1" d="M299.5,624.6c-4.6,0-7.7-2.8-7.7-8.1c0-5.3,3.3-8.6,8.1-8.6c2,0,4,0.5,5.7,1.5l0.6,4.5l-3.1,0.3l-0.5-2.6
	c-0.9-0.4-1.8-0.6-2.8-0.6c-2.5,0-4,1.9-4,5.3c0,3.3,1.4,5.2,4.1,5.2c2.1,0,3.2-1.2,3.6-3.6l3.2,0.6
	C306.4,621.4,304.4,624.6,299.5,624.6z"/>
<path class="st1" d="M316.6,624.6c-4.9,0-8.1-3.2-8.1-8.2c0-4.6,2.8-8.5,8.4-8.5c5.6,0,8.3,3.8,8.3,8.4
	C325.1,621.3,321.6,624.6,316.6,624.6z M316.7,610.9c-2.7,0-4.3,2.1-4.3,5.3c0,3,1.5,5.4,4.3,5.4c2.9,0,4.4-2.2,4.4-5.4
	C321.1,612.8,319.3,610.9,316.7,610.9L316.7,610.9z"/>
<path class="st1" d="M338,624.3v-2.9h2.4v-6.3c0-3-1.1-4.2-3.1-4.2c-2.1,0-3.9,1.7-4,3.8c0,0.1,0,0.2,0,0.2v6.4h2.4v2.9H327v-2.9
	h2.4v-10.1h-2.5v-3h6.3v2.6c1.1-1.9,3.2-3,5.3-2.9c3.1,0,5.6,1.8,5.6,5.7v7.7h2.4v2.9L338,624.3z"/>
<path class="st1" d="M355.2,624.6c-3.4,0-5.6-1.9-5.6-5.1v-8.4h-2.4v-2.8h2.4v-5h3.8v5h5.9v2.8h-5.9v7.8c0,1.7,0.8,2.5,2.2,2.5
	c0.8,0,2-0.3,2.4-2.8l2.8,0.9C360.4,623,358.4,624.6,355.2,624.6z"/>
<path class="st1" d="M374.5,608.9l0.7,5l-3,0.4l-0.6-2.8c-0.4-0.2-0.8-0.3-1.2-0.4c-1.3,0-2.5,1.2-2.5,3.1v7.1h3.2v2.9h-9.4v-2.9
	h2.4v-10.1h-2.5v-3h6v3c0.6-1.9,1.9-3.2,3.8-3.2C372.6,608,373.6,608.3,374.5,608.9z"/>
<path class="st1" d="M385.2,624.6c-4.9,0-8.1-3.2-8.1-8.2c0-4.6,2.8-8.5,8.4-8.5c5.6,0,8.3,3.8,8.3,8.4
	C393.7,621.3,390.2,624.6,385.2,624.6z M385.3,610.9c-2.7,0-4.3,2.1-4.3,5.3c0,3,1.5,5.4,4.3,5.4c2.9,0,4.4-2.2,4.4-5.4
	C389.7,612.8,387.9,610.9,385.3,610.9L385.3,610.9z"/>
<path class="st1" d="M395.3,624.3v-2.9h2.4v-18.7h-2.5v-2.9h6.3v21.6h2.4v2.9L395.3,624.3z"/>
<path class="st1" d="M405.2,624.3v-2.9h2.4v-18.7h-2.5v-2.9h6.3v21.6h2.4v2.9L405.2,624.3z"/>
<path class="st1" d="M423.4,624.6c-4.6,0-8-2.8-8-8.1c0-4.9,2.9-8.6,7.8-8.6c4.4,0,7.2,3,7.2,7c0,0.7-0.1,1.4-0.2,2.1h-10.8
	c0.2,2.9,1.6,4.5,4.3,4.5c1.8,0.2,3.4-1,3.7-2.8l3.2,0.6C430.3,622.2,427.7,624.6,423.4,624.6z M423.1,610.8c-2.3,0-3.4,1.7-3.7,4h7
	c0.4-1.8-0.8-3.5-2.6-3.9C423.6,610.8,423.4,610.8,423.1,610.8z"/>
<path class="st1" d="M445.3,608.9l0.7,5l-3,0.4l-0.6-2.8c-0.4-0.2-0.8-0.3-1.2-0.4c-1.3,0-2.5,1.2-2.5,3.1v7.1h3.2v2.9h-9.4v-2.9
	h2.4v-10.1h-2.5v-3h6v3c0.6-1.9,1.9-3.2,3.8-3.2C443.3,608,444.4,608.3,445.3,608.9z"/>
<path class="st1" d="M634.1,361.5H509.5c-12,0-21.7-9.7-21.7-21.7V215.2c0-12,9.7-21.7,21.7-21.7h124.6c12,0,21.7,9.7,21.7,21.7
	v124.6C655.8,351.8,646,361.5,634.1,361.5z M509.5,208.1c-3.9,0-7.1,3.2-7.1,7.1v124.6c0,3.9,3.2,7.1,7.1,7.1h124.6
	c3.9,0,7.1-3.2,7.1-7.1V215.2c0-3.9-3.2-7.1-7.1-7.1H509.5z"/>
<path class="st1" d="M584.5,336.7c-25.6,0-46.4-20.8-46.4-46.4c0-25.6,20.8-46.4,46.4-46.4c25.6,0,46.4,20.8,46.4,46.4
	C630.9,315.9,610.1,336.7,584.5,336.7z M584.5,256.7c-18.5,0-33.5,15-33.5,33.5c0,18.5,15,33.5,33.5,33.5c18.5,0,33.5-15,33.5-33.5
	C618,271.8,603,256.7,584.5,256.7z"/>
<path class="st2" d="M584.5,308.8c-10.5,0-19-8.5-19-19c0-10.5,8.5-19,19-19c10.5,0,19,8.5,19,19C603.5,300.2,595,308.8,584.5,308.8
	z M584.5,285.3c-2.5,0-4.5,2-4.5,4.5c0,2.5,2,4.5,4.5,4.5c2.5,0,4.5-2,4.5-4.5C589,287.3,587,285.3,584.5,285.3z"/>
<path class="st2" d="M540.3,255.3H521c-5.1,0-9.2-4.1-9.2-9.2v-19.4c0-5.1,4.1-9.2,9.2-9.2h19.4c5.1,0,9.2,4.1,9.2,9.2v19.4
	C549.5,251.2,545.4,255.3,540.3,255.3z M526.4,240.7h8.6v-8.6h-8.6V240.7z M540.3,232.1L540.3,232.1L540.3,232.1z"/>
<path class="st2" d="M621.3,231.9h-52.7c-4,0-7.3-3.3-7.3-7.3s3.3-7.3,7.3-7.3h52.7c4,0,7.3,3.3,7.3,7.3S625.3,231.9,621.3,231.9z"
	/>
<path class="st2" d="M519.1,334.3c-4,0-7.3-3.3-7.3-7.3v-52.7c0-4,3.3-7.3,7.3-7.3c4,0,7.3,3.3,7.3,7.3V327
	C526.4,331.1,523.1,334.3,519.1,334.3z"/>
<path class="st1" d="M523.6,406c-3.1,0-6.3-0.8-8-2.2l0.6-5.3l3.2,0.3l-0.1,2.9c1.2,0.6,2.6,1,4,0.9c2.8,0,4.8-0.6,4.8-3.3
	c0-2.9-2.5-3.5-5.2-4c-3.3-0.6-7.2-1.5-7.2-6.3c0-4.8,3.9-6.8,8-6.8c2.9,0,5.8,0.9,7.3,2.3l0.2,4.9l-3.2,0.3l-0.3-3
	c-1.2-0.7-2.5-1-3.9-1c-2.2,0-3.9,0.9-3.9,2.8c0,2.3,2.2,2.9,4.5,3.4c2.9,0.6,7.9,1.3,7.9,7C532.4,403.5,528.9,406,523.6,406z"/>
<path class="st1" d="M542.6,406c-4.6,0-8-2.8-8-8.1c0-4.9,2.9-8.6,7.8-8.6c4.4,0,7.2,3,7.2,7c0,0.7-0.1,1.4-0.2,2.1h-10.8
	c0.2,2.9,1.6,4.5,4.3,4.5c1.8,0.2,3.4-1,3.7-2.8l3.2,0.6C549.5,403.6,546.9,406,542.6,406z M542.4,392.2c-2.3,0-3.4,1.7-3.7,4h7.1
	C545.9,394.3,544.9,392.2,542.4,392.2L542.4,392.2z"/>
<path class="st1" d="M562.6,405.7v-2.9h2.4v-6.3c0-3-1.1-4.2-3.1-4.2c-2.1,0-3.9,1.7-4,3.8c0,0.1,0,0.2,0,0.3v6.4h2.4v2.9h-8.6v-2.9
	h2.4v-10.1h-2.5v-3h6.3v2.6c1.1-1.9,3.1-3,5.3-2.9c3.1,0,5.6,1.8,5.6,5.7v7.7h2.4v2.9L562.6,405.7z"/>
<path class="st1" d="M579.3,406c-2.3,0-4.5-0.5-6.5-1.6l0.6-4.1l3,0.3v2.1c0.9,0.3,1.8,0.5,2.8,0.5c1.9,0,3.6-0.7,3.6-2.1
	c0-3.3-9.8-0.6-9.8-6.9c0-3.7,3.5-4.9,6.6-4.9c2,0,4,0.5,5.8,1.5l0.4,4l-3,0.4l-0.3-2.4c-0.9-0.3-1.8-0.5-2.8-0.5
	c-1.5,0-2.6,0.6-2.6,1.9c0,3.3,9.5,0.6,9.5,6.8C586.6,404.3,583.5,406,579.3,406z"/>
<path class="st1" d="M596.7,406c-4.9,0-8.1-3.2-8.1-8.2c0-4.6,2.8-8.5,8.4-8.5c5.6,0,8.3,3.8,8.3,8.4
	C605.2,402.7,601.7,406,596.7,406z M596.8,392.3c-2.7,0-4.3,2.1-4.3,5.3c0,3,1.5,5.4,4.3,5.4s4.4-2.2,4.4-5.4
	C601.3,394.2,599.4,392.3,596.8,392.3L596.8,392.3z"/>
<path class="st1" d="M619.9,390.3l0.7,5l-3,0.4l-0.6-2.7c-0.4-0.2-0.8-0.3-1.2-0.4c-1.3,0-2.5,1.2-2.5,3.1v7.1h3.2v2.9h-9.4v-2.9
	h2.4v-10.1h-2.5v-3h6v3c0.6-1.9,1.9-3.2,3.8-3.2C618,389.4,619,389.8,619.9,390.3z"/>
<path class="st1" d="M940.9,550c-3.1,0-6.3-0.8-8-2.2l0.6-5.3l3.2,0.3l-0.1,2.9c1.2,0.7,2.6,1,4,0.9c2.8,0,4.8-0.6,4.8-3.3
	c0-2.9-2.5-3.5-5.2-4c-3.3-0.6-7.2-1.5-7.2-6.3s3.9-6.8,8-6.8c2.9,0,5.8,0.9,7.3,2.3l0.2,4.9l-3.2,0.3l-0.3-3c-1.2-0.7-2.5-1-3.9-1
	c-2.2,0-3.9,0.9-3.9,2.8c0,2.3,2.2,2.9,4.5,3.4c2.9,0.6,7.9,1.3,7.9,7C949.7,547.5,946.2,550,940.9,550z"/>
<path class="st1" d="M974.6,549.6v-2.9h0.9v-6.3c0-3-1.1-4.2-3.1-4.2c-2.5,0-3.6,2-3.7,4.2v6.2h2.4v2.9h-7.1v-2.9h0.9v-6.3
	c0-3-1.1-4.2-3-4.2c-2.5,0-3.6,2-3.7,4.2v6.3h3v2.9H952v-2.9h2.4v-10.1H952v-3h6.2v2.6c1-1.9,2.9-3,5-3c2.4-0.2,4.5,1.3,5.2,3.6
	c0.8-2.2,3-3.7,5.4-3.6c2.9,0,5.4,1.8,5.4,5.7v7.7h2.4v2.9L974.6,549.6z"/>
<path class="st1" d="M991,533.3c3.6,0,6.1,1.8,6.1,5.4v7.2c0,1,0.4,1.4,1.2,1.4c0.3,0,0.6-0.1,0.8-0.1v2.1c-0.8,0.4-1.7,0.7-2.6,0.7
	c-1.7,0.1-3.2-1.2-3.3-2.9c0-0.1,0-0.2,0-0.3v-0.1c-1,2-3,3.2-5.2,3.2c-2.2,0-4.9-1.2-4.9-4.6c0-4,3.8-4.9,7.4-4.9
	c0.9,0,1.8,0,2.7,0.1v-0.9c0-1.9-0.3-3.7-3-3.7c-0.9,0-1.8,0.1-2.7,0.5l-0.6,2.5l-3.1-0.3l0.7-4C986.6,533.7,988.8,533.2,991,533.3z
	 M993.3,542.7c-0.8-0.1-1.7-0.2-2.6-0.2c-1.9,0-3.7,0.5-3.7,2.5c-0.1,1.1,0.8,2.1,1.9,2.2c0.1,0,0.2,0,0.4,0c2.1,0,3.9-1.7,3.9-3.9
	L993.3,542.7z"/>
<path class="st1" d="M1013.5,534.3l0.7,5l-3,0.4l-0.6-2.8c-0.4-0.2-0.8-0.3-1.2-0.4c-1.4,0-2.5,1.2-2.5,3.1v7.1h3.2v2.9h-9.4v-2.9
	h2.4v-10.1h-2.5v-3h6v3c0.6-1.9,1.8-3.2,3.8-3.2C1011.6,533.4,1012.6,533.7,1013.5,534.3z"/>
<path class="st1" d="M1023.5,550c-3.4,0-5.6-1.9-5.6-5.1v-8.4h-2.4v-2.8h2.4v-5h3.8v4.9h6v2.8h-6v7.8c0,1.7,0.8,2.5,2.2,2.5
	c0.8,0,2-0.3,2.4-2.7l2.8,0.9C1028.6,548.4,1026.6,550,1023.5,550z"/>
<path class="st1" d="M1052.5,549.6v-3.4h2.7v-6.7h-11v6.7h2.6v3.4h-9.3v-3.4h2.7v-16.4h-2.7v-3.4h9.3v3.4h-2.6v6.3h10.9v-6.3h-2.7
	v-3.4h9.3v3.4h-2.7v16.4h2.6v3.4L1052.5,549.6z"/>
<path class="st1" d="M1071.6,550c-4.9,0-8.1-3.2-8.1-8.2c0-4.6,2.8-8.5,8.4-8.5s8.3,3.8,8.3,8.4C1080.1,546.6,1076.6,550,1071.6,550
	z M1071.7,536.3c-2.7,0-4.3,2.1-4.3,5.3c0,3,1.5,5.4,4.3,5.4c2.8,0,4.4-2.2,4.4-5.4C1076.1,538.1,1074.3,536.3,1071.7,536.3
	L1071.7,536.3z"/>
<path class="st1" d="M1104.6,549.6v-2.9h0.9v-6.3c0-3-1.1-4.2-3.1-4.2c-2.5,0-3.6,2-3.7,4.2v6.2h2.4v2.9h-7.1v-2.9h0.9v-6.3
	c0-3-1.1-4.2-3-4.2c-2.5,0-3.6,2-3.7,4.2v6.3h3v2.9h-9.2v-2.9h2.4v-10.1h-2.4v-3h6.2v2.6c1-1.9,2.9-3,5-3c2.4-0.2,4.5,1.3,5.2,3.6
	c0.8-2.2,3-3.7,5.4-3.6c2.9,0,5.5,1.8,5.5,5.7v7.7h2.4v2.9L1104.6,549.6z"/>
<path class="st1" d="M1121,550c-4.6,0-8-2.8-8-8.1c0-4.9,2.9-8.6,7.8-8.6c4.4,0,7.2,3,7.2,7c0,0.7-0.1,1.4-0.2,2.1H1117
	c0.2,2.9,1.6,4.5,4.3,4.5c1.8,0.2,3.4-1,3.7-2.8l3.2,0.6C1127.9,547.6,1125.3,550,1121,550z M1120.7,536.1c-2.3,0-3.4,1.7-3.7,4h7.1
	C1124.3,538.2,1123.2,536.1,1120.7,536.1L1120.7,536.1z"/>
<path class="st1" d="M971,592.4V589h2.4l-1.2-3.2h-8.7l-1.2,3.2h2.6v3.4h-8.8V589h2.1l7-16.3h-3.4v-3.4h7.4l8.4,19.8h2.2v3.4
	L971,592.4z M968.1,574.9h-0.2l-3.2,8.1h6.5L968.1,574.9z"/>
<path class="st1" d="M987.5,592.7c-2.3,0-4.5-0.5-6.5-1.6l0.6-4.1l3,0.3v2.1c0.9,0.3,1.8,0.5,2.8,0.5c1.9,0,3.6-0.7,3.6-2.1
	c0-3.3-9.8-0.6-9.8-6.9c0-3.7,3.5-4.9,6.6-4.9c2,0,4,0.5,5.8,1.5l0.4,4l-3,0.4l-0.3-2.4c-0.9-0.3-1.8-0.5-2.8-0.5
	c-1.5,0-2.6,0.6-2.6,1.9c0,3.3,9.5,0.6,9.5,6.8C994.8,591,991.8,592.7,987.5,592.7z"/>
<path class="st1" d="M1003.6,592.7c-2.3,0-4.5-0.5-6.5-1.6l0.6-4.1l3,0.3v2.1c0.9,0.3,1.8,0.5,2.8,0.5c1.9,0,3.6-0.7,3.6-2.1
	c0-3.3-9.8-0.6-9.8-6.9c0-3.7,3.5-4.9,6.6-4.9c2,0,4.1,0.5,5.8,1.5l0.4,4l-3,0.4l-0.3-2.4c-0.9-0.3-1.8-0.5-2.8-0.5
	c-1.5,0-2.6,0.6-2.6,1.9c0,3.3,9.5,0.6,9.5,6.8C1010.9,591,1007.9,592.7,1003.6,592.7z"/>
<path class="st1" d="M1013.1,592.4v-2.9h2.4v-10.1h-2.5v-3h6.3v13.1h2.4v2.9L1013.1,592.4z M1015.3,568.9h3.9v4.2h-3.9V568.9z"/>
<path class="st1" d="M1030.1,592.7c-2.3,0-4.5-0.5-6.5-1.6l0.6-4.1l3,0.3v2.1c0.9,0.3,1.8,0.5,2.8,0.5c1.9,0,3.6-0.7,3.6-2.1
	c0-3.3-9.8-0.6-9.8-6.9c0-3.7,3.4-4.9,6.6-4.9c2,0,4,0.5,5.8,1.5l0.4,4l-3,0.4l-0.3-2.4c-0.9-0.3-1.8-0.5-2.8-0.5
	c-1.5,0-2.6,0.6-2.6,1.9c0,3.3,9.5,0.6,9.5,6.8C1037.4,591,1034.3,592.7,1030.1,592.7z"/>
<path class="st1" d="M1046.7,592.7c-3.4,0-5.6-1.9-5.6-5.1v-8.4h-2.4v-2.8h2.4v-5h3.8v4.9h5.9v2.8h-5.9v7.8c0,1.7,0.8,2.5,2.2,2.5
	c0.8,0,2-0.3,2.4-2.7l2.8,0.9C1051.9,591.2,1049.9,592.7,1046.7,592.7z"/>
<path class="st1" d="M1061.2,576.1c3.6,0,6.1,1.8,6.1,5.4v7.2c0,1,0.4,1.4,1.2,1.4c0.3,0,0.6-0.1,0.8-0.1v2.1
	c-0.8,0.4-1.7,0.7-2.6,0.7c-1.7,0.1-3.2-1.2-3.3-2.9c0-0.1,0-0.2,0-0.3v-0.1c-1,2-3,3.2-5.2,3.2c-2.2,0-4.9-1.2-4.9-4.6
	c0-4,3.8-4.9,7.4-4.9c0.9,0,1.8,0,2.7,0.1v-0.9c0-1.9-0.3-3.7-3-3.7c-0.9,0-1.8,0.1-2.7,0.5l-0.6,2.5l-3.1-0.3l0.7-4
	C1056.8,576.5,1059,576,1061.2,576.1z M1063.5,585.5c-0.8-0.1-1.7-0.2-2.6-0.2c-1.9,0-3.7,0.5-3.7,2.5c-0.1,1.1,0.8,2.1,1.9,2.2
	c0.1,0,0.3,0,0.4,0c2.1,0,3.9-1.7,3.9-3.9L1063.5,585.5z"/>
<path class="st1" d="M1081.9,592.4v-2.9h2.4v-6.3c0-3-1.1-4.2-3.1-4.2c-2.2,0-3.9,1.7-4,3.8c0,0.1,0,0.2,0,0.2v6.4h2.4v2.9h-8.6
	v-2.9h2.4v-10.1h-2.5v-3h6.3v2.6c1.1-1.9,3.1-3,5.3-2.9c3.1,0,5.6,1.8,5.6,5.7v7.7h2.4v2.9L1081.9,592.4z"/>
<path class="st1" d="M1099.1,592.7c-3.4,0-5.6-1.9-5.6-5.1v-8.4h-2.4v-2.8h2.4v-5h3.8v4.9h5.9v2.8h-5.9v7.8c0,1.7,0.8,2.5,2.2,2.5
	c0.8,0,2-0.3,2.4-2.7l2.8,0.9C1104.3,591.2,1102.3,592.7,1099.1,592.7z"/>
<path class="st1" d="M541.8,619.2l-6.3,19.8h-2.9l-5.7-16.3h-0.2l-5.5,16.3h-3l-6.7-19.8h-2v-3.4h8.8v3.4h-2.6l4,13.3h0.2l4.6-13.3
	h-2v-3.4h8.8v3.4h-1.9l4.6,13.4h0.2l3.6-13.4h-2.9v-3.4h8.7v3.4H541.8z"/>
<path class="st1" d="M544.4,639v-2.9h2.4V626h-2.5v-3h6.3v13.1h2.4v2.9L544.4,639z M546.5,615.5h3.9v4.2h-3.9V615.5z"/>
<path class="st1" d="M567.4,623.7l0.7,5l-3,0.4l-0.6-2.8c-0.4-0.2-0.8-0.3-1.2-0.4c-1.4,0-2.5,1.2-2.5,3.1v7.1h3.2v2.9h-9.4v-2.9
	h2.4V626h-2.5v-3h6v3c0.6-1.9,1.8-3.2,3.8-3.2C565.4,622.8,566.5,623.1,567.4,623.7z"/>
<path class="st1" d="M578,639.4c-4.6,0-8-2.8-8-8.1c0-4.9,2.9-8.6,7.8-8.6c4.4,0,7.2,3,7.2,7c0,0.7-0.1,1.4-0.2,2.1H574
	c0.2,2.9,1.6,4.5,4.3,4.5c1.8,0.2,3.4-1,3.7-2.8l3.2,0.6C584.8,637,582.3,639.4,578,639.4z M577.7,625.5c-2.3,0-3.4,1.7-3.7,4h7.1
	C581.2,627.6,580.2,625.5,577.7,625.5L577.7,625.5z"/>
<path class="st1" d="M586.7,639v-2.9h2.4v-18.7h-2.5v-2.9h6.3v21.6h2.4v2.9H586.7z"/>
<path class="st1" d="M604.9,639.4c-4.6,0-8-2.8-8-8.1c0-4.9,2.9-8.6,7.8-8.6c4.4,0,7.2,3,7.2,7c0,0.7-0.1,1.4-0.2,2.1h-10.8
	c0.2,2.9,1.6,4.5,4.3,4.5c1.8,0.2,3.4-1,3.7-2.8l3.2,0.6C611.8,637,609.2,639.4,604.9,639.4z M604.6,625.5c-2.3,0-3.4,1.7-3.7,4h7.1
	C608.2,627.6,607.2,625.5,604.6,625.5z"/>
<path class="st1" d="M620.7,639.4c-2.3,0-4.5-0.5-6.6-1.6l0.6-4.1l3,0.3v2.1c0.9,0.3,1.8,0.5,2.8,0.5c1.9,0,3.6-0.7,3.6-2.1
	c0-3.4-9.8-0.6-9.8-6.9c0-3.7,3.5-4.8,6.6-4.8c2,0,4.1,0.5,5.8,1.5l0.4,4l-3,0.4l-0.3-2.4c-0.9-0.3-1.8-0.5-2.8-0.5
	c-1.5,0-2.6,0.6-2.6,1.9c0,3.3,9.6,0.6,9.6,6.8C628,637.6,624.9,639.4,620.7,639.4z"/>
<path class="st1" d="M636.8,639.4c-2.3,0-4.5-0.5-6.5-1.6l0.6-4.1l3,0.3v2.1c0.9,0.3,1.8,0.5,2.8,0.5c1.9,0,3.6-0.7,3.6-2.1
	c0-3.4-9.8-0.6-9.8-6.9c0-3.7,3.4-4.8,6.6-4.8c2,0,4,0.5,5.8,1.5l0.4,4l-3,0.4l-0.3-2.4c-0.9-0.3-1.8-0.5-2.8-0.5
	c-1.5,0-2.6,0.6-2.6,1.9c0,3.3,9.5,0.6,9.5,6.8C644,637.6,641,639.4,636.8,639.4z"/>
<path class="st1" d="M680,619.2v16.4h2.6v3.4h-8.9v-3.4h2.3v-11.1h-0.1l-6.7,12.8h-1.8l-7.1-13.2h-0.1v11.4h2.4v3.4h-8.8v-3.4h2.6
	v-16.4h-2.9v-3.4h6.3l8.6,15.8h0.1l8.1-15.8h6.3v3.4H680z"/>
<path class="st1" d="M692.5,639.4c-4.9,0-8.1-3.2-8.1-8.2c0-4.6,2.8-8.5,8.4-8.5s8.3,3.8,8.3,8.4C701,636,697.5,639.4,692.5,639.4z
	 M692.6,625.7c-2.7,0-4.3,2.1-4.3,5.3c0,3,1.5,5.4,4.3,5.4s4.4-2.2,4.4-5.5C697,627.5,695.2,625.7,692.6,625.7L692.6,625.7z"/>
<path class="st1" d="M715.3,639V636c-1,2.2-3.2,3.5-5.6,3.4c-4.2,0-6.8-3-6.8-8c0-4.6,2.2-8.7,7.2-8.7c2.1-0.1,4.1,0.9,5.2,2.8v-8.1
	h-3.5v-2.9h7.3v21.6h2.4v2.9H715.3z M715.3,630.1c0.1-2.3-1.6-4.2-3.8-4.3c-0.1,0-0.2,0-0.3,0c-2.6,0-4.3,2.1-4.3,5.4
	s1.9,5.2,4.1,5.2c2.6,0,4.3-2.6,4.4-5V630.1z"/>
<path class="st1" d="M735.6,639v-2.7c-1,1.9-3.1,3.1-5.3,3c-3.1,0-5.6-1.7-5.6-5.7v-7.7h-2.4V623h6.2v9.2c0,3,1.1,4.2,3.1,4.2
	c2.4,0,3.9-1.9,3.9-4.2v-6.2h-2.9V623h6.7v13.1h2.5v2.9H735.6z"/>
<path class="st1" d="M743.1,639v-2.9h2.4v-18.7H743v-2.9h6.3v21.6h2.4v2.9H743.1z"/>
<path class="st1" d="M761.3,639.4c-4.6,0-8-2.8-8-8.1c0-4.9,2.9-8.6,7.8-8.6c4.4,0,7.2,3,7.2,7c0,0.7-0.1,1.4-0.2,2.1h-10.8
	c0.2,2.9,1.6,4.5,4.3,4.5c1.8,0.2,3.4-1,3.7-2.8l3.2,0.6C768.2,637,765.6,639.4,761.3,639.4z M761,625.5c-2.3,0-3.4,1.7-3.7,4h7
	C764.6,627.6,763.6,625.5,761,625.5z"/>
<path class="st1" d="M771.3,495.2L771.3,495.2l0-221.2c0-4-3.3-7.3-7.3-7.3c-4,0-7.3,3.3-7.3,7.3v221.2h-13.2v-0.8
	c0-12-9.7-21.7-21.7-21.7H582.6c-12,0-21.7,9.7-21.7,21.7v66c0,12,9.7,21.7,21.7,21.7h139.3c12,0,21.7-9.7,21.7-21.7v-0.1h19.9
	c0.1,0,0.2,0,0.3,0c0.1,0,0.2,0,0.3,0c4,0,7.3-3.3,7.3-7.3v-0.4c0-0.1,0-0.1,0-0.2V495.2z M729,560.4c0,3.9-3.2,7.1-7.1,7.1H582.6
	c-3.9,0-7.1-3.2-7.1-7.1v-66c0-3.9,3.2-7.1,7.1-7.1h139.3c3.9,0,7.1,3.2,7.1,7.1v0.8v65.1V560.4z M743.6,509.8h13.2v35.9h-13.2
	V509.8z"/>
<path class="st2" d="M631.1,551.4H603c-5.4,0-9.9-4.4-9.9-9.9v-28.1c0-5.4,4.4-9.9,9.9-9.9h28.1c5.4,0,9.9,4.4,9.9,9.9v28.1
	C641,546.9,636.5,551.4,631.1,551.4z M607.7,536.8h18.7v-18.7h-18.7V536.8z"/>
<path class="st2" d="M668.4,559.8c-4,0-7.3-3.3-7.3-7.3v-50.2c0-4,3.3-7.3,7.3-7.3c4,0,7.3,3.3,7.3,7.3v50.2
	C675.7,556.6,672.4,559.8,668.4,559.8z"/>
<path class="st2" d="M700.4,559.8c-4,0-7.3-3.3-7.3-7.3v-50.2c0-4,3.3-7.3,7.3-7.3c4,0,7.3,3.3,7.3,7.3v50.2
	C707.6,556.6,704.4,559.8,700.4,559.8z"/>
<path class="st3" d="M493.5,818.9c-53.6,0-105.6-10.5-154.5-31.2c-47.3-20-89.7-48.6-126.2-85.1c-36.5-36.5-65.1-78.9-85.1-126.2
	C107,527.5,96.5,475.5,96.5,422s10.5-105.6,31.2-154.5c20-47.3,48.6-89.7,85.1-126.2s78.9-65.1,126.2-85.1
	C387.9,35.5,439.9,25,493.5,25C547.1,25,599,35.5,648,56.2c47.3,20,89.7,48.6,126.2,85.1c36.5,36.5,65.1,78.9,85.1,126.2
	c20.7,48.9,31.2,100.9,31.2,154.5S880,527.5,859.3,576.5c-20,47.3-48.6,89.7-85.1,126.2c-36.5,36.5-78.9,65.1-126.2,85.1
	C599,808.4,547.1,818.9,493.5,818.9z M493.5,39.8c-51.6,0-101.6,10.1-148.8,30c-45.5,19.2-86.4,46.8-121.5,81.9s-62.7,76-81.9,121.5
	c-19.9,47.1-30,97.2-30,148.8c0,51.6,10.1,101.6,30,148.8c19.2,45.5,46.8,86.4,81.9,121.5c35.1,35.1,76,62.7,121.5,81.9
	c47.1,19.9,97.2,30,148.8,30c51.6,0,101.6-10.1,148.8-30c45.5-19.2,86.4-46.8,121.5-81.9c35.1-35.1,62.7-76,81.9-121.5
	c19.9-47.1,30-97.2,30-148.8c0-51.6-10.1-101.6-30-148.8c-19.2-45.5-46.8-86.4-81.9-121.5s-76-62.7-121.5-81.9
	C595.1,49.9,545.1,39.8,493.5,39.8z"/>
<path class="st4" d="M1082.4,222.1H978.4c-7.9,0-14.2,6.4-14.2,14.2v241c0,7.9,6.4,14.2,14.2,14.2h104.1c7.9,0,14.2-6.4,14.2-14.2
	v-241C1096.7,228.5,1090.3,222.1,1082.4,222.1z M1082.1,236.7v189.9H978.7V236.7H1082.1z M978.7,477v-35.8h103.3V477H978.7z"/>
<path class="st3" d="M1030.4,364.3c-21.2,0-38.5-17.3-38.5-38.5c0-21.2,17.3-38.5,38.5-38.5c21.2,0,38.5,17.3,38.5,38.5
	C1068.9,347,1051.6,364.3,1030.4,364.3z M1030.4,301.9c-13.2,0-23.9,10.7-23.9,23.9s10.7,23.9,23.9,23.9c13.2,0,23.9-10.7,23.9-23.9
	S1043.6,301.9,1030.4,301.9z"/>
</svg>
