<?xml version="1.0" encoding="utf-8"?>
<!-- Generator: Adobe Illustrator 23.0.2, SVG Export Plug-In . SVG Version: 6.00 Build 0)  -->
<svg version="1.1" id="Module_6_Steamlink_Setup" xmlns="http://www.w3.org/2000/svg" xmlns:xlink="http://www.w3.org/1999/xlink"
	 x="0px" y="0px" viewBox="0 0 1920 624.9" style="enable-background:new 0 0 1920 624.9;" xml:space="preserve">
<style type="text/css">
	.st0{fill:#FFCD50;}
	.st1{fill:#BDCADA;}
	.st2{fill:#3EB1CF;}
	.st3{fill:#BCC9DA;}
</style>
<title>steamlink</title>
<path class="st0" d="M659.8,191.9c-1.1,0-2.3-0.3-3.4-0.8l-16.9-8.5c-3.7-1.9-5.2-6.4-3.3-10.1c1.9-3.7,6.4-5.2,10.1-3.3l16.9,8.5
	c3.7,1.9,5.2,6.4,3.3,10.1C665.2,190.4,662.6,191.9,659.8,191.9z M598.3,160.9c-1.1,0-2.3-0.3-3.4-0.8l-22.3-11.3
	c-3.7-1.9-5.2-6.4-3.3-10.1c1.9-3.7,6.4-5.2,10.1-3.3l22.3,11.3c3.7,1.9,5.2,6.4,3.3,10.1C603.7,159.4,601,160.9,598.3,160.9z
	 M531.3,127.2c-1.1,0-2.3-0.3-3.4-0.8l-22.3-11.3c-3.7-1.9-5.2-6.4-3.3-10.1c1.9-3.7,6.4-5.2,10.1-3.3l22.3,11.3
	c3.7,1.9,5.2,6.4,3.3,10.1C536.7,125.6,534.1,127.2,531.3,127.2z M464.3,93.4c-1.1,0-2.3-0.3-3.4-0.8l-22.3-11.3
	c-3.7-1.9-5.2-6.4-3.3-10.1c1.9-3.7,6.4-5.2,10.1-3.3l22.3,11.3c3.7,1.9,5.2,6.4,3.3,10.1C469.7,91.9,467.1,93.4,464.3,93.4z
	 M397.4,59.6c-1.1,0-2.3-0.3-3.4-0.8l-22.3-11.3c-3.7-1.9-5.2-6.4-3.3-10.1s6.4-5.2,10.1-3.3l22.3,11.3c3.7,1.9,5.2,6.4,3.3,10.1
	C402.8,58.1,400.1,59.6,397.4,59.6z"/>
<path class="st0" d="M1174.2,452.5h-109.8c-4.1,0-7.5-3.4-7.5-7.5s3.4-7.5,7.5-7.5h109.8c15.4,0,27.9-12.5,27.9-27.9
	c0-23.7,19.2-42.9,42.9-42.9h40.8c4.1,0,7.5,3.4,7.5,7.5s-3.4,7.5-7.5,7.5H1245c-15.4,0-27.9,12.5-27.9,27.9
	C1217.1,433.3,1197.9,452.5,1174.2,452.5z"/>
<path class="st0" d="M375.1,337.9c-2.7,0-5.4-1.5-6.7-4.1c-1.9-3.7-0.4-8.2,3.3-10.1l22.2-11.4c3.7-1.9,8.2-0.4,10.1,3.3
	c1.9,3.7,0.4,8.2-3.3,10.1L378.5,337C377.4,337.6,376.2,337.9,375.1,337.9z M441.8,303.7c-2.7,0-5.4-1.5-6.7-4.1
	c-1.9-3.7-0.4-8.2,3.3-10.1l22.2-11.4c3.7-1.9,8.2-0.4,10.1,3.3c1.9,3.7,0.4,8.2-3.3,10.1l-22.2,11.4
	C444.1,303.4,443,303.7,441.8,303.7z M508.5,269.5c-2.7,0-5.4-1.5-6.7-4.1c-1.9-3.7-0.4-8.2,3.3-10.1l22.2-11.4
	c3.7-1.9,8.2-0.4,10.1,3.3c1.9,3.7,0.4,8.2-3.3,10.1L512,268.6C510.9,269.2,509.7,269.5,508.5,269.5z M575.3,235.2
	c-2.7,0-5.4-1.5-6.7-4.1c-1.9-3.7-0.4-8.2,3.3-10.1l22.2-11.4c3.7-1.9,8.2-0.4,10.1,3.3c1.9,3.7,0.4,8.2-3.3,10.1l-22.2,11.4
	C577.6,235,576.4,235.2,575.3,235.2z M642,201c-2.7,0-5.4-1.5-6.7-4.1c-1.9-3.7-0.4-8.2,3.3-10.1l17.8-9.1c3.7-1.9,8.2-0.4,10.1,3.3
	c1.9,3.7,0.4,8.2-3.3,10.1l-17.8,9.1C644.4,200.8,643.2,201,642,201z"/>
<path class="st0" d="M924.8,452.5H684.2c-15.5,0-28.1-12.6-28.1-28.1v-67.7c0-4.1,3.4-7.5,7.5-7.5s7.5,3.4,7.5,7.5v67.7
	c0,7.2,5.9,13.1,13.1,13.1h240.6c4.1,0,7.5,3.4,7.5,7.5S929,452.5,924.8,452.5z"/>
<path class="st1" d="M760.2,497.3l-85.5-314.9c-1.1-3.9-4.2-7-8.1-8.1c-3-0.8-6.1-0.4-8.7,1.1c-2.7,1.5-4.6,4-5.4,7l-85.4,314.9
	c0,0,0,0,0,0c-0.1,0.5-0.2,1-0.2,1.5c0,0.2,0,0.4,0,0.7c0,0,0,0,0,0.1c0,0.2,0,0.5,0.1,0.7c0,0,0,0,0,0c0,0.2,0.1,0.4,0.1,0.6
	c0,0,0,0.1,0,0.1c0,0.2,0.1,0.3,0.1,0.5c0,0.1,0,0.2,0.1,0.2c0,0.1,0.1,0.2,0.1,0.3c0,0.1,0.1,0.2,0.1,0.4c0,0.1,0.1,0.1,0.1,0.2
	c0.1,0.2,0.2,0.3,0.2,0.5c0,0,0,0,0,0.1c0.4,0.6,0.8,1.2,1.3,1.7c0.4,0.3,0.7,0.6,1.2,0.9c0,0,0,0,0,0c0,0,0,0,0,0
	c0.3,0.2,0.5,0.3,0.8,0.4c0.1,0,0.2,0.1,0.2,0.1c0.2,0.1,0.5,0.2,0.7,0.3c0.1,0,0.1,0.1,0.2,0.1c0,0,0,0,0,0
	c0.3,0.1,0.6,0.1,0.9,0.2c0.1,0,0.2,0,0.2,0c0.2,0,0.5,0,0.7,0c0,0,0.1,0,0.1,0c0,0,0.1,0,0.1,0c0.3,0,0.6,0,0.8-0.1c0,0,0,0,0,0
	c0.3,0,0.6-0.1,0.9-0.2c0,0,0.1,0,0.1,0c0.2-0.1,0.5-0.1,0.7-0.2c0.1,0,0.1-0.1,0.2-0.1c0.2-0.1,0.4-0.2,0.6-0.3
	c0.1,0,0.1-0.1,0.2-0.1c0.2-0.1,0.5-0.3,0.7-0.4c0,0,0.1-0.1,0.1-0.1c0.2-0.1,0.4-0.3,0.6-0.5c0.1-0.1,0.1-0.1,0.2-0.2
	c0.2-0.2,0.3-0.3,0.5-0.5c0-0.1,0.1-0.1,0.1-0.1c0.2-0.2,0.4-0.5,0.5-0.7c0,0,0,0,0,0l82.9-132.4l82.9,132.4c1,1.5,2.4,2.6,3.9,3.1
	c0,0,0.1,0,0.1,0c0.3,0.1,0.6,0.2,1,0.2c0.1,0,0.2,0,0.2,0c0.4,0.1,0.7,0.1,1.1,0.1c0,0,0,0,0,0c0,0,0,0,0,0c0.6,0,1.3-0.1,2-0.3
	C759,505.4,761.3,501.3,760.2,497.3z M663.7,198.8l27.2,100.4l-27.2,43.5l-27.2-43.5L663.7,198.8z M594.9,452.5l36.2-133.6
	l23.7,37.9L594.9,452.5z M696.3,318.9l36.3,133.7l-60-95.8L696.3,318.9z"/>
<path class="st2" d="M209.8,268.4h-29.4c-5.6,0-10.2-4.6-10.2-10.2v-29.4c0-5.6,4.6-10.2,10.2-10.2h29.4c5.6,0,10.2,4.6,10.2,10.2
	v29.4C220,263.8,215.4,268.4,209.8,268.4z M185.2,253.4H205v-19.8h-19.8V253.4z"/>
<path class="st1" d="M375,33.4c-4.1,0-7.5,3.4-7.5,7.5v163.2h-16.1v-30.7c0-9.6-7.8-17.4-17.4-17.4H114.5c-9.6,0-17.4,7.8-17.4,17.4
	v98.4c0,9.6,7.8,17.4,17.4,17.4H334c9.6,0,17.4-7.8,17.4-17.4V245h23.1c0.3,0,0.6,0,0.8,0c4-0.2,7.2-3.4,7.2-7.5V40.9
	C382.5,36.7,379.2,33.4,375,33.4z M180.1,171v20.2h-33.3V171H180.1z M112.1,232.7h14.8v21.5h-14.8V232.7z M336.5,271.8
	c0,1.3-1.1,2.4-2.4,2.4H114.5c-1.3,0-2.4-1.1-2.4-2.4v-2.5h29.8v-51.5h-29.8v-44.4c0-1.3,1.1-2.4,2.4-2.4h17.2v35.2h63.3v-35.2H334
	c1.3,0,2.4,1.1,2.4,2.4v30.7V245V271.8z M367.5,230h-16v-10.9h16V230z"/>
<path class="st2" d="M318,269.2h-66.1c-7.5,0-13.6-6.1-13.6-13.6v-66.1c0-7.5,6.1-13.6,13.6-13.6H318c7.5,0,13.6,6.1,13.6,13.6v66.1
	C331.6,263.1,325.5,269.2,318,269.2z M253.3,254.2h63.3v-63.3h-63.3V254.2z"/>
<path class="st2" d="M209.8,557.8h-29.4c-5.6,0-10.2-4.6-10.2-10.2v-29.4c0-5.6,4.6-10.2,10.2-10.2h29.4c5.6,0,10.2,4.6,10.2,10.2
	v29.4C220,553.3,215.4,557.8,209.8,557.8z M185.2,542.8H205v-19.8h-19.8V542.8z"/>
<path class="st1" d="M375,322.9c-4.1,0-7.5,3.4-7.5,7.5v163.2h-16.1v-30.7c0-9.6-7.8-17.4-17.4-17.4H114.5
	c-9.6,0-17.4,7.8-17.4,17.4v98.4c0,9.6,7.8,17.4,17.4,17.4H334c9.6,0,17.4-7.8,17.4-17.4v-26.8h23.1c0.1,0,0.2,0,0.4,0
	c0.1,0,0.1,0,0.2,0c4.1,0,7.5-3.4,7.5-7.5V330.4C382.5,326.2,379.2,322.9,375,322.9z M180.1,460.4v20.2h-33.3v-20.2H180.1z
	 M112.1,522.2h14.8v21.5h-14.8V522.2z M336.5,561.2c0,1.3-1.1,2.4-2.4,2.4H114.5c-1.3,0-2.4-1.1-2.4-2.4v-2.5h29.8v-51.5h-29.8
	v-44.4c0-1.3,1.1-2.4,2.4-2.4h17.2v35.2h63.3v-35.2H334c1.3,0,2.4,1.1,2.4,2.4v30.7v40.9V561.2z M367.5,519.4h-16v-10.9h16V519.4z"
	/>
<path class="st2" d="M318,558.7h-66.1c-7.5,0-13.6-6.1-13.6-13.6V479c0-7.5,6.1-13.6,13.6-13.6H318c7.5,0,13.6,6.1,13.6,13.6v66.1
	C331.6,552.6,325.5,558.7,318,558.7z M253.3,543.7h63.3v-63.3h-63.3V543.7z"/>
<path class="st1" d="M1048.6,290.7H940.7c-12.9,0-23.4,10.5-23.4,23.4v169.3c0,12.9,10.5,23.4,23.4,23.4h107.9
	c12.9,0,23.4-10.5,23.4-23.4V314.1C1071.9,301.2,1061.5,290.7,1048.6,290.7z M932.3,416.4v-35.3c0-4.6,3.8-8.4,8.4-8.4h107.9
	c4.6,0,8.4,3.8,8.4,8.4v35.3c0,4.6-3.8,8.4-8.4,8.4H940.7C936.1,424.8,932.3,421,932.3,416.4z M932.3,314.1c0-4.6,3.8-8.4,8.4-8.4
	h107.9c4.6,0,8.4,3.8,8.4,8.4v35.3c0,4.6-3.8,8.4-8.4,8.4H940.7c-4.6,0-8.4-3.8-8.4-8.4V314.1z M1056.9,483.4c0,4.6-3.8,8.4-8.4,8.4
	H940.7c-4.6,0-8.4-3.8-8.4-8.4v-35.3c0-4.6,3.8-8.4,8.4-8.4h107.9c4.6,0,8.4,3.8,8.4,8.4V483.4z"/>
<path class="st2" d="M979.2,339.2h-23c-4.1,0-7.5-3.4-7.5-7.5s3.4-7.5,7.5-7.5h23c4.1,0,7.5,3.4,7.5,7.5S983.3,339.2,979.2,339.2z"
	/>
<path class="st2" d="M979.2,406.3h-23c-4.1,0-7.5-3.4-7.5-7.5s3.4-7.5,7.5-7.5h23c4.1,0,7.5,3.4,7.5,7.5S983.3,406.3,979.2,406.3z"
	/>
<path class="st2" d="M979.2,473.3h-23c-4.1,0-7.5-3.4-7.5-7.5s3.4-7.5,7.5-7.5h23c4.1,0,7.5,3.4,7.5,7.5S983.3,473.3,979.2,473.3z"
	/>
<circle class="st0" cx="1758.9" cy="198.3" r="7.5"/>
<circle class="st2" cx="1786.9" cy="198.3" r="7.5"/>
<path class="st1" d="M1728.6,205.8h-340.2c-4.1,0-7.5-3.4-7.5-7.5s3.4-7.5,7.5-7.5h340.2c4.1,0,7.5,3.4,7.5,7.5
	S1732.7,205.8,1728.6,205.8z"/>
<path class="st1" d="M1323.7,205.8h-12.9c-4.1,0-7.5-3.4-7.5-7.5s3.4-7.5,7.5-7.5h12.9c4.1,0,7.5,3.4,7.5,7.5
	S1327.8,205.8,1323.7,205.8z"/>
<path class="st1" d="M1358.5,205.8h-12.9c-4.1,0-7.5-3.4-7.5-7.5s3.4-7.5,7.5-7.5h12.9c4.1,0,7.5,3.4,7.5,7.5
	S1362.6,205.8,1358.5,205.8z"/>
<path class="st1" d="M106.1,381.1v-3.6h2.9v-17.6h-2.9v-3.6H117v3.6h-3.7v17.6h7.7l0.8-5.2l3.6,0.3l-0.8,8.5H106.1z"/>
<path class="st1" d="M135.5,381.5c-5.2,0-8.7-3.4-8.7-8.8c0-5,3-9.2,9-9.2s8.9,4.1,8.9,9C144.7,377.9,140.9,381.5,135.5,381.5z
	 M135.7,366.7c-2.9,0-4.6,2.3-4.6,5.7c0,3.3,1.6,5.8,4.6,5.8s4.8-2.4,4.8-5.9C140.4,368.7,138.5,366.7,135.7,366.7z"/>
<path class="st1" d="M162.7,381.1l-5.1-9.9h-4.1v6.2h2.9v3.6h-10v-3.6h2.9v-17.6h-2.9v-3.6h11.1c6.2,0,9.2,2.7,9.2,7.4
	c0.1,3.1-2,6-5,6.8l3.8,7.1h3.1v3.6H162.7z M156.7,359.8h-3.2v8h3.2c4.1,0,5.4-1.5,5.4-4.2S160.7,359.8,156.7,359.8L156.7,359.8z"/>
<path class="st1" d="M178.6,363.5c3.8,0,6.6,1.9,6.6,5.8v7.8c0,1.1,0.4,1.5,1.3,1.5c0.3,0,0.6-0.1,0.9-0.2v2.3
	c-0.8,0.5-1.8,0.7-2.8,0.7c-1.8,0.1-3.4-1.3-3.5-3.1c0-0.1,0-0.2,0-0.3V378c-1.1,2.1-3.3,3.4-5.6,3.5c-2.4,0-5.3-1.3-5.3-4.9
	c0-4.3,4.1-5.2,8-5.2c1,0,2,0,2.9,0.1v-1c0-2-0.4-4-3.2-4c-1,0-2,0.2-2.9,0.6l-0.7,2.6l-3.3-0.3l0.7-4.3
	C173.9,364,176.2,363.5,178.6,363.5z M181.1,373.7c-0.9-0.1-1.8-0.2-2.8-0.2c-2,0-4,0.5-4,2.7c-0.1,1.2,0.9,2.3,2.1,2.4
	c0.1,0,0.3,0,0.4,0c2.3,0,4.2-1.9,4.2-4.2L181.1,373.7z"/>
<path class="st1" d="M220.6,359.8v21.3h-2.4l-13.8-17.3h-0.1v13.6h3.6v3.6h-10.4v-3.6h2.8v-17.6H197v-3.6h6.2l13.1,16.5h0.1v-12.8
	h-3.6v-3.6h10.5v3.6H220.6z"/>
<path class="st1" d="M233.4,381.5c-5.2,0-8.7-3.4-8.7-8.8c0-5,3-9.2,9-9.2s8.9,4.1,8.9,9C242.6,377.9,238.8,381.5,233.4,381.5z
	 M233.5,366.7c-2.9,0-4.6,2.3-4.6,5.7c0,3.3,1.6,5.8,4.6,5.8s4.8-2.4,4.8-5.9C238.3,368.7,236.4,366.7,233.5,366.7L233.5,366.7z"/>
<path class="st1" d="M257.9,381.1v-3.3c-1.1,2.3-3.4,3.8-6,3.7c-4.5,0-7.3-3.2-7.3-8.6c0-4.9,2.4-9.3,7.7-9.3c2.3-0.2,4.5,1,5.6,3
	v-8.7h-3.7v-3.1h7.8V378h2.5v3.1L257.9,381.1z M257.9,371.5c0.1-2.4-1.7-4.5-4.1-4.7c-0.1,0-0.2,0-0.3,0c-2.8,0-4.6,2.2-4.6,5.8
	s2,5.6,4.4,5.6c2.8,0,4.6-2.8,4.7-5.4V371.5z"/>
<path class="st1" d="M274.7,381.5c-5,0-8.6-3-8.6-8.7c0-5.3,3.1-9.2,8.4-9.2c4.8,0,7.8,3.2,7.8,7.5c0,0.8-0.1,1.5-0.2,2.3h-11.6
	c0.2,3.1,1.8,4.8,4.6,4.8c1.9,0.2,3.7-1.1,4-3l3.4,0.6C282.1,378.9,279.4,381.5,274.7,381.5z M274.5,366.6c-2.5,0-3.7,1.8-4,4.3h7.6
	C278.3,368.8,277.2,366.6,274.5,366.6z"/>
<path class="st1" d="M294.4,353.6c-4.2,5.4-6.4,11.1-6.4,17.2c0.1,6.3,2.3,12.5,6.4,17.4h-3.8c-3.9-5-6.1-11.1-6.1-17.4
	c0.1-6.3,2.2-12.3,6.2-17.2H294.4z"/>
<path class="st1" d="M301.2,381.5c-2.5,0-4.9-0.6-7-1.7l0.6-4.5l3.2,0.3v2.2c1,0.4,2,0.5,3,0.5c2.1,0,3.9-0.7,3.9-2.2
	c0-3.6-10.5-0.7-10.5-7.4c0-4,3.7-5.2,7.1-5.2c2.2,0,4.4,0.5,6.3,1.6l0.4,4.2l-3.2,0.4l-0.4-2.6c-1-0.4-2-0.6-3-0.6
	c-1.6,0-2.8,0.6-2.8,2c0,3.5,10.3,0.6,10.3,7.4C309,379.6,305.7,381.5,301.2,381.5z"/>
<path class="st1" d="M308.4,388.1c4-4.8,6.3-10.9,6.4-17.2c-0.1-6.3-2.3-12.5-6.4-17.4h3.8c3.9,5,6,11.1,6.1,17.4
	c-0.1,6.3-2.2,12.3-6.2,17.2H308.4z"/>
<path class="st1" d="M534.4,571.2h-12.6v-3.6h2.9v-17.6h-2.9v-3.6h12.4c4.7,0,7.5,2.3,7.5,5.9c0.1,2.6-1.8,4.9-4.4,5.2v0.2
	c3.2,0.3,5.5,3.1,5.4,6.3C542.7,567.9,540,571.2,534.4,571.2z M533.2,549.9H529v6.8h4c2.9,0,4.3-1.4,4.3-3.5
	C537.2,550.6,535.5,549.9,533.2,549.9L533.2,549.9z M533.9,560.1h-5v7.5h4.4c3.1,0,4.8-1.2,4.8-3.8
	C538.2,561.3,536.7,560.1,533.9,560.1L533.9,560.1z"/>
<path class="st1" d="M558.7,554.7l0.7,5.4l-3.2,0.4l-0.7-3c-0.4-0.2-0.8-0.4-1.3-0.4c-1.5,0-2.7,1.3-2.7,3.3v7.6h3.4v3.2h-10V568
	h2.6v-10.8h-2.7V554h6.5v3.2c0.6-2,2-3.5,4.1-3.5C556.6,553.7,557.7,554.1,558.7,554.7z"/>
<path class="st1" d="M561.7,571.2V568h2.6v-10.8h-2.7V554h6.8v14h2.6v3.2L561.7,571.2z M564.1,545.9h4.2v4.5h-4.2V545.9z"/>
<path class="st1" d="M586,571.2v-3.3c-1.1,2.3-3.4,3.8-6,3.7c-4.5,0-7.3-3.3-7.3-8.6c0-4.9,2.4-9.3,7.7-9.3c2.3-0.2,4.5,1,5.6,3V548
	h-3.7v-3.1h7.8V568h2.5v3.2L586,571.2z M586,561.6c0.1-2.4-1.7-4.5-4.1-4.7c-0.1,0-0.2,0-0.3,0c-2.8,0-4.6,2.2-4.6,5.8
	s2,5.5,4.4,5.5c2.8,0,4.6-2.8,4.7-5.4V561.6z"/>
<path class="st1" d="M611.6,557.1v13.4c0,5.5-3.1,9.2-9.1,9.2c-3.6,0-7.1-1.3-8.3-5.1l3.2-1.7c0.8,2.1,2.9,3.6,5.2,3.5
	c2.8,0,4.9-2.1,4.9-5.9v-2.6c-1.1,2.2-3.4,3.5-5.8,3.3c-4,0-7.4-2.9-7.4-8.3c0-4.9,2.7-9.3,7.7-9.3c2.3-0.1,4.4,1,5.6,3V554h6.6v3.2
	L611.6,557.1z M607.5,561.6c0-2.9-1.8-4.7-4.3-4.7c-2.8,0-4.5,2.2-4.5,5.8s1.7,5.3,4.1,5.3c2.6,0,4.7-2.2,4.7-4.8c0-0.1,0-0.1,0-0.2
	V561.6z"/>
<path class="st1" d="M624.3,571.6c-5,0-8.6-3-8.6-8.7c0-5.3,3.1-9.2,8.4-9.2c4.8,0,7.7,3.2,7.8,7.5c0,0.8-0.1,1.5-0.2,2.3H620
	c0.2,3.1,1.8,4.8,4.6,4.8c1.9,0.2,3.7-1.1,4-3l3.4,0.7C631.7,569,628.9,571.6,624.3,571.6z M624,556.6c-2.5,0-3.7,1.8-4,4.2h7.6
	C627.8,558.9,626.7,556.6,624,556.6z"/>
<path class="st1" d="M646.1,571.2h-4l7.8-26.4h4L646.1,571.2z"/>
<path class="st1" d="M686.1,561.4v9.8h-3.3l-0.4-2.9c-1.8,2.2-4.6,3.4-7.4,3.3c-6.9,0-11.5-5.5-11.5-12.7s4.6-13,12.6-13
	c4,0,7.4,1.3,9.1,3l0.7,5.1l-3.5,0.3l-0.7-3.1c-1.7-1-3.7-1.6-5.7-1.5c-4.7,0-7.9,3.3-7.9,9.2s3.1,9,7.6,9c3.8,0,6.2-2.3,6.2-5.5
	v-0.9h-5.3v-3.6h11v3.6L686.1,561.4z"/>
<path class="st1" d="M698.3,553.6c3.8,0,6.6,1.9,6.6,5.8v7.7c0,1.1,0.4,1.5,1.3,1.5c0.3,0,0.6-0.1,0.9-0.2v2.3
	c-0.8,0.5-1.8,0.7-2.8,0.7c-1.8,0.1-3.4-1.3-3.5-3.1c0-0.1,0-0.2,0-0.3v-0.1c-1.1,2.1-3.3,3.5-5.6,3.5c-2.4,0-5.3-1.3-5.3-4.9
	c0-4.2,4.1-5.2,8-5.2c1,0,1.9,0,2.9,0.2v-1c0-2-0.3-4-3.2-4c-1-0.1-2,0.1-2.9,0.6l-0.7,2.7l-3.3-0.3l0.7-4.3
	C693.5,554.1,695.9,553.5,698.3,553.6z M700.8,563.7c-0.9-0.1-1.8-0.2-2.8-0.2c-2,0-4,0.5-4,2.7c-0.1,1.2,0.9,2.3,2.1,2.4
	c0.1,0,0.3,0,0.4,0c2.3,0,4.2-1.9,4.2-4.2L700.8,563.7z"/>
<path class="st1" d="M716.6,571.6c-3.7,0-6-2-6-5.5v-9H708v-3h2.5v-5.3h4.1v5.3h6.4v3h-6.4v8.4c0,1.8,0.8,2.7,2.4,2.7
	c0.9,0,2.2-0.3,2.6-3l3,1C722.2,569.8,720,571.6,716.6,571.6z"/>
<path class="st1" d="M732.2,571.6c-5,0-8.6-3-8.6-8.7c0-5.3,3.1-9.2,8.4-9.2c4.8,0,7.7,3.2,7.8,7.5c0,0.8-0.1,1.5-0.2,2.3h-11.6
	c0.2,3.1,1.8,4.8,4.6,4.8c1.9,0.2,3.7-1.1,4-3l3.4,0.7C739.5,569,736.8,571.6,732.2,571.6z M731.9,556.6c-2.5,0-3.7,1.8-4,4.2h7.6
	C735.7,558.9,734.6,556.6,731.9,556.6z"/>
<path class="st1" d="M767.6,557.1l-4.8,14.1h-3.1l-4.7-11.3h-0.2l-4.5,11.3h-2.9l-4.9-14.1h-1.7V554h8.7v3.1h-2.7l2.6,8.3h0.2
	l4.4-11.4h2.5l4.9,11.3h0.2l2.1-8.2h-2.6V554h8v3.1L767.6,557.1z"/>
<path class="st1" d="M779.3,553.6c3.8,0,6.6,1.9,6.6,5.8v7.7c0,1.1,0.4,1.5,1.3,1.5c0.3,0,0.6-0.1,0.9-0.2v2.3
	c-0.8,0.5-1.8,0.7-2.8,0.7c-1.8,0.1-3.4-1.3-3.5-3.1c0-0.1,0-0.2,0-0.3v-0.1c-1.1,2.1-3.3,3.5-5.6,3.5c-2.4,0-5.3-1.3-5.3-4.9
	c0-4.2,4.1-5.2,8-5.2c1,0,2,0,2.9,0.2v-1c0-2-0.3-4-3.2-4c-1-0.1-2,0.1-2.9,0.6l-0.7,2.7l-3.3-0.3l0.7-4.3
	C774.5,554.1,776.9,553.5,779.3,553.6z M781.8,563.7c-0.9-0.1-1.8-0.2-2.8-0.2c-2,0-4,0.5-4,2.7c-0.1,1.2,0.9,2.3,2.1,2.4
	c0.1,0,0.3,0,0.4,0c2.3,0,4.2-1.9,4.2-4.2L781.8,563.7z"/>
<path class="st1" d="M805.9,557.1l-5.8,14.1l-1.9,4.9h2.5v3.2h-9.2v-3.2h2.9l1.7-4.8l-6.1-14.2h-1.9V554h8.5v3.1h-2.2l4,9.3h0.2
	l3.2-9.3h-2V554h7.8v3.1L805.9,557.1z"/>
<path class="st1" d="M860.4,257.8c-3.4,0-6.8-0.8-8.6-2.4l0.7-5.7l3.4,0.3l-0.1,3.1c1.3,0.7,2.8,1,4.3,1c3,0,5.2-0.7,5.2-3.6
	c0-3.1-2.6-3.8-5.6-4.3c-3.6-0.7-7.7-1.6-7.7-6.8s4.2-7.3,8.6-7.3c3.1,0,6.2,1,7.9,2.5l0.2,5.3l-3.4,0.3l-0.3-3.2
	c-1.3-0.7-2.7-1.1-4.2-1.1c-2.4,0-4.2,0.9-4.2,3.1c0,2.5,2.3,3.1,4.8,3.6c3.2,0.7,8.5,1.4,8.5,7.5
	C869.8,255,866.1,257.8,860.4,257.8z"/>
<path class="st1" d="M880.1,257.8c-3.7,0-6-2-6-5.5v-9h-2.5v-3h2.5v-5.3h4.1v5.3h6.4v3h-6.4v8.4c0,1.8,0.8,2.7,2.4,2.7
	c0.9,0,2.2-0.3,2.6-3l3,1C885.7,256,883.5,257.8,880.1,257.8z"/>
<path class="st1" d="M895.7,257.8c-5,0-8.6-3-8.6-8.7c0-5.3,3.1-9.2,8.4-9.2c4.8,0,7.7,3.2,7.8,7.5c0,0.8-0.1,1.5-0.2,2.3h-11.6
	c0.2,3.1,1.8,4.8,4.6,4.8c1.9,0.2,3.7-1.1,4-3l3.4,0.6C903.1,255.2,900.4,257.8,895.7,257.8z M895.4,242.9c-2.5,0-3.7,1.8-4,4.3h7.6
	C899.2,245.1,898.1,242.9,895.4,242.9z"/>
<path class="st1" d="M914,239.8c3.8,0,6.6,1.9,6.6,5.8v7.7c0,1.1,0.4,1.5,1.3,1.5c0.3,0,0.6-0.1,0.9-0.2v2.3
	c-0.8,0.5-1.8,0.7-2.8,0.7c-1.8,0.1-3.4-1.3-3.5-3.1c0-0.1,0-0.2,0-0.3v-0.1c-1.1,2.1-3.3,3.4-5.6,3.5c-2.4,0-5.3-1.3-5.3-4.9
	c0-4.3,4.1-5.2,8-5.2c1,0,2,0,2.9,0.2v-1c0-2-0.3-4-3.2-4c-1,0-2,0.2-2.9,0.6l-0.7,2.6l-3.3-0.3l0.7-4.3
	C909.2,240.3,911.6,239.8,914,239.8z M916.5,250c-0.9-0.1-1.8-0.2-2.8-0.2c-2,0-4,0.5-4,2.7c-0.1,1.2,0.9,2.3,2.1,2.4
	c0.1,0,0.3,0,0.4,0c2.3,0,4.2-1.9,4.2-4.2L916.5,250z"/>
<path class="st1" d="M948.8,257.4v-3.1h1v-6.8c0-3.3-1.2-4.5-3.3-4.5c-2.7,0-3.9,2.2-4,4.5v6.7h2.6v3.1h-7.6v-3.1h0.9v-6.7
	c0-3.3-1.2-4.5-3.3-4.5c-2.7,0-3.9,2.1-4,4.5v6.8h3.2v3.1h-9.9v-3.1h2.6v-10.9h-2.5v-3.2h6.6v2.8c1.1-2,3.1-3.2,5.4-3.2
	c2.5-0.2,4.9,1.4,5.6,3.9c0.9-2.4,3.2-3.9,5.8-3.9c3.2,0,5.9,1.9,5.9,6.2v8.2h2.5v3.1L948.8,257.4z"/>
<path class="st1" d="M957.5,257.4v-3.1h2.6v-20.1h-2.7V231h6.8v23.2h2.6v3.1L957.5,257.4z"/>
<path class="st1" d="M968.7,257.4v-3.1h2.6v-10.9h-2.7v-3.2h6.8v14.1h2.6v3.1H968.7z M971.1,232.1h4.2v4.5h-4.2V232.1z"/>
<path class="st1" d="M991.5,257.4v-3.1h2.5v-6.8c0-3.3-1.2-4.5-3.3-4.5c-2.3,0-4.2,1.8-4.3,4.1c0,0.1,0,0.2,0,0.3v6.9h2.6v3.1h-9.2
	v-3.1h2.6v-10.9h-2.7v-3.2h6.8v2.8c1.2-2,3.4-3.2,5.7-3.1c3.3,0,6,1.9,6,6.2v8.2h2.6v3.1L991.5,257.4z"/>
<path class="st1" d="M1012.8,257.4v-3.1h2l-3.6-4.3h-2.8v4.3h1.9v3.1h-8.6v-3.1h2.6v-20.1h-2.7V231h6.8v16h3l3-3.6h-2.3v-3.2h8.4
	v3.2h-2.2l-4.1,4.8l5.2,6.1h1.8v3.1H1012.8z"/>
<path class="st1" d="M1039.8,257.8c-3.4,0-6.8-0.8-8.6-2.4l0.7-5.7l3.4,0.3l-0.1,3.1c1.3,0.7,2.8,1,4.3,1c3,0,5.2-0.7,5.2-3.6
	c0-3.1-2.7-3.8-5.6-4.3c-3.6-0.7-7.7-1.6-7.7-6.8s4.2-7.3,8.6-7.3c3.1,0,6.2,1,7.9,2.5l0.2,5.3l-3.4,0.3l-0.3-3.2
	c-1.3-0.7-2.7-1.1-4.2-1.1c-2.4,0-4.2,0.9-4.2,3.1c0,2.5,2.3,3.1,4.8,3.6c3.1,0.7,8.5,1.4,8.5,7.5
	C1049.2,255,1045.4,257.8,1039.8,257.8z"/>
<path class="st1" d="M1060.2,257.8c-5,0-8.6-3-8.6-8.7c0-5.3,3.1-9.2,8.3-9.2c4.8,0,7.8,3.2,7.8,7.5c0,0.8-0.1,1.5-0.2,2.3h-11.6
	c0.2,3.1,1.8,4.8,4.6,4.8c1.9,0.2,3.7-1.1,4-3l3.4,0.6C1067.6,255.2,1064.8,257.8,1060.2,257.8z M1059.9,242.9c-2.5,0-3.7,1.8-4,4.3
	h7.6C1063.7,245.1,1062.6,242.9,1059.9,242.9z"/>
<path class="st1" d="M1083.7,240.9l0.7,5.4l-3.2,0.4l-0.7-3c-0.4-0.2-0.8-0.4-1.3-0.4c-1.5,0-2.7,1.3-2.7,3.3v7.6h3.4v3.1H1070v-3.1
	h2.6v-10.9h-2.7v-3.2h6.5v3.2c0.6-2,2-3.5,4.1-3.5C1081.6,239.9,1082.8,240.2,1083.7,240.9z"/>
<path class="st1" d="M1103.2,243.3l-6.2,14.1h-3l-6.5-14.1h-1.9v-3.1h8.4v3.1h-2l3.9,8.7h0.2l3.2-8.7h-1.9v-3.1h7.7v3.1H1103.2z"/>
<path class="st1" d="M1114.4,257.8c-5,0-8.6-3-8.6-8.7c0-5.3,3.1-9.2,8.3-9.2c4.8,0,7.8,3.2,7.8,7.5c0,0.8-0.1,1.5-0.2,2.3h-11.6
	c0.2,3.1,1.8,4.8,4.6,4.8c1.9,0.2,3.7-1.1,4-3l3.4,0.6C1121.8,255.2,1119.1,257.8,1114.4,257.8z M1114.1,242.9c-2.5,0-3.7,1.8-4,4.3
	h7.6C1118,245.1,1116.9,242.9,1114.1,242.9z"/>
<path class="st1" d="M1137.9,240.9l0.7,5.4l-3.2,0.4l-0.7-3c-0.4-0.2-0.8-0.4-1.3-0.4c-1.5,0-2.7,1.3-2.7,3.3v7.6h3.4v3.1h-10.1
	v-3.1h2.6v-10.9h-2.7v-3.2h6.5v3.2c0.6-2,2-3.5,4.1-3.5C1135.9,239.9,1137,240.2,1137.9,240.9z"/>
<path class="st1" d="M1477.9,359.8l-6.8,21.3h-3.1l-6.1-17.5h-0.2l-5.9,17.5h-3.2l-7.2-21.3h-2.2v-3.6h9.5v3.6h-2.8l4.3,14.3h0.2
	l4.9-14.3h-2.2v-3.6h9.4v3.6h-2l4.9,14.5h0.2l3.9-14.5h-3.1v-3.6h9.3v3.6H1477.9z"/>
<path class="st1" d="M1487.7,381.5c-5,0-8.6-3-8.6-8.7c0-5.3,3.1-9.2,8.3-9.2c4.8,0,7.8,3.2,7.8,7.5c0,0.8-0.1,1.5-0.2,2.3h-11.6
	c0.2,3.1,1.8,4.8,4.6,4.8c1.9,0.2,3.7-1.1,4-3l3.4,0.6C1495.1,378.9,1492.4,381.5,1487.7,381.5z M1487.4,366.6c-2.5,0-3.7,1.8-4,4.3
	h7.6C1491.3,368.8,1490.2,366.6,1487.4,366.6z"/>
<path class="st1" d="M1508.4,381.5c-2.3,0.2-4.5-1-5.7-3.1c-0.1,0.6-0.3,2.1-0.4,2.7h-4.1c0.4-1.7,0.6-3.4,0.6-5.2v-18.1h-2.6v-3.1
	h6.6v12.6c1-2.4,3.4-3.8,5.9-3.8c4.3,0,7.4,3.1,7.4,8.5C1516.2,377,1513.7,381.5,1508.4,381.5z M1507.6,366.8
	c-2.9,0-4.6,2.6-4.7,5.1v1.2c0,2.8,1.8,5.1,4.5,5.1s4.5-2.3,4.5-5.8S1510.2,366.8,1507.6,366.8z"/>
<path class="st1" d="M1538.6,381.5c-7.2,0-12.4-5.2-12.4-12.5c0-6.2,3.8-13.1,12.4-13.1c3.2-0.1,6.4,0.9,8.9,3l0.7,5.4l-3.5,0.3
	l-0.6-3.5c-1.7-1-3.6-1.5-5.5-1.5c-4.7,0-7.8,3.5-7.8,9.2c0,5.9,3.3,9,8.2,9c1.7,0,3.4-0.3,5-1.1l0.6-3.7l3.5,0.3l-0.5,5.4
	C1545.7,380.4,1542.1,381.5,1538.6,381.5z"/>
<path class="st1" d="M1559.4,381.5c-5.2,0-8.7-3.4-8.7-8.8c0-5,3-9.2,9-9.2s8.9,4.1,8.9,9C1568.6,377.9,1564.8,381.5,1559.4,381.5z
	 M1559.6,366.7c-2.9,0-4.6,2.3-4.6,5.7c0,3.3,1.6,5.8,4.6,5.8s4.8-2.4,4.8-5.9C1564.3,368.7,1562.4,366.7,1559.6,366.7z"/>
<path class="st1" d="M1582.4,381.1V378h2.6v-6.8c0-3.3-1.2-4.5-3.3-4.5c-2.3,0-4.2,1.8-4.3,4.1c0,0.1,0,0.2,0,0.3v6.9h2.6v3.1h-9.2
	V378h2.6v-10.9h-2.7v-3.2h6.8v2.8c1.2-2,3.4-3.2,5.7-3.1c3.3,0,6,1.9,6,6.2v8.3h2.6v3.1L1582.4,381.1z"/>
<path class="st1" d="M1600.4,381.5c-2.5,0-4.9-0.6-7.1-1.7l0.6-4.5l3.2,0.3v2.2c1,0.4,2,0.5,3,0.5c2.1,0,3.9-0.7,3.9-2.2
	c0-3.6-10.5-0.7-10.5-7.4c0-4,3.7-5.2,7.1-5.2c2.2,0,4.4,0.5,6.3,1.6l0.4,4.2l-3.2,0.4l-0.3-2.6c-1-0.4-2-0.6-3-0.6
	c-1.6,0-2.8,0.6-2.8,2c0,3.5,10.3,0.6,10.3,7.4C1608.2,379.6,1604.9,381.5,1600.4,381.5z"/>
<path class="st1" d="M1619.1,381.5c-5.2,0-8.7-3.4-8.7-8.8c0-5,3-9.2,9-9.2s8.9,4.1,8.9,9C1628.2,377.9,1624.5,381.5,1619.1,381.5z
	 M1619.2,366.7c-2.9,0-4.6,2.3-4.6,5.7c0,3.3,1.6,5.8,4.6,5.8s4.8-2.4,4.8-5.9C1624,368.7,1622,366.7,1619.2,366.7z"/>
<path class="st1" d="M1630,381.1V378h2.6v-20.1h-2.7v-3.1h6.8V378h2.6v3.1L1630,381.1z"/>
<path class="st1" d="M1649.5,381.5c-5,0-8.6-3-8.6-8.7c0-5.3,3.1-9.2,8.4-9.2c4.8,0,7.7,3.2,7.8,7.5c0,0.8-0.1,1.5-0.2,2.3h-11.6
	c0.2,3.1,1.8,4.8,4.6,4.8c1.9,0.2,3.7-1.1,4-3l3.4,0.6C1656.9,378.9,1654.2,381.5,1649.5,381.5z M1649.2,366.6c-2.4,0-3.7,1.8-4,4.3
	h7.6C1653.1,368.8,1652,366.6,1649.2,366.6z"/>
<path class="st3" d="M1801.6,162.9h-501.9c-11.8,0-21.3,9.6-21.3,21.3v32.1v15v279.6c0,11.8,9.6,21.3,21.3,21.3h501.9
	c11.8,0,21.3-9.6,21.3-21.3V231.3v-15v-32.1C1823,172.4,1813.4,162.9,1801.6,162.9z M1808,510.9c0,3.5-2.8,6.3-6.3,6.3h-501.9
	c-3.5,0-6.3-2.8-6.3-6.3V231.3H1808V510.9z M1293.4,216.3v-32.1c0-3.5,2.8-6.3,6.3-6.3h501.9c3.5,0,6.3,2.8,6.3,6.3v32.1H1293.4z"/>
</svg>
